<svg width="48" height="30" viewBox="0 0 48 30" fill="none" xmlns="http://www.w3.org/2000/svg">
<rect x="19.2319" y="20.25" width="18.0299" height="9" rx="4.5" fill="#FDC040"/>
<path d="M1.80315 2.8125L2.40414 3.75L4.20713 3.375L7.81311 3.1875L13.5226 3L19.5325 3.1875L29.7495 3.75L30.651 3.1875L31.252 2.25C31.3522 2 31.5525 1.4625 31.5525 1.3125C31.5525 1.1625 30.7512 1.125 30.3505 1.125L29.449 1.3125L28.5475 1.5H26.7445C26.444 1.3125 25.7829 0.9375 25.5425 0.9375C25.3021 0.9375 24.8414 0.6875 24.641 0.5625H23.1385L22.237 1.125L21.035 1.5H19.833L18.3306 0.9375L16.8281 0.375L15.3256 0.5625L14.4241 1.125L12.9216 1.5L11.4191 1.3125C11.1186 1.25 10.4575 1.125 10.2171 1.125C9.9767 1.125 9.71627 0.75 9.6161 0.5625H8.71461L7.51261 0.75C7.31228 0.875 6.85152 1.125 6.61112 1.125C6.31062 1.125 5.70962 1.3125 5.70962 1.5C5.70962 1.6875 4.80813 1.5 4.50763 1.5C4.20713 1.5 3.90663 1.5 3.60614 1.3125C3.36574 1.1625 2.90497 1.125 2.70464 1.125H1.50265L1.20215 1.875L1.80315 2.8125Z" fill="#FDC040"/>
<path d="M16.3097 19.2625C19.4961 19.2625 22.4995 18.6814 24.7669 17.6262C27.096 16.5423 28.3787 15.089 28.3787 13.5341C28.3787 11.9793 27.096 10.526 24.7669 9.44205C22.4995 8.38687 19.4961 7.80579 16.3097 7.80579C13.1233 7.80579 10.12 8.38687 7.8526 9.44205C5.5235 10.526 4.24072 11.9793 4.24072 13.5341C4.24072 15.089 5.52341 16.5423 7.8526 17.6262C10.12 18.6814 13.1233 19.2625 16.3097 19.2625ZM5.64934 13.5341C5.64934 10.8602 10.4316 8.68471 16.3097 8.68471C22.1879 8.68471 26.9701 10.8602 26.9701 13.5341C26.9701 16.2081 22.1879 18.3836 16.3097 18.3836C10.4316 18.3836 5.64934 16.2081 5.64934 13.5341Z" fill="#3BB77E"/>
<path d="M42.7839 25.7648C43.3704 25.4808 43.6896 25.1303 43.6896 24.7471C43.6896 24.3639 43.3705 24.0134 42.7839 23.7294C43.2973 23.5073 43.6457 23.2503 43.8246 22.961C43.9806 22.7087 44.0801 22.3024 43.6679 21.7991C43.3466 21.4069 42.8379 21.1524 42.1964 21.063C41.1687 20.92 39.808 21.2087 38.1441 21.9213C37.3582 20.5857 35.3562 19.6296 32.9572 19.5618C32.4539 19.5476 31.9494 19.5364 31.4442 19.5267C31.9296 14.2956 31.7756 8.99602 30.9848 3.76285C31.2452 3.50122 31.7432 2.92195 32.0559 2.0585C32.2441 1.53876 31.8896 1.02752 31.153 0.75605C30.4276 0.488799 29.553 0.540948 28.9251 0.889002C28.6098 1.06373 28.312 1.17202 27.8017 1.17202C27.1314 1.17202 26.8322 0.988906 26.3791 0.711752C25.8609 0.394578 25.2159 0 23.9704 0C22.725 0 22.0802 0.394578 21.562 0.711635C21.109 0.988789 20.8097 1.1719 20.1397 1.1719C19.4695 1.1719 19.1703 0.988789 18.7173 0.711635C18.1991 0.394578 17.5541 0 16.3087 0C15.0633 0 14.4184 0.394578 13.9003 0.711635C13.4473 0.988789 13.148 1.1719 12.478 1.1719C11.808 1.1719 11.5088 0.988789 11.0557 0.711635C10.5376 0.394578 9.89274 0 8.64734 0C7.40203 0 6.75726 0.394578 6.23917 0.711635C5.78616 0.988789 5.48697 1.1719 4.81713 1.1719C4.30703 1.1719 4.00915 1.06361 3.694 0.888943C3.06632 0.540948 2.19204 0.48874 1.46642 0.755874C0.729711 1.02723 0.375304 1.53841 0.563495 2.05815C0.876207 2.92195 1.37457 3.50134 1.63489 3.76291C1.51309 4.56864 1.40378 5.39038 1.31109 6.2103C1.28367 6.45241 1.57601 6.66253 1.96403 6.67958C2.35384 6.69646 2.68881 6.51423 2.71623 6.27212C2.80253 5.50886 2.90264 4.74343 3.01467 3.9916C11.8395 3.3286 20.7804 3.3286 29.6057 3.9916C30.3723 9.14303 30.5154 14.3577 30.0353 19.5055C27.809 19.481 25.5744 19.4991 23.3611 19.5617C20.962 19.6295 18.9601 20.5856 18.1742 21.9212C16.5103 21.2086 15.1494 20.9198 14.1219 21.0629C13.4804 21.1523 12.9716 21.4068 12.6503 21.799C12.2382 22.3023 12.3376 22.7086 12.4935 22.9609C12.6253 23.174 12.8497 23.3693 13.1634 23.5462C9.79329 23.4868 6.38698 23.3299 3.01467 23.0763C2.27045 18.0756 2.11147 13.0116 2.54231 8.01918C2.56326 7.77683 2.26529 7.56976 1.87689 7.55675C1.48614 7.54339 1.15671 7.7296 1.13567 7.97195C0.695435 13.0729 0.866722 18.2473 1.64259 23.3546C1.38434 23.6125 0.879212 24.1947 0.563777 25.0663C0.37521 25.5862 0.729617 26.0976 1.4666 26.3692C2.19195 26.6365 3.0666 26.5841 3.694 26.2362C4.00962 26.0615 4.30768 25.9532 4.81732 25.9532C5.48754 25.9532 5.78691 26.1363 6.24002 26.4135C6.75829 26.7306 7.40325 27.1251 8.64865 27.1251C9.89424 27.1251 10.5392 26.7305 11.0575 26.4135C11.5105 26.1363 11.81 25.9532 12.4801 25.9532C12.7072 25.9532 12.8921 25.9748 13.0535 26.0131C12.7969 26.1726 12.609 26.346 12.4932 26.5333C12.3373 26.7855 12.2379 27.1918 12.6501 27.6952C12.9713 28.0874 13.4801 28.3419 14.1216 28.4312C14.2923 28.455 14.4721 28.4669 14.6612 28.4669C15.6096 28.4669 16.7865 28.1666 18.1736 27.5726C18.9593 28.9084 20.9614 29.8646 23.3608 29.9324C24.9528 29.9774 26.5558 29.9999 28.1591 29.9999C29.762 29.9999 31.3653 29.9774 32.957 29.9324C35.3563 29.8646 37.3584 28.9083 38.1441 27.5725C39.5312 28.1666 40.7081 28.4668 41.6565 28.4668C41.8454 28.4668 42.0255 28.4549 42.1961 28.4312C42.8376 28.3418 43.3464 28.0873 43.6676 27.6951C44.0798 27.1918 43.9803 26.7855 43.8244 26.5332C43.6457 26.2438 43.2973 25.9869 42.7839 25.7648ZM2.67773 3.13231C2.46108 2.88176 2.151 2.45425 1.93746 1.86449C1.85998 1.65044 2.10555 1.5411 2.18255 1.51274C2.27562 1.47847 2.51827 1.4129 2.75858 1.54609C3.18258 1.78105 3.79974 2.05082 4.81713 2.05082C6.06244 2.05082 6.70721 1.65624 7.22539 1.33919C7.67831 1.06203 7.97759 0.878923 8.64743 0.878923C9.31737 0.878923 9.61656 1.06203 10.0697 1.33919C10.5877 1.65624 11.2326 2.05082 12.478 2.05082C13.7234 2.05082 14.3684 1.65624 14.8865 1.33919C15.3395 1.06203 15.6388 0.878923 16.3087 0.878923C16.9787 0.878923 17.278 1.06203 17.731 1.33919C18.2493 1.65624 18.8942 2.05082 20.1397 2.05082C21.3851 2.05082 22.0299 1.65624 22.5481 1.33919C23.0011 1.06203 23.3004 0.878923 23.9704 0.878923C24.6406 0.878923 24.9399 1.06203 25.3929 1.33919C25.9113 1.65624 26.5563 2.05082 27.8018 2.05082C28.8192 2.05082 29.4364 1.78111 29.8606 1.54609C30.1006 1.41296 30.3437 1.47841 30.4369 1.5128C30.514 1.54122 30.7597 1.65056 30.682 1.86467C30.4684 2.4546 30.1582 2.88217 29.9421 3.13225C20.8934 2.44388 11.7254 2.44388 2.67773 3.13231ZM32.1145 29.0737C31.1662 29.096 30.2149 29.1109 29.2624 29.1172C29.6835 27.1894 30.465 25.2432 31.5911 23.3245C31.7248 23.0965 31.5372 22.8442 31.1719 22.7607C30.8065 22.6772 30.4022 22.7944 30.2683 23.0222C29.0839 25.0405 28.2681 27.0898 27.84 29.1199C26.8932 29.1181 25.9471 29.1082 25.0032 29.0905C25.9578 24.759 28.504 21.4289 29.3833 20.3776C30.2696 20.3841 31.1546 20.3981 32.0371 20.4185C31.8335 20.678 31.5936 20.9964 31.3337 21.367C31.1777 21.5893 31.34 21.8485 31.6964 21.9458C31.7883 21.9709 31.8841 21.9828 31.9785 21.9828C32.2498 21.9828 32.5083 21.8844 32.624 21.7195C32.9951 21.1907 33.322 20.7736 33.5552 20.4896C34.3894 20.5918 35.1357 20.8387 35.7258 21.1873C34.607 22.7502 32.8561 25.6143 32.1145 29.0737ZM10.0715 25.7858C9.61844 26.063 9.31896 26.2461 8.64884 26.2461C7.97872 26.2461 7.67934 26.063 7.22633 25.7859C6.70796 25.4688 6.063 25.0742 4.81751 25.0742C3.80105 25.0742 3.1837 25.3438 2.75887 25.579C2.51865 25.7121 2.27599 25.6466 2.18302 25.6123C2.10583 25.5839 1.86017 25.4745 1.93793 25.2601C2.16744 24.6258 2.50917 24.1788 2.72572 23.9385C6.04244 24.1902 9.39268 24.3517 12.7113 24.418C12.6573 24.5244 12.6288 24.6343 12.6288 24.7471C12.6288 24.8612 12.6578 24.9723 12.713 25.0796C12.6376 25.0764 12.5606 25.0743 12.4805 25.0743C11.2348 25.0742 10.5898 25.4688 10.0715 25.7858ZM14.4288 27.5734C14.2732 27.5517 14.0728 27.5005 13.9048 27.2953C13.7146 27.0629 13.7583 26.9296 13.8078 26.8496C13.9537 26.6137 14.4856 26.3771 15.3056 26.1832C15.5818 26.1179 15.7635 25.9519 15.7604 25.7676C15.7573 25.5832 15.5701 25.4197 15.2917 25.3581C14.4299 25.1672 14.0374 24.9075 14.0374 24.747C14.0374 24.5865 14.43 24.3269 15.2917 24.136C15.5701 24.0744 15.7573 23.9108 15.7604 23.7265C15.7634 23.5421 15.5818 23.3762 15.3056 23.3109C14.4856 23.117 13.9537 22.8804 13.8078 22.6445C13.7584 22.5645 13.7146 22.4312 13.9048 22.1989C14.0728 21.9936 14.2732 21.9424 14.4288 21.9207C14.7605 21.8745 15.7401 21.8805 17.8408 22.8524C17.8345 22.8964 17.8283 22.9405 17.8245 22.985C17.7257 24.1542 17.7257 25.3398 17.8245 26.5089C17.8283 26.5534 17.8345 26.5975 17.8408 26.6416C15.7403 27.6135 14.761 27.6196 14.4288 27.5734ZM19.2311 23.0314C19.3505 21.6181 21.1536 20.5039 23.4248 20.4398C23.4481 20.4391 23.4716 20.4387 23.4949 20.438C22.5285 21.6771 20.7239 24.2825 19.7116 27.5759C19.4346 27.2404 19.265 26.8636 19.2311 26.4628C19.1349 25.3244 19.1349 24.1699 19.2311 23.0314ZM20.8888 28.4666C21.9332 24.4611 24.2857 21.3812 25.0994 20.4019C26.0005 20.3855 26.9038 20.3762 27.8076 20.3743C26.6959 21.7843 24.4603 25.0065 23.5889 29.0585C23.5342 29.057 23.4795 29.056 23.4248 29.0545C22.4651 29.0273 21.5896 28.8122 20.8888 28.4666ZM37.0871 26.4627C36.9795 27.7362 35.5046 28.7665 33.5522 29.0049C34.2201 26.0555 35.632 23.5674 36.6836 22.0169C36.9147 22.3271 37.0565 22.6693 37.0871 23.0314C37.1833 24.1699 37.1833 25.3243 37.0871 26.4627ZM42.4136 27.2952C42.2455 27.5005 42.0452 27.5517 41.8896 27.5734C41.5576 27.6195 40.5782 27.6135 38.4775 26.6418C38.4838 26.5977 38.49 26.5536 38.4938 26.509C38.5927 25.3399 38.5927 24.1543 38.4938 22.9851C38.49 22.9406 38.4838 22.8965 38.4775 22.8525C40.578 21.8807 41.5573 21.8745 41.8896 21.9208C42.0452 21.9425 42.2455 21.9937 42.4136 22.1989C42.6037 22.4312 42.56 22.5645 42.5104 22.6446C42.3646 22.8804 41.8327 23.1171 41.0127 23.3109C40.7365 23.3763 40.5549 23.5422 40.5579 23.7265C40.561 23.9109 40.7481 24.0744 41.0266 24.1361C41.8885 24.327 42.2809 24.5866 42.2809 24.7471C42.2809 24.9076 41.8884 25.1672 41.0266 25.3581C40.7481 25.4198 40.561 25.5833 40.5579 25.7676C40.5548 25.952 40.7364 26.1179 41.0127 26.1832C41.8327 26.3771 42.3646 26.6137 42.5105 26.8496C42.5599 26.9296 42.6037 27.0629 42.4136 27.2952Z" fill="#3BB77E"/>
<path d="M11.5974 12.0837C14.7245 11.8245 17.8952 11.8245 21.0222 12.0837C21.0536 12.0862 21.0849 12.0875 21.1158 12.0875C21.4635 12.0875 21.766 11.9269 21.813 11.7059C21.8643 11.4653 21.5932 11.2443 21.2076 11.2124C17.958 10.9431 14.6621 10.9431 11.4119 11.2124C11.0264 11.2443 10.7552 11.4653 10.8065 11.7059C10.8578 11.9465 11.2118 12.1155 11.5974 12.0837Z" fill="#3BB77E"/>
<path d="M21.813 15.4768C21.7619 15.2362 21.4075 15.0672 21.0222 15.099C17.8952 15.3582 14.7245 15.3582 11.5974 15.099C11.212 15.0671 10.8577 15.2362 10.8065 15.4768C10.7552 15.7174 11.0264 15.9383 11.4119 15.9703C13.0369 16.1049 14.6733 16.1722 16.3097 16.1722C17.9462 16.1722 19.5826 16.1049 21.2075 15.9703C21.5933 15.9383 21.8643 15.7174 21.813 15.4768Z" fill="#3BB77E"/>
<path d="M23.7207 13.5913C23.7207 13.3486 23.4055 13.1519 23.0164 13.1519H9.60274C9.21369 13.1519 8.89844 13.3486 8.89844 13.5913C8.89844 13.834 9.21369 14.0308 9.60274 14.0308H23.0164C23.4054 14.0308 23.7207 13.834 23.7207 13.5913Z" fill="#3BB77E"/>
</svg>
