<svg width="48" height="30" viewBox="0 0 48 30" fill="none" xmlns="http://www.w3.org/2000/svg">
<g clip-path="url(#clip0_806_1130)">
<path d="M30.4326 18.9375L29.2733 20.625L30.1428 21.75V22.3125L30.4326 23.0625C30.8191 23.1875 31.6499 23.4375 31.8818 23.4375C32.1137 23.4375 32.7513 23.5625 33.0411 23.625C33.0411 23.8125 32.9832 24.225 32.7513 24.375C32.5194 24.525 32.075 24.5625 31.8818 24.5625C31.6886 24.8125 31.3021 25.35 31.3021 25.5C31.3021 25.6875 31.0123 26.25 31.0123 26.4375C31.0123 26.5875 30.4326 27.25 30.1428 27.5625L30.4326 29.25C31.3021 29.3125 33.0991 29.4375 33.331 29.4375H37.9684C39.5142 29.125 42.6058 28.4625 42.6058 28.3125C42.6058 28.1625 43.7651 27.875 44.3448 27.75L45.5041 26.25L44.3448 24.5625L41.1566 20.4375L40.5769 20.25C40.1905 20.3125 39.3596 20.4 39.1277 20.25C38.8379 20.0625 37.9684 20.0625 37.9684 19.875C37.9684 19.6875 37.3887 19.6875 37.3887 19.5C37.3887 19.3125 37.0989 19.125 37.0989 18.9375V18.1875C37.0989 18 37.3887 17.8125 37.3887 17.625C37.3887 17.475 37.9684 17.3125 38.2582 17.25V16.6875C38.065 16.4375 37.6785 15.9 37.6785 15.75C37.6785 15.5625 36.809 15.1875 36.5192 15.1875C36.2294 15.1875 35.3598 15 35.07 15C34.8381 15 34.0073 15.25 33.6208 15.375L32.4615 16.6875L30.4326 18.9375Z" fill="#FDC040"/>
<path d="M18.8391 11.25L13.9119 11.0625L13.6221 11.8125V13.5L13.9119 16.125C14.2017 16.1875 14.8974 16.35 15.3611 16.5C15.9408 16.6875 17.6798 16.5 17.9696 16.5C18.2595 16.5 22.0273 16.3125 22.3172 16.125C22.607 15.9375 22.8969 15.5625 23.1867 15.375C23.4765 15.1875 23.4765 14.625 23.4765 14.4375V12.9375C23.4765 12.5625 23.1867 12 23.1867 11.8125C23.1867 11.6625 22.607 11.375 22.3172 11.25H18.8391Z" fill="#FDC040"/>
<path d="M46.076 25.5469L41.5544 19.7273C41.459 19.6045 41.2801 19.5176 41.0711 19.4926C40.8621 19.4675 40.647 19.5073 40.4899 19.5999C40.1706 19.7882 39.7551 19.8919 39.32 19.8919C38.3585 19.8919 37.5764 19.3856 37.5764 18.7633C37.5764 18.2257 38.1675 17.7602 38.982 17.6564C39.1903 17.6299 39.3675 17.5419 39.4609 17.4185C39.5543 17.2952 39.5531 17.1507 39.4578 17.028L38.3192 15.5617C37.7728 14.859 36.678 14.4224 35.462 14.4223C35.4619 14.4223 35.4618 14.4223 35.4617 14.4223C35.3442 14.4223 35.2283 14.4276 35.1134 14.4356C35.0836 13.35 35.0404 12.2631 34.983 11.1966C34.9255 10.1191 34.4358 9.06667 33.5666 8.15306C33.37 7.94634 32.9515 7.88189 32.6321 8.00916C32.3126 8.13636 32.213 8.40707 32.4096 8.61373C33.1555 9.39779 33.5759 10.3014 33.6252 11.227C33.6875 12.3821 33.7331 13.5614 33.7627 14.7367C33.2777 14.9333 32.8744 15.2147 32.6048 15.5613L29.2813 19.8392C27.9947 18.5457 26.1933 17.5422 24.0917 17.5422C20.4259 17.5422 17.6731 20.5944 16.974 22.9152H16.9301C16.5716 21.7251 15.673 20.3431 14.3882 19.2784C14.3789 18.4411 14.3787 17.5999 14.3866 16.757C15.0885 16.766 15.792 16.7719 16.4974 16.7719C18.26 16.7719 20.0297 16.7438 21.7854 16.6879C22.9757 16.65 23.9417 16.0669 24.0824 15.3014C24.2724 14.2676 24.2724 13.2193 24.0824 12.1856C23.9417 11.4201 22.9758 10.8369 21.7858 10.7991C19.4101 10.7235 17.0042 10.6994 14.6227 10.7262C14.9768 8.92206 16.7049 7.37054 19.2751 6.58537H28.9093C29.5849 6.79174 30.2154 7.05682 30.7841 7.37587C30.9126 7.448 31.071 7.48333 31.2288 7.48333C31.4189 7.48333 31.608 7.432 31.7424 7.3318C31.9881 7.14846 31.9576 6.8709 31.6742 6.71187C31.3681 6.54019 31.0458 6.38252 30.7109 6.23791C31.2984 5.93948 31.6769 5.47629 31.6769 4.95674C31.6769 4.21095 30.8977 3.58112 29.8386 3.38881V1.83477C29.8384 0.823076 28.5662 0 27.0022 0H21.1818C19.6179 0 18.3456 0.823076 18.3456 1.83477V3.38893C17.2864 3.58123 16.5073 4.21106 16.5073 4.95685C16.5073 5.47635 16.8856 5.93942 17.4729 6.23785C16.4473 6.68035 15.5576 7.24819 14.8568 7.91435C13.8365 8.88426 13.2639 10.0193 13.2012 11.1966C13.0737 13.5757 13.0139 15.9808 13.0222 18.3611C12.0713 17.8572 10.989 17.5423 9.81231 17.5423C8.16058 17.5423 6.4892 18.1965 5.10603 19.3844C4.88022 19.5782 4.94018 19.8538 5.2399 19.9998C5.53961 20.1459 5.96549 20.1071 6.19121 19.9132C6.84009 19.356 8.17335 18.4212 9.8124 18.4212C11.0891 18.4212 12.4302 18.9996 13.5889 20.0497C14.5065 20.8813 15.2102 21.9216 15.5437 22.9152H4.08035C4.2539 22.3996 4.52988 21.8653 4.89363 21.3451C5.04824 21.124 4.89653 20.8637 4.5547 20.7636C4.21296 20.6636 3.81044 20.7617 3.65574 20.9828C3.20966 21.6208 2.8834 22.2812 2.69555 22.9152H1.76281C0.791028 22.9152 0.000488281 23.4266 0.000488281 24.0552C0.000488281 24.6838 0.791119 25.1953 1.76281 25.1953H2.09667C2.20943 25.8686 2.39955 26.5395 2.5855 27.1919C2.71801 27.6568 2.85505 28.1376 2.95921 28.6061C3.10033 29.2387 3.88218 29.731 4.86093 29.8032C6.642 29.9342 8.22634 29.9997 9.81131 29.9997C11.3939 29.9997 12.9772 29.9344 14.7569 29.8038C15.0817 29.7799 15.3839 29.7094 15.6494 29.6038C16.3427 29.8637 17.1238 29.9999 17.9371 29.9999H24.0926L24.0908 29.9996C25.6763 29.9996 27.2614 29.9342 29.0434 29.8032C29.5153 29.7684 29.9405 29.6352 30.2712 29.4364C31.9519 29.8117 33.7002 29.9962 35.4407 29.9962C38.9808 29.9962 42.4872 29.2355 45.3202 27.7781C46.3504 27.2486 46.6683 26.3102 46.076 25.5469ZM19.7042 1.83477C19.7042 1.30771 20.367 0.878917 21.1818 0.878917H27.0022C27.8169 0.878917 28.4797 1.30771 28.4797 1.83477V3.32816H19.7042V1.83477ZM19.0249 4.20708H29.1591C29.7982 4.20708 30.318 4.54341 30.318 4.9568C30.318 5.37024 29.7981 5.70657 29.1591 5.70657H19.0249C18.3858 5.70657 17.8659 5.37024 17.8659 4.9568C17.8659 4.54341 18.3859 4.20708 19.0249 4.20708ZM21.7189 11.6771C22.2444 11.6937 22.671 11.9513 22.7331 12.2895C22.9105 13.2544 22.9105 14.2328 22.7331 15.1976C22.671 15.5358 22.2443 15.7934 21.7185 15.8101C19.2861 15.8876 16.8271 15.9102 14.3978 15.8789C14.421 14.4535 14.4686 13.0261 14.5403 11.6064C16.9264 11.5781 19.3378 11.6013 21.7189 11.6771ZM33.8183 15.9562C34.1373 15.5461 34.7515 15.3013 35.4616 15.3013H35.4617C36.1718 15.3014 36.7863 15.5463 37.1052 15.9566L37.8994 16.9791C36.8897 17.3167 36.2178 17.9991 36.2178 18.7634C36.2178 19.8703 37.6094 20.7708 39.32 20.7708C39.799 20.7708 40.2651 20.7001 40.6858 20.5664L44.4865 25.4582C44.4825 25.4603 44.4788 25.4627 44.4747 25.4648C42.5639 26.4479 40.2791 27.1056 37.8672 27.3665C35.6931 27.6018 33.45 27.512 31.3424 27.1098C31.5208 26.4832 31.6995 25.8404 31.8074 25.1953H32.1416C33.1134 25.1953 33.9039 24.6839 33.9039 24.0552C33.9039 23.4266 33.1134 22.9152 32.1416 22.9152H31.209C31.0026 22.2299 30.6172 21.481 30.0819 20.7656L33.8183 15.9562ZM20.3148 20.0498C21.4736 18.9996 22.8149 18.4212 24.0915 18.4212C25.3684 18.4212 26.7097 18.9996 27.8685 20.0498C28.7859 20.8814 29.4896 21.9217 29.823 22.9153H18.36C18.6934 21.9218 19.3972 20.8815 20.3148 20.0498ZM1.35912 24.0554C1.35912 23.9113 1.54027 23.7942 1.76281 23.7942H32.1416C32.3642 23.7942 32.5453 23.9113 32.5453 24.0554C32.5453 24.1993 32.3642 24.3165 32.1416 24.3165H1.76281C1.54017 24.3165 1.35912 24.1993 1.35912 24.0554ZM16.5391 28.9148C16.598 28.8167 16.6419 28.7137 16.6658 28.606C16.7293 28.3179 16.8046 27.9746 16.8834 27.6083C16.8889 27.5834 16.8918 27.5697 16.952 27.5697C17.0123 27.5697 17.0152 27.5834 17.0205 27.6079C17.0994 27.9747 17.1748 28.318 17.2384 28.6066C17.2781 28.7852 17.3707 28.9521 17.5032 29.1021C17.167 29.073 16.8428 29.01 16.5391 28.9148ZM28.8896 28.9301C25.44 29.1837 22.7515 29.1838 19.3009 28.9307C18.931 28.9034 18.6359 28.7187 18.5832 28.482C18.5199 28.1947 18.4448 27.8525 18.366 27.4864C18.2646 27.018 17.683 26.6908 16.9519 26.6909C16.2208 26.6909 15.6393 27.018 15.5378 27.4868C15.4591 27.8525 15.384 28.1948 15.3208 28.4815C15.2681 28.7187 14.9729 28.9034 14.6034 28.9307C11.1521 29.1838 8.46356 29.1837 5.01464 28.9301C4.64917 28.9031 4.35688 28.7183 4.30389 28.4808C4.19593 27.9953 4.05644 27.5059 3.92148 27.0326C3.74912 26.428 3.57331 25.8072 3.46372 25.1954H30.4403C30.3305 25.8089 30.1542 26.4314 29.9815 27.0376C29.8471 27.5094 29.708 27.9972 29.6001 28.4812C29.5472 28.7185 29.2549 28.9031 28.8896 28.9301ZM44.4747 27.0902C40.6709 29.047 35.5393 29.6287 30.9316 28.6523C30.9358 28.637 30.9414 28.6222 30.9448 28.6068C30.9911 28.3994 31.0443 28.1897 31.1001 27.98C32.5194 28.2414 33.9926 28.374 35.4684 28.374C36.3456 28.374 37.2236 28.3273 38.0914 28.2334C40.6012 27.9619 42.9845 27.2969 45.0116 26.3064C45.0377 26.6022 44.8477 26.8985 44.4747 27.0902Z" fill="#3BB77E"/>
<path d="M36.0951 25.3941C36.5528 25.8248 37.2425 26.1144 38.0369 26.2096C38.2228 26.2318 38.4091 26.2429 38.594 26.2429C39.2 26.2429 39.7913 26.1248 40.3014 25.898C40.9672 25.6018 41.4149 25.1557 41.5619 24.6418C41.7091 24.1279 41.5379 23.6076 41.0803 23.1769C40.6225 22.7462 39.9329 22.4566 39.1385 22.3614C38.3438 22.2663 37.5398 22.377 36.874 22.673C36.2082 22.9692 35.7606 23.4153 35.6135 23.9292C35.4662 24.4432 35.6373 24.9635 36.0951 25.3941ZM36.9493 24.0892C37.0304 23.8061 37.277 23.5604 37.6437 23.3973C37.9247 23.2723 38.2504 23.2073 38.5841 23.2073C38.686 23.2073 38.7888 23.2134 38.891 23.2256C39.3287 23.2781 39.7085 23.4376 39.9608 23.6749C40.2129 23.9121 40.3071 24.1987 40.2262 24.4818C40.1451 24.7649 39.8985 25.0107 39.5317 25.1738C39.1649 25.3369 38.7218 25.3979 38.2844 25.3455C37.8468 25.2931 37.4669 25.1336 37.2147 24.8963C36.9625 24.659 36.8682 24.3724 36.9493 24.0892Z" fill="#3BB77E"/>
<path d="M33.2424 22.7582C33.3779 22.7744 33.5138 22.7825 33.6487 22.7825C34.0904 22.7825 34.5215 22.6964 34.8934 22.531C35.3788 22.3151 35.7051 21.9899 35.8124 21.6152C35.9197 21.2405 35.7949 20.8612 35.4612 20.5472C35.1275 20.2331 34.6247 20.022 34.0456 19.9526C32.8499 19.8095 31.697 20.3222 31.4756 21.0957C31.2541 21.8692 32.0468 22.615 33.2424 22.7582ZM32.8114 21.2557C32.8964 20.9587 33.3391 20.7617 33.7981 20.8169C34.0205 20.8435 34.2135 20.9246 34.3416 21.0452C34.4698 21.1657 34.5176 21.3114 34.4765 21.4552C34.4353 21.599 34.31 21.724 34.1236 21.8068C33.9373 21.8897 33.7124 21.9207 33.4898 21.8941C33.0308 21.839 32.7264 21.5526 32.8114 21.2557Z" fill="#3BB77E"/>
</g>
<defs>
<clipPath id="clip0_806_1130">
<rect width="48" height="30" fill="white"/>
</clipPath>
</defs>
</svg>
