<svg width="48" height="30" viewBox="0 0 48 30" fill="none" xmlns="http://www.w3.org/2000/svg">
<g clip-path="url(#clip0_806_1187)">
<path d="M15.2133 20.472C11.0188 20.5346 2.62967 20.6222 2.62967 20.472H2.44185L2.62967 22.3502C2.75486 22.4128 3.0428 22.5755 3.19305 22.7258C3.38087 22.9136 3.56869 23.1014 3.56869 23.2892V23.8527C3.56869 24.0405 3.19305 24.2283 3.19305 24.4161C3.19305 24.6039 2.62967 24.7918 2.44185 24.9796C2.2916 25.1298 2.37924 25.9187 2.44185 26.2943L15.4012 25.9187L15.2133 20.472Z" fill="#FDC040"/>
<path d="M9.5788 12.9593L9.01535 16.1522L10.7057 15.401L12.2082 14.6497C12.4586 14.7749 12.9971 15.0629 13.1473 15.2131C13.3351 15.401 14.6498 17.0913 14.8377 17.2791C14.9879 17.4294 15.4011 19.7207 15.5889 20.8476V24.0405L15.9645 25.9187H17.2793C17.2167 26.2943 17.0914 27.0831 17.0914 27.2334C17.0914 27.4212 16.9036 27.7968 17.0914 27.9846C17.2793 28.1724 17.6549 27.9846 18.0305 28.1724C18.4062 28.3603 19.5331 28.1724 20.2843 28.1724C21.0356 28.1724 22.7259 28.1724 23.1016 27.9846C23.4772 27.7968 24.4163 27.609 24.6041 27.4212C24.7919 27.2334 25.3554 25.9187 25.3554 25.7308C25.3554 25.5806 25.1049 23.7901 24.9797 22.9136C24.6667 20.9102 24.0406 16.8659 24.0406 16.7157C24.0406 16.5279 23.1016 12.3959 23.1016 12.2081C23.1016 12.0578 22.8511 12.1455 22.7259 12.2081C22.2877 12.3959 21.3737 12.7715 21.2234 12.7715H19.1574C19.0072 12.7715 17.9679 12.3959 17.4671 12.2081L15.4012 12.0203C14.5247 12.0829 12.7341 12.2081 12.5839 12.2081C12.4336 12.2081 10.5179 12.7089 9.5788 12.9593Z" fill="#FDC040"/>
<path d="M3.94175 23.9954C3.50638 23.9954 3.1534 24.2193 3.1534 24.4954V25.4953H0.788349C0.352986 25.4953 0 25.7191 0 25.9952C0.00346442 27.9271 2.47206 29.4926 5.51844 29.4948H22.8621C24.3041 29.4951 25.6883 29.136 26.7165 28.4949H35.3591C36.9866 28.4964 38.5325 28.0423 39.5834 27.2541C40.6346 26.4659 41.0839 25.4238 40.8113 24.406L39.8905 20.9958H41.5373C43.2241 21.0021 44.8331 20.5466 45.9521 19.7459C47.0554 18.9616 47.5215 17.8968 47.2136 16.8639L45.103 9.86475C44.539 8.17012 42.1586 6.96738 39.4279 6.9974H36.2521L36.3183 5.0528L37.0944 2.63292C37.1413 2.48645 37.0824 2.33388 36.9335 2.21768C36.7849 2.10148 36.5616 2.03386 36.3257 2.03313L23.6505 1.99798C22.3694 1.96161 21.1238 1.72091 20.0278 1.29811C18.5077 0.63998 16.6477 0.376827 14.8304 0.562352L12.46 0.862122C12.1998 0.895078 11.9834 1.00859 11.8834 1.16433C11.7837 1.32008 11.8141 1.49706 11.9638 1.63572L15.7135 5.09235L15.767 7.45804L13.39 16.1204L3.52063 20.073C3.49253 20.087 3.46635 20.1021 3.4421 20.1185C3.414 20.1316 3.38782 20.146 3.36319 20.1614C3.31738 20.1941 3.2785 20.2305 3.24809 20.2696C3.23693 20.2835 3.22115 20.2949 3.21191 20.3101C3.17534 20.366 3.15532 20.4258 3.1534 20.4866V20.4959V22.4956C3.1534 22.772 3.50638 22.9956 3.94175 22.9956C4.37711 22.9956 4.7301 23.2194 4.7301 23.4955C4.7301 23.7718 4.37711 23.9954 3.94175 23.9954ZM22.8621 28.4949H5.51844C3.64612 28.4937 2.03246 27.6584 1.65561 26.4952H26.725C26.3481 27.6584 24.7345 28.4937 22.8621 28.4949ZM39.4279 7.99729C41.4003 7.96922 43.1271 8.83167 43.5467 10.0542L45.6573 17.0534C45.8736 17.783 45.5437 18.5349 44.7642 19.0885C43.9447 19.6715 42.7687 20.0023 41.5373 19.9959H39.6207L39.3505 18.996H41.5373C42.2514 19.0012 42.9331 18.8076 43.4035 18.4668C43.8781 18.128 44.0779 17.6685 43.9435 17.2233L41.8329 10.2241C41.5981 9.50273 40.5892 8.98814 39.4279 8.99717H36.6521L36.3815 7.99729H39.4279ZM39.081 17.9961L36.9215 9.99706H39.4279C39.8328 9.98803 40.1916 10.1616 40.2847 10.4116L42.3942 17.4108C42.4384 17.5531 42.373 17.7 42.2186 17.8067C42.047 17.931 41.7975 18.0005 41.5373 17.9961H39.081ZM17.2994 5.49758H34.7259L34.6581 7.48685C34.6573 7.51883 34.6616 7.55056 34.67 7.58205L35.791 11.729L33.374 12.043C31.1563 12.3296 28.8614 12.2644 26.6926 11.8535C23.6809 11.2772 20.4613 11.3084 17.4784 11.9424L16.0595 12.2424L17.3375 7.58254C17.3441 7.55203 17.3464 7.52127 17.3437 7.49051L17.2994 5.49758ZM13.9412 1.69821L15.1199 1.54808C16.5492 1.40698 18.0096 1.62204 19.1948 2.14811C20.5413 2.66807 22.0753 2.96051 23.6505 2.99786L35.3614 3.03057L34.8875 4.49769H16.9803L13.9412 1.69821ZM15.7474 13.3634L17.975 12.8922C20.6499 12.3235 23.5373 12.2959 26.238 12.8134C28.6558 13.2713 31.2149 13.3438 33.6877 13.0243L36.0527 12.717L39.2596 24.575C39.4556 25.3027 39.1341 26.0479 38.382 26.6111C37.6294 27.1745 36.5231 27.498 35.3591 27.495H27.8405C28.195 27.0271 28.3794 26.5147 28.3806 25.9952C28.3806 25.7191 28.0276 25.4953 27.5922 25.4953H25.2272V20.4959C25.2183 17.8345 22.9622 15.38 19.3146 14.0637C19.0609 13.9707 18.7472 13.9746 18.4993 14.0737L15.1884 15.4L15.7474 13.3634ZM18.9323 15.0856C21.628 16.1621 23.3652 17.982 23.6189 19.9959H6.6694L18.9323 15.0856ZM4.7301 24.9099C5.67588 24.6982 6.30795 24.1314 6.30795 23.4955C6.30795 22.8596 5.67588 22.293 4.7301 22.0814V20.9958H23.6505V25.4953H4.7301V24.9099Z" fill="#3BB77E"/>
<path d="M17.3438 23.4946H18.9204V24.4945H17.3438V23.4946Z" fill="#3BB77E"/>
<path d="M10.2485 21.9948H11.8252V22.9947H10.2485V21.9948Z" fill="#3BB77E"/>
</g>
<defs>
<clipPath id="clip0_806_1187">
<rect width="48" height="30" fill="white"/>
</clipPath>
</defs>
</svg>
