<svg width="48" height="30" viewBox="0 0 48 30" fill="none" xmlns="http://www.w3.org/2000/svg">
<ellipse cx="16.8107" cy="13.125" rx="11.0139" ry="6.75" fill="#FDC040"/>
<path d="M16.9413 20.4343C23.5646 20.4343 28.9529 17.2098 28.9529 13.2464C28.9529 9.28299 23.5645 6.05853 16.9413 6.05853C10.3181 6.05853 4.92969 9.28299 4.92969 13.2464C4.92969 17.2098 10.3181 20.4343 16.9413 20.4343ZM16.9413 6.9383C22.8147 6.9383 27.593 9.76809 27.593 13.2464C27.593 16.7247 22.8146 19.5545 16.9413 19.5545C11.0679 19.5545 6.28963 16.7247 6.28963 13.2464C6.28963 9.76809 11.0679 6.9383 16.9413 6.9383Z" fill="#3BB77E"/>
<path d="M20.6196 12.1311C20.6196 12.8456 21.5183 13.427 22.6229 13.427C23.7275 13.427 24.6261 12.8456 24.6261 12.1311C24.6261 11.4165 23.7275 10.8352 22.6229 10.8352C21.5183 10.8352 20.6196 11.4165 20.6196 12.1311ZM22.6228 11.7149C22.9775 11.7149 23.2661 11.9016 23.2661 12.1311C23.2661 12.3605 22.9775 12.5472 22.6228 12.5472C22.2681 12.5472 21.9795 12.3605 21.9795 12.1311C21.9795 11.9016 22.2682 11.7149 22.6228 11.7149Z" fill="#3BB77E"/>
<path d="M19.3797 11.2808C20.4842 11.2808 21.3829 10.6995 21.3829 9.98492C21.3829 9.27038 20.4842 8.68903 19.3797 8.68903C18.2751 8.68903 17.3765 9.27038 17.3765 9.98492C17.3765 10.6995 18.2751 11.2808 19.3797 11.2808ZM19.3797 9.56873C19.7343 9.56873 20.0229 9.75542 20.0229 9.98486C20.0229 10.2143 19.7343 10.401 19.3797 10.401C19.025 10.401 18.7364 10.2143 18.7364 9.98486C18.7364 9.75542 19.025 9.56873 19.3797 9.56873Z" fill="#3BB77E"/>
<path d="M11.26 13.427C12.3647 13.427 13.2633 12.8456 13.2633 12.1311C13.2633 11.4165 12.3647 10.8352 11.26 10.8352C10.1555 10.8352 9.25684 11.4165 9.25684 12.1311C9.25684 12.8456 10.1555 13.427 11.26 13.427ZM11.26 11.7149C11.6148 11.7149 11.9034 11.9016 11.9034 12.1311C11.9034 12.3605 11.6148 12.5472 11.26 12.5472C10.9054 12.5472 10.6168 12.3605 10.6168 12.1311C10.6168 11.9016 10.9054 11.7149 11.26 11.7149Z" fill="#3BB77E"/>
<path d="M14.5032 11.2808C15.6077 11.2808 16.5064 10.6995 16.5064 9.98492C16.5064 9.27038 15.6077 8.68903 14.5032 8.68903C13.3987 8.68903 12.5 9.27038 12.5 9.98492C12.5 10.6995 13.3987 11.2808 14.5032 11.2808ZM14.5032 9.56873C14.8579 9.56873 15.1465 9.75542 15.1465 9.98486C15.1465 10.2143 14.8579 10.401 14.5032 10.401C14.1485 10.401 13.8599 10.2143 13.8599 9.98486C13.8599 9.75542 14.1485 9.56873 14.5032 9.56873Z" fill="#3BB77E"/>
<path d="M13.507 13.0384C13.4125 13.3259 13.16 13.5889 12.7768 13.7989C11.9161 14.2706 11.4662 14.9596 11.5425 15.6893C11.6615 16.8259 13.0774 17.7333 14.836 17.7998C15.4159 17.8216 15.9981 17.7507 16.5199 17.5943C16.7836 17.5153 17.0985 17.5153 17.3621 17.5943C17.8221 17.7322 18.329 17.8037 18.8398 17.8037C18.9085 17.8037 18.9774 17.8024 19.0462 17.7998C20.8048 17.7332 22.2206 16.8259 22.3395 15.6893C22.4158 14.9596 21.966 14.2706 21.1053 13.7989C20.7221 13.5889 20.4696 13.3259 20.3752 13.0384C20.2112 12.5392 19.8024 12.1005 19.1929 11.7695C17.909 11.0723 15.973 11.0723 14.6892 11.7695C14.0797 12.1005 13.671 12.5393 13.507 13.0384ZM15.5636 12.4433C16.3489 12.0168 17.5332 12.0168 18.3184 12.4433C18.6934 12.6469 18.9445 12.9159 19.0448 13.2212C19.2025 13.7011 19.6109 14.133 20.2261 14.4702C20.7537 14.7593 21.0294 15.182 20.9825 15.6299C20.9097 16.3255 20.0431 16.8808 18.9666 16.9215C18.6052 16.9352 18.2573 16.893 17.9336 16.796C17.6182 16.7015 17.2796 16.6543 16.941 16.6543C16.6023 16.6543 16.2636 16.7015 15.9482 16.796C15.6246 16.893 15.2769 16.9353 14.9154 16.9215C13.8388 16.8808 12.9722 16.3255 12.8994 15.6299C12.8525 15.182 13.1282 14.7593 13.6558 14.4702C14.271 14.1331 14.6796 13.7012 14.8372 13.2212C14.9376 12.916 15.1887 12.6469 15.5636 12.4433Z" fill="#3BB77E"/>
<path d="M43.6957 23.5504C45.1398 22.3584 45.9346 20.8755 45.9346 19.356C45.9346 15.6016 41.213 12.5472 35.4095 12.5472C34.3246 12.5472 33.2645 12.6527 32.2462 12.8605C32.1729 10.6857 31.9986 8.51378 31.7222 6.35349C31.6233 5.5861 31.8822 4.83748 32.4708 4.18845C33.2707 3.30581 33.987 2.10012 32.8563 1.36856C32.3716 1.05525 31.129 0.601056 25.9565 0.275542C22.7278 0.0723754 19.1825 0 16.9411 0C14.6997 0 11.1544 0.0723754 7.92557 0.275601C2.75306 0.601114 1.51062 1.05531 1.02575 1.36874C-0.10491 2.10012 0.611419 3.30581 1.41143 4.18862C1.99992 4.83754 2.25877 5.58616 2.15985 6.35337C2.1215 6.65003 2.08351 6.96586 2.04054 7.34745C2.01316 7.58974 2.29467 7.80053 2.6692 7.81818C3.04382 7.83595 3.36957 7.65378 3.39686 7.41149C3.43956 7.03314 3.4771 6.72018 3.51508 6.42663C3.63739 5.47754 3.31553 4.54968 2.58452 3.74352C2.54735 3.70246 2.51253 3.66229 2.4779 3.62217C4.53649 3.06141 11.2592 2.69572 16.9412 2.69572C19.1039 2.69572 22.5357 2.76469 25.6815 2.95818C29.1555 3.17191 30.7095 3.43754 31.4023 3.6244C31.3683 3.66375 31.3342 3.70317 31.2977 3.74346C30.5666 4.54968 30.2446 5.47748 30.3668 6.42639C31.0718 11.936 31.1089 17.5219 30.4812 23.0371C29.0222 23.0368 27.563 23.0443 26.1115 23.0596C25.9252 21.5632 23.9832 20.3825 21.6229 20.3825C19.1398 20.3825 17.1196 21.6893 17.1196 23.2957C17.1196 23.9975 17.508 24.6667 18.2039 25.1913C18.0298 25.3225 17.875 25.4627 17.7407 25.6103C13.6734 25.6296 9.55306 25.5011 5.48782 25.227C4.42498 25.1558 3.59043 24.6021 3.50339 23.9101C2.88344 19.0159 2.78833 14.0511 3.2207 9.15355C3.2421 8.91103 2.95551 8.70317 2.58062 8.68927C2.20582 8.67554 1.88442 8.86082 1.86293 9.10334C1.42693 14.0414 1.52285 19.0473 2.14789 23.9816C2.28787 25.0954 3.63358 25.9871 5.3472 26.102C9.19313 26.3613 13.0875 26.4923 16.9426 26.4923C17.0336 26.4923 17.1243 26.4914 17.2153 26.4913C17.1528 26.6853 17.1195 26.8846 17.1195 27.0867C17.1195 28.6931 19.1397 29.9999 21.6228 29.9999C23.9831 29.9999 25.9251 28.8192 26.1114 27.3228C28.9714 27.3531 31.8608 27.3531 34.72 27.3228C34.9063 28.8192 36.8484 29.9999 39.2088 29.9999C39.9333 29.9999 40.6545 29.8857 41.2941 29.6696C41.627 29.5572 41.7559 29.2914 41.5821 29.0761C41.4082 28.8607 40.9974 28.7772 40.6646 28.8898C40.2121 29.0426 39.7223 29.1202 39.2088 29.1202C37.4756 29.1202 36.0654 28.208 36.0654 27.0867C36.0654 27.0358 36.0695 26.9804 36.0785 26.9121C36.0948 26.788 36.0288 26.6652 35.8972 26.5743C35.7656 26.4834 35.5806 26.4328 35.3879 26.4352C32.0891 26.476 28.7433 26.476 25.4437 26.4352C25.2521 26.4329 25.0661 26.4834 24.9344 26.5743C24.8028 26.6652 24.7369 26.788 24.7531 26.9121C24.762 26.9799 24.7661 27.0354 24.7661 27.0867C24.7661 28.208 23.3561 29.1202 21.6229 29.1202C19.8896 29.1202 18.4796 28.208 18.4796 27.0867C18.4796 26.4846 18.8897 25.9164 19.605 25.528C19.7588 25.4445 19.8478 25.3211 19.8478 25.1911C19.8478 25.0612 19.7589 24.9378 19.605 24.8543C18.8897 24.4659 18.4796 23.8978 18.4796 23.2955C18.4796 22.1743 19.8896 21.2621 21.6229 21.2621C23.3561 21.2621 24.7661 22.1743 24.7661 23.2955C24.7661 23.3469 24.762 23.4024 24.7531 23.4702C24.7369 23.5943 24.8028 23.7171 24.9344 23.808C25.0661 23.8989 25.2519 23.9497 25.4437 23.947C28.7432 23.9063 32.089 23.9063 35.3879 23.947C35.5808 23.9497 35.7656 23.8989 35.8972 23.808C36.0288 23.7171 36.0948 23.5943 36.0785 23.4702C36.0695 23.4019 36.0654 23.3464 36.0654 23.2955C36.0654 22.1743 37.4756 21.2621 39.2088 21.2621C40.9424 21.2621 42.353 22.1743 42.353 23.2955C42.353 23.8979 41.9426 24.4659 41.2269 24.8541C41.0729 24.9377 40.9838 25.0611 40.9838 25.1911C40.9838 25.3212 41.0728 25.4446 41.2269 25.5282C41.9426 25.9164 42.353 26.4845 42.353 27.0867C42.353 27.3435 42.2801 27.5937 42.1363 27.8301C41.9987 28.0562 42.1707 28.3116 42.5201 28.4005C42.8696 28.4894 43.2644 28.3782 43.4018 28.1522C43.6082 27.8127 43.7129 27.4543 43.7129 27.0868C43.7129 26.3849 43.3243 25.7157 42.6281 25.1912C43.2396 24.7307 43.6136 24.1584 43.6957 23.5504ZM16.9413 1.81589C16.8183 1.81589 5.59535 1.82856 1.92839 2.82628C1.74108 2.43554 1.7545 2.14152 1.98732 1.99091C2.17128 1.87196 3.1527 1.45988 8.0573 1.1512C11.2377 0.951085 14.7317 0.879765 16.9411 0.879765C19.1505 0.879765 22.6445 0.951085 25.8249 1.1512C30.7295 1.45988 31.7109 1.87196 31.8947 1.99079C32.1277 2.14152 32.1412 2.43548 31.9539 2.82622C28.2869 1.82862 17.0644 1.81589 16.9413 1.81589ZM39.2089 20.3824C36.8486 20.3824 34.9065 21.5631 34.7202 23.0596C33.7644 23.0494 32.8048 23.044 31.8444 23.0406C32.1913 19.9683 32.3346 16.8744 32.2713 13.7838C33.2736 13.5469 34.3271 13.427 35.4095 13.427C40.4632 13.427 44.5746 16.0867 44.5746 19.356C44.5746 20.3716 44.1673 21.3686 43.4096 22.2465C42.7571 21.1572 41.1208 20.3824 39.2089 20.3824Z" fill="#3BB77E"/>
</svg>
