<svg width="48" height="30" viewBox="0 0 48 30" fill="none" xmlns="http://www.w3.org/2000/svg">
<g clip-path="url(#clip0_806_1154)">
<path d="M10.9367 15.2944C8.878 15.2944 5.57554 17.3317 4.18164 18.3503L4.66414 18.9936L5.46832 19.4761L6.43332 20.602L7.39833 21.567L8.2025 23.1753L9.48917 24.1403C10.4006 24.2475 12.2555 24.462 12.3842 24.462C12.5129 24.462 14.475 24.2475 15.44 24.1403L17.2092 23.6578C17.3701 23.3361 17.7561 22.6606 18.0134 22.532C18.2707 22.4033 18.3351 21.835 18.3351 21.567L19.4609 20.602C19.6753 20.3339 19.9756 19.7978 19.4609 19.7978C18.9462 19.7978 16.9948 16.7955 16.0834 15.2944H14.6359H10.9367Z" fill="#FDC040"/>
<path d="M20.4259 9.82606C20.5331 9.39716 20.7476 8.47505 20.7476 8.21771L21.3909 9.02188L22.5168 9.34355H24.1251L24.9293 10.4694V11.7561V12.2386H24.1251H22.9993H21.3909H19.9434L18.8176 11.7561L19.4609 11.2736L20.4259 10.7911V9.82606Z" fill="#FDC040"/>
<path d="M33.7269 7.59491H31.3867C30.4514 7.5945 29.5322 7.74606 28.7222 8.03428C28.6073 8.05354 28.5027 8.09122 28.4187 8.14319L28.3794 8.16742C27.8168 8.40533 27.3335 8.70763 26.9561 9.05797C26.7598 9.23935 26.8186 9.48285 27.0922 9.62095C27.3658 9.75927 27.765 9.74726 28.0154 9.593L29.0408 8.96127L32.3449 9.97895V10.3382L30.1475 11.2418C29.4784 11.5153 28.5888 11.4613 28.0195 11.112C27.8467 11.0018 27.5906 10.9575 27.35 10.9964C27.1093 11.0351 26.9215 11.1509 26.8586 11.2991C26.7954 11.4474 26.8674 11.6052 27.0462 11.7116C28.0544 12.3361 29.4263 12.6862 30.856 12.6835H34.4152V13.5316H33.0386C31.1319 13.5353 29.4078 14.2315 28.6415 15.3071C28.0366 15.1599 27.4212 15.0328 26.7978 14.9203C27.6205 14.494 27.7744 13.7501 27.152 13.2103C26.5296 12.6703 25.3388 12.5148 24.4143 12.8529C23.49 13.191 23.1415 13.9097 23.613 14.5048C21.6429 14.3342 19.6432 14.3381 17.6751 14.5168C17.8182 14.3429 17.8939 14.1507 17.8959 13.9557C17.9019 13.3614 17.2392 12.8438 16.2995 12.7088C15.3598 12.574 14.3942 12.8579 13.9731 13.3927C13.552 13.9275 13.7882 14.5704 14.5417 14.9417C13.9133 15.0582 13.2959 15.1959 12.6832 15.3483C11.9337 14.2509 10.1921 13.5358 8.25964 13.5316H6.88303V12.6835H10.4422C11.8722 12.6862 13.2445 12.3359 14.2527 11.7112C14.5135 11.5447 14.5098 11.2803 14.2443 11.1167C13.9788 10.9532 13.5496 10.9509 13.2794 11.1115C12.7101 11.4609 11.8201 11.5153 11.1506 11.2418L8.94794 10.3363V9.9773L12.2517 8.95941L13.2774 9.59134C13.5278 9.74539 13.9267 9.75761 14.2006 9.6193C14.4742 9.48119 14.533 9.23749 14.3367 9.0561C13.9593 8.70597 13.476 8.40367 12.9134 8.16576L12.8741 8.14154C12.7901 8.08957 12.6852 8.05188 12.5706 8.03263C11.7617 7.74565 10.8448 7.5947 9.9115 7.59491H7.57134C3.39178 7.59802 0.00504129 9.68452 0 12.2595V13.9557C0.00302477 15.5943 2.15834 16.9222 4.81812 16.924H8.03648L5.81126 17.8438C5.62372 17.9214 5.51012 18.0506 5.50676 18.1898C5.5034 18.3289 5.61095 18.46 5.79479 18.5409L5.97459 18.6202H3.72652L1.17496 17.0483L0.201651 17.6479L2.95486 19.3441C3.08392 19.4236 3.25902 19.4683 3.44152 19.4683H7.90104L8.71739 19.8276C9.05347 19.9775 9.37343 20.1406 9.6749 20.3164H7.57134C7.4974 20.3164 7.42413 20.3237 7.35389 20.338L3.62737 21.1014L1.17496 19.5926L0.201651 20.1922L2.95486 21.8884C3.08392 21.9679 3.25902 22.0126 3.44152 22.0126C3.51546 22.0126 3.58872 22.0052 3.65896 21.9911L7.68292 21.1645H10.8999C11.1342 21.3604 11.3489 21.565 11.5429 21.7768L11.7549 22.0126H9.63625C9.56231 22.0126 9.48904 22.0199 9.4188 22.0342L5.28898 22.8823C5.10312 22.921 4.95289 23.0065 4.87593 23.1177L2.81102 26.086L4.07605 26.4202L6.01929 23.6271L9.74783 22.8607H12.5195L12.6731 23.0303C12.9006 23.2806 13.186 23.5092 13.5204 23.7088H10.3245C8.42466 23.7103 6.88539 24.6586 6.88303 25.8291V27.1012C6.88539 28.5059 8.73285 29.6441 11.0129 29.6455C12.5333 29.6455 13.7661 28.8861 13.7661 27.9493C13.7661 27.0126 12.5333 26.2531 11.0129 26.2531H13.0778C14.7222 26.2517 16.1355 25.5336 16.4504 24.5391C16.5936 24.5468 16.7367 24.5569 16.8819 24.5569H24.67C24.7302 24.5569 24.788 24.5497 24.8471 24.5485C25.1701 25.5386 26.581 26.2515 28.2204 26.2531H30.2853C28.7649 26.2531 27.5321 27.0126 27.5321 27.9493C27.5321 28.8861 28.7649 29.6455 30.2853 29.6455C32.5653 29.6441 34.4128 28.5059 34.4152 27.1012V25.8291C34.4128 24.6586 32.8735 23.7103 30.9736 23.7088H28.0292C28.4345 23.4641 28.7659 23.1769 29.0079 22.8607H31.5504L35.2809 23.6271L37.2242 26.4202L38.4892 26.086L36.4243 23.1177C36.3473 23.0065 36.1971 22.921 36.0112 22.8823L31.8814 22.0342C31.8108 22.0197 31.7366 22.0124 31.6619 22.0126H29.6306C29.875 21.7157 30.1596 21.4318 30.4816 21.1645H33.6153L37.6392 21.9911C37.7095 22.0052 37.7827 22.0126 37.8567 22.0126C38.0392 22.0126 38.2143 21.9679 38.3433 21.8884L41.0965 20.1922L40.1232 19.5926L37.6708 21.1035L33.9443 20.3402C33.8744 20.3251 33.8008 20.3171 33.7269 20.3164H31.7389C31.9594 20.1934 32.1859 20.0744 32.4272 19.9636L33.497 19.4683H37.8567C38.0392 19.4683 38.2143 19.4236 38.3433 19.3441L41.0965 17.6479L40.1232 17.0483L37.5717 18.6202H35.3327L35.5165 18.5353C35.6916 18.4546 35.7941 18.3272 35.7921 18.1922C35.7901 18.0575 35.6842 17.9311 35.5068 17.8523L33.422 16.924H36.4801C39.1399 16.9222 41.2952 15.5943 41.2982 13.9557V12.2595C41.2932 9.68452 37.9064 7.59802 33.7269 7.59491ZM8.94794 8.44301H9.9115C10.1753 8.44301 10.4385 8.45916 10.6969 8.49126L8.94794 9.02898V8.44301ZM8.25964 25.8291C8.26065 25.2901 8.81183 24.8098 9.63625 24.6294V26.2531H8.25964V25.8291ZM12.3895 27.9493C12.3895 28.4177 11.7731 28.7974 11.0129 28.7974C9.4924 28.7974 8.25964 28.038 8.25964 27.1012H11.0129C11.7731 27.1012 12.3895 27.481 12.3895 27.9493ZM25.4672 13.5316C25.8473 13.5316 26.1555 13.7215 26.1555 13.9557C26.1555 14.1899 25.8473 14.3797 25.4672 14.3797C25.0871 14.3797 24.7789 14.1899 24.7789 13.9557C24.7789 13.7215 25.0871 13.5316 25.4672 13.5316ZM15.831 13.5316C16.2111 13.5316 16.5193 13.7215 16.5193 13.9557C16.5193 14.1899 16.2111 14.3797 15.831 14.3797C15.4509 14.3797 15.1427 14.1899 15.1427 13.9557C15.1427 13.7215 15.4509 13.5316 15.831 13.5316ZM5.50643 13.9557V16.0759H4.81812C2.91823 16.0745 1.37896 15.1262 1.37661 13.9557V12.6835H5.50643V13.9557ZM1.41458 11.8354C1.76882 9.90483 4.41784 8.44529 7.57134 8.44301V10.5633C7.57134 10.7051 7.68628 10.8374 7.87751 10.9161L10.1182 11.8354H1.41458ZM6.88303 16.0759V14.3797H8.25964C9.64734 14.382 10.8972 14.8974 11.4293 15.6871C11.0189 15.8084 10.6149 15.938 10.2173 16.0759H6.88303ZM13.0778 25.405H11.0129V24.5569H15.025C14.7323 25.0648 13.9526 25.4044 13.0778 25.405ZM31.6619 25.8291V24.6294C32.4864 24.8098 33.0375 25.2901 33.0386 25.8291V26.2531H31.6619V25.8291ZM33.0386 27.1012C33.0386 28.038 31.8058 28.7974 30.2853 28.7974C29.5251 28.7974 28.9087 28.4177 28.9087 27.9493C28.9087 27.481 29.5251 27.1012 30.2853 27.1012H33.0386ZM30.2853 24.5569V25.405H28.2204C27.3456 25.4044 26.5659 25.0648 26.2732 24.5569H30.2853ZM33.9423 18.2026L31.6021 19.2851C29.919 20.0622 28.6325 21.1198 27.8948 22.3332C27.3873 23.1595 26.1041 23.7068 24.67 23.7088H16.8839C15.6344 23.7086 14.4829 23.2912 13.8763 22.6183L12.746 21.3648C11.9499 20.4846 10.8472 19.724 9.51727 19.1377L7.40329 18.2072L9.51794 17.3332C16.522 14.4377 25.7122 14.5367 32.5479 17.5812L33.9423 18.2026ZM34.4152 16.0759H31.2489C30.8056 15.9229 30.3559 15.7798 29.8992 15.6463C30.447 14.8789 31.6777 14.3824 33.0386 14.3797H34.4152V16.0759ZM30.6046 8.49126C30.8634 8.45916 31.1262 8.44301 31.3901 8.44301H32.3503V9.02898L30.6046 8.49126ZM39.9216 13.9557C39.9192 15.1262 38.38 16.0745 36.4801 16.0759H35.7918V12.6835H39.9216V13.9557ZM35.1035 11.8354H31.18L33.4183 10.9161C33.6106 10.8376 33.7265 10.7053 33.7269 10.5633V8.44301C36.8803 8.44529 39.5294 9.90483 39.8836 11.8354H35.1035Z" fill="#3BB77E"/>
<path d="M17.006 17.8964L16.0327 18.496L17.611 19.4683L16.0327 20.4407L17.006 21.0403L19.0709 19.7681C19.3395 19.6025 19.3395 19.3342 19.0709 19.1685L17.006 17.8964Z" fill="#3BB77E"/>
<path d="M24.2922 17.8964L22.2273 19.1685C21.9587 19.3342 21.9587 19.6025 22.2273 19.7681L24.2922 21.0403L25.2655 20.4407L23.6872 19.4683L25.2655 18.496L24.2922 17.8964Z" fill="#3BB77E"/>
<path d="M10.0699 4.11208L8.55293 2.30979L9.46892 2.40821L10.2125 2.45247L10.7197 2.04368L11.4535 1.51668L12.0789 1.33442L12.3153 1.78747L12.3252 2.35873L12.5616 2.81177L13.8864 3.4174L14.8665 3.91471L15.5559 4.13133L16.073 4.29381L16.1912 4.52033L16.0288 5.03743L15.8663 5.55453L15.758 5.89927L15.2409 5.7368L14.5957 4.77654L10.0699 4.11208Z" fill="#FDC040"/>
<path d="M28.8741 3.15244C28.1366 3.09516 27.3924 3.222 26.8075 3.50476L25.8276 3.97592C25.4877 3.94948 25.1515 3.90714 24.8221 3.84935L25.4206 3.17952C25.4751 3.11855 25.477 3.04482 25.4254 2.98279C25.3737 2.92087 25.2755 2.87878 25.1633 2.87046C24.2606 2.80187 23.1433 3.1301 22.7203 3.26929C21.9522 3.00621 21.1403 2.79523 20.2986 2.63989L19.9736 1.36313C19.9462 1.25462 19.7873 1.17764 19.6096 1.1867C18.0887 1.25658 16.7318 1.92235 16.2751 2.17003C12.1032 1.95491 8.77911 2.59607 8.55788 3.7011C8.32261 4.87625 11.6947 6.06693 16.2347 6.41192C16.7172 6.44858 17.1947 6.47137 17.6665 6.4861C18.5288 6.99721 19.6429 7.31677 20.8328 7.3943C20.95 7.40362 21.0664 7.37477 21.1407 7.31818C21.2149 7.26159 21.236 7.18521 21.1965 7.11668L20.7899 6.41055C21.0368 6.38872 21.2752 6.36295 21.5051 6.33323C22.138 6.79549 22.9341 7.16238 23.8327 7.40581C23.9382 7.43082 24.0572 7.42184 24.1499 7.3818C24.2425 7.34175 24.2968 7.27603 24.2945 7.20631L24.2587 6.01694C24.6074 6.01171 24.9565 6.02144 25.3033 6.04604L25.4115 6.05426L26.1763 6.658C26.6321 7.01984 27.3039 7.25428 28.0419 7.30912C28.2282 7.32328 28.3979 7.2417 28.4209 7.12692L29.1698 3.38591C29.1928 3.27113 29.0604 3.1666 28.8741 3.15244ZM24.5346 3.30104L24.1656 3.71395C23.9259 3.65648 23.6869 3.59072 23.4486 3.51667C23.7955 3.41857 24.16 3.34623 24.5346 3.30104ZM19.3517 1.62876L19.5768 2.51416C18.8064 2.39143 18.0243 2.29822 17.2353 2.23517C17.8608 1.94065 18.583 1.73375 19.3517 1.62876ZM18.781 6.50269C19.2344 6.49975 19.6715 6.48382 20.0951 6.45965L20.3586 6.91753C19.7975 6.83718 19.2635 6.69678 18.781 6.50269ZM22.2548 6.21661C22.3026 6.20777 22.3547 6.20071 22.4013 6.19158C22.7842 6.11867 23.1775 6.06871 23.5759 6.04243L23.6018 6.87592C23.1042 6.69665 22.6507 6.47468 22.2548 6.21661ZM25.297 5.62358C24.2553 5.5438 23.1979 5.6013 22.195 5.79233C20.705 6.08534 18.6098 6.16072 16.4332 6.00336C16.7306 5.92778 17.0034 5.81983 17.2385 5.6847L17.7296 5.40109C17.8265 5.34541 17.862 5.26012 17.8205 5.18258C17.7791 5.10505 17.6684 5.04945 17.5368 5.04007L14.838 4.835L14.7548 5.25066L16.7319 5.4009C16.0214 5.79332 14.9557 5.81413 14.2063 5.45007L13.8855 5.70272C13.5708 5.65079 13.2623 5.59407 12.9633 5.53312L13.5934 5.11028C14.2341 4.68052 14.4 4.05756 14.0158 3.52426L13.7542 3.1611L13.1333 3.33079L13.3945 3.69412C13.6689 4.07505 13.5505 4.52009 13.0929 4.82705L12.2681 5.38006C10.4328 4.94264 9.11328 4.34827 9.23258 3.75237C9.24296 3.7105 9.26074 3.66931 9.28588 3.6298L10.3012 4.23094L10.7726 3.92915L9.69064 3.28781C10.731 2.72203 13.4485 2.36703 16.9906 2.6362C19.1676 2.80162 21.1915 3.18496 22.5438 3.68755C23.4614 4.03648 24.4822 4.27013 25.547 4.37495L25.297 5.62358ZM28.3287 4.16598L27.3167 4.08907L27.2334 4.50474L28.2455 4.58164L28.1623 4.99731L27.1502 4.92041L27.067 5.33608L28.079 5.41298L27.9958 5.82865L26.9838 5.75175L26.9006 6.16742L27.9126 6.24432L27.7911 6.85138C27.363 6.77517 26.9854 6.61728 26.7121 6.40036L25.9474 5.79662L26.2458 4.30606L27.2257 3.8349C27.5764 3.66549 28.0049 3.56886 28.4502 3.55891L28.3287 4.16598Z" fill="#3BB77E"/>
<path d="M12.0523 3.35115C12.0064 3.5807 11.667 3.74387 11.2944 3.71555C10.9218 3.68724 10.657 3.47817 10.7029 3.24862C10.7489 3.01906 11.0882 2.8559 11.4608 2.88422C11.8334 2.91253 12.0983 3.1216 12.0523 3.35115Z" fill="#3BB77E"/>
<path d="M15.0469 3.78973L24.1553 4.48186L24.0721 4.89753L14.9637 4.2054L15.0469 3.78973Z" fill="#3BB77E"/>
</g>
<defs>
<clipPath id="clip0_806_1154">
<rect width="48" height="30" fill="white"/>
</clipPath>
</defs>
</svg>
