<svg width="48" height="30" viewBox="0 0 48 30" fill="none" xmlns="http://www.w3.org/2000/svg">
<g clip-path="url(#clip0_806_1178)">
<path d="M11.397 12.3796C11.2398 12.5368 11.2005 13.3621 11.2005 13.7552C11.2005 13.8207 11.3577 13.9124 11.9865 13.7552C12.7725 13.5586 12.3795 13.5587 12.7725 13.1656C13.1655 12.7726 12.969 13.1656 13.755 13.3622C14.541 13.5587 14.148 13.7552 14.541 13.9517C14.934 14.1482 14.934 13.9517 15.1305 13.9517C15.327 13.9517 15.72 13.5587 16.113 13.3622C16.506 13.1656 16.506 13.1656 16.7025 12.9691C16.8597 12.8119 16.899 12.6416 16.899 12.5761C16.899 12.4451 16.8597 12.1045 16.7025 11.7901C16.506 11.3971 16.3095 11.2006 16.113 11.0041C15.9165 10.8076 15.5235 10.8076 15.1305 10.6111C14.7375 10.4146 14.3445 10.6111 13.9515 10.6111C13.5585 10.6111 12.7725 10.8076 12.576 10.8076C12.3795 10.8076 11.9865 11.3971 11.79 11.5936C11.5935 11.7901 11.5935 12.1831 11.397 12.3796Z" fill="#FDC040"/>
<path d="M21.0256 8.4496C20.8291 8.6461 19.6501 12.9691 19.6501 13.1656C19.7811 13.2967 20.2396 13.6373 21.0256 13.9517C21.8116 14.1482 21.4186 13.7552 22.0081 13.5587C22.5976 13.3622 22.4011 13.3622 22.9906 13.3622C23.5801 13.3622 23.3836 13.3622 23.9731 13.7552C24.5626 14.1482 24.3661 13.7552 24.7591 13.7552C25.0735 13.7552 25.2831 13.3622 25.3486 13.1656L26.1346 11.5936L27.7066 8.0566L28.8857 3.53705L27.3136 3.34055C26.0036 3.27504 23.3443 3.14404 23.1871 3.14404C23.0299 3.14404 22.7286 4.19205 22.5976 4.71606C22.1391 5.89507 21.1828 8.2924 21.0256 8.4496Z" fill="#FDC040"/>
<path d="M9.03894 26.7243C6.68091 27.3531 5.82941 25.1523 5.6984 23.9733H5.3054C5.17439 23.9078 4.87307 23.7768 4.71587 23.7768C4.51937 23.7768 3.34036 23.5803 3.14388 23.5803C2.9474 23.5803 1.96484 23.7768 1.96484 23.9733C1.96484 24.1698 1.17886 25.1523 0.982354 25.3488C0.785852 25.5453 0.982354 27.1173 0.982354 27.3138C0.982354 27.5103 1.37536 28.4928 1.37536 28.6893C1.37536 28.8858 1.57186 29.2788 1.76836 29.6718C1.96486 30.0648 2.16137 30.2613 2.55437 30.6543C2.94737 31.0473 2.55437 30.8508 3.14388 30.8508C3.73338 30.8508 3.73338 30.8508 4.12639 30.6543C4.51939 30.4578 5.1089 30.4578 5.3054 30.4578C5.5019 30.4578 5.6984 30.8508 6.09141 30.8508C6.48441 30.8508 6.48441 31.0473 6.87742 30.8508C7.27042 30.6543 7.46692 30.6543 7.85993 30.4578C8.25293 30.2613 8.64594 29.0823 8.64594 28.8858C8.64594 28.7286 8.90794 27.3793 9.03894 26.7243Z" fill="#FDC040"/>
<path d="M36.3145 4.65454L37.8004 4.34497L39.3263 7.34521L37.8404 7.65454L36.3145 4.65454Z" fill="#3BB77E"/>
<path d="M34.0244 8.15503L35.5103 7.84546L37.0367 10.8452L35.5508 11.155L34.0244 8.15503Z" fill="#3BB77E"/>
<path d="M7.67855 9.61354C7.51374 10.3775 7.86205 11.1504 8.638 11.7405L9.76608 12.646V21H11.3287V13.4346L12.4575 13.916C12.7204 14.0281 13.0622 14.0281 13.325 13.916L15.2352 13.1001L17.1453 13.915C17.4081 14.0271 17.75 14.0271 18.0128 13.915L19.923 13.1001L21.8331 13.915C22.0959 14.0271 22.4378 14.0271 22.7006 13.915L24.6107 13.1001L26.5209 13.915C26.7837 14.0271 27.1255 14.0271 27.3884 13.915L29.2985 13.1001L30.8611 13.7666V29H13.6726V30H35.5489C37.7055 29.9983 39.4527 28.8801 39.4554 27.5V12.5C39.4535 12.3901 39.3944 12.2837 39.2875 12.1975L43.8025 4.50514C44.4102 3.47169 44.1878 2.31349 43.2074 1.40504C42.2758 0.523696 40.72 -0.00315957 39.0579 1.42584e-05C36.9391 0.0127096 35.0518 0.859877 34.3121 2.13063L33.0871 4.21754L31.6424 3.29298V1.50001C31.6424 1.22389 31.2926 1.00001 30.8611 1.00001H22.2668C21.8354 1.00001 21.4855 1.22389 21.4855 1.50001V2.35792C20.6024 1.84572 19.2702 1.81666 18.3344 2.28956V1.50001C18.3344 0.681655 17.2979 0.0180806 16.0188 0.0180806C14.74 0.0180806 13.7031 0.681655 13.7031 1.50001V2.29005C13.2754 2.06325 12.7371 1.93922 12.1817 1.93995C11.537 1.93898 10.919 2.10548 10.4692 2.40162C9.54252 3.01271 9.5368 3.98341 10.4558 4.59913L11.1833 5.0796C10.9186 5.15724 10.6782 5.26515 10.4741 5.39796L10.4692 5.39991L10.4615 5.40504C10.2796 5.52467 10.1289 5.66237 10.016 5.813L9.12555 4.76051L7.75103 5.23658L9.77142 7.62306C9.68101 7.65602 9.59021 7.688 9.50438 7.7256C9.47233 7.73951 9.4441 7.75563 9.41282 7.76954L6.38948 5.98658L5.33008 6.72194L8.33319 8.49391C7.98832 8.83155 7.76477 9.21388 7.67855 9.61354ZM24.177 12.084L22.2668 12.8999L20.3567 12.085C20.0939 11.9729 19.752 11.9729 19.4892 12.085L17.597 12.8926C17.5924 12.8425 17.5791 12.7991 17.5791 12.751C17.5741 11.6521 18.8136 10.7124 20.507 10.5313C22.2008 10.3499 23.8504 10.9802 24.4044 12.0205C24.3239 12.0339 24.2472 12.0552 24.177 12.084ZM26.1733 12.5659L26.1585 12.5596C26.0646 11.5086 25.1799 10.552 23.7852 9.99366C22.3908 9.43531 20.6596 9.34449 19.1417 9.75001V6.50001H26.1733V12.5659ZM37.8928 27.5C37.8928 28.3284 36.8433 29 35.5489 29H32.4237V13.7676L33.9863 13.1001L35.8965 13.915C36.1593 14.0271 36.5011 14.0271 36.764 13.915L37.8928 13.4346V27.5ZM35.7748 2.48195C36.284 1.6006 37.5895 1.01149 39.0579 1.00001C40.2062 0.998549 41.2801 1.36305 41.9229 1.97194C42.6126 2.61134 42.7683 3.42653 42.3399 4.15358L37.5022 12.3999L36.3302 12.8999L34.4201 12.085C34.1572 11.9729 33.8154 11.9729 33.5526 12.085L31.6424 12.8999L30.0573 12.2236L35.7748 2.48195ZM32.484 5.24562L28.3375 12.3091L27.7359 12.5659V6.20704L30.8611 4.20704L32.484 5.24562ZM23.0481 2.00001H30.0798V3.00001H23.0481V2.00001ZM22.5904 4.00001H28.975L26.6311 5.50001H20.2465L22.5904 4.00001ZM11.5843 3.10304C11.7411 2.99952 11.9566 2.94093 12.1817 2.94093C12.4072 2.94118 12.6227 2.99952 12.7795 3.10304L13.9266 3.85304C14.1494 3.99855 14.4878 4.04274 14.782 3.96534C15.0761 3.88771 15.2676 3.70363 15.2657 3.50001V1.50001C15.2531 1.32252 15.3939 1.15504 15.6319 1.06398C15.8704 0.97267 16.1675 0.97267 16.4056 1.06398C16.644 1.15504 16.7848 1.32252 16.7718 1.50001V3.50001C16.7722 3.70289 16.9641 3.88551 17.2578 3.96217C17.5512 4.03907 17.8881 3.99464 18.1105 3.85011L19.2611 3.10011C19.5907 2.89235 20.1194 2.89235 20.4486 3.10011C20.7882 3.32252 20.7882 3.6775 20.4486 3.89991L18.1471 5.39991L18.1704 5.41505L17.808 5.64698C17.745 5.68849 17.6943 5.73683 17.6573 5.78956C17.6462 5.80494 17.6401 5.82057 17.6313 5.83644C17.6081 5.87916 17.5939 5.9236 17.5894 5.96852C17.5894 5.9795 17.5798 5.98854 17.5798 5.99952V10.4099C17.402 10.5188 17.2369 10.6358 17.0862 10.76L15.6102 8.75001C15.0654 8.05641 14.0808 7.54615 12.9069 7.35011C12.6338 7.30494 12.3537 7.2776 12.0718 7.26905L11.8715 7.11891C11.7155 7.00441 11.5976 6.91505 11.5786 6.9026C11.3767 6.76735 11.2894 6.57789 11.3443 6.39405C11.3733 6.28956 11.4485 6.19288 11.5606 6.115L11.5747 6.10646L11.5942 6.09303C11.8773 5.91554 12.3156 5.88942 12.6452 6.03004C12.9767 6.17189 13.4215 6.13112 13.6779 5.9358C13.9343 5.74025 13.9194 5.45289 13.6436 5.26857L11.5786 3.90455C11.2432 3.67994 11.2459 3.3257 11.5843 3.10304ZM9.22703 9.75001C9.32889 9.26539 9.74815 8.83131 10.3803 8.55641C11.0071 8.28517 11.7857 8.19923 12.5186 8.32057C13.251 8.44215 13.8667 8.75929 14.2086 9.19142L16.2 11.906C16.1507 12.023 16.1118 12.1416 16.0836 12.2615L15.672 12.0855C15.4095 11.9734 15.0673 11.9734 14.8048 12.0855L12.8913 12.8999L11.1585 12.1599L10.9911 12.0256L13.0053 11.0291L12.0489 10.238L10.0179 11.2434L9.84429 11.105C9.3472 10.73 9.12288 10.2373 9.22703 9.75001Z" fill="#3BB77E"/>
<path d="M2.05889 28.7529C2.6525 29.5193 3.87556 30.0029 5.21194 30C5.75938 29.9995 6.29881 29.918 6.78865 29.762L7.42231 29.5591L8.05673 29.762C8.54618 29.918 9.08562 29.9995 9.63268 30C10.9694 30.0029 12.1921 29.5193 12.7861 28.7529L13.0585 28.4031C13.9733 27.2283 14.4509 25.9341 14.454 24.6216C14.4513 23.1743 12.619 22.0017 10.3575 22C9.59529 22.0015 8.84871 22.1399 8.2036 22.3999V22C8.2036 20.8955 6.80429 20 5.07841 20V21C5.94135 21 6.64101 21.4478 6.64101 22V22.3999C5.9959 22.1399 5.24932 22.0015 4.4871 22C2.22561 22.0017 0.393295 23.1743 0.390625 24.6216C0.393295 25.9343 0.870925 27.229 1.78613 28.4041L2.05889 28.7529ZM4.4871 23C5.15929 22.9988 5.80439 23.1699 6.27859 23.4751L6.8699 23.8535C7.1751 24.0486 7.66951 24.0486 7.97471 23.8535L8.56602 23.4751C9.29086 23.0112 10.3804 22.8726 11.3273 23.1235C12.2741 23.3745 12.8914 23.9658 12.8914 24.6216C12.8895 25.7793 12.4683 26.9209 11.6607 27.957L11.3883 28.3071C11.0568 28.7332 10.3762 29.0017 9.63268 29C9.32825 28.9998 9.02801 28.9543 8.75524 28.8674L7.77175 28.5525C7.55163 28.4822 7.29298 28.4822 7.07324 28.5525L6.09013 28.8674C5.81736 28.9543 5.51675 28.9998 5.21194 29C4.46802 29.0015 3.78706 28.7322 3.4563 28.3054L3.18392 27.9556C2.37668 26.9199 1.95551 25.7788 1.95322 24.6216C1.95513 23.7266 3.08854 23.0012 4.4871 23Z" fill="#3BB77E"/>
</g>
<defs>
<clipPath id="clip0_806_1178">
<rect width="48" height="30" fill="white"/>
</clipPath>
</defs>
</svg>
