<svg width="48" height="30" viewBox="0 0 48 30" fill="none" xmlns="http://www.w3.org/2000/svg">
<g clip-path="url(#clip0_806_1110)">
<path d="M11.1726 21.375C9.98092 21.225 9.35196 21.5625 9.18645 21.75L8.93817 21.9375C8.6899 22.1875 8.19336 22.725 8.19336 22.875V24C8.19336 24.1875 8.19336 24.75 8.44163 25.125C8.6899 25.5 8.6899 25.6875 8.93817 25.875C9.18645 26.0625 9.43472 26.25 9.68299 26.25C9.93126 26.25 11.1726 26.4375 11.4209 26.4375H14.1519C14.8967 26.4375 15.145 26.25 15.6415 26.25C16.1381 26.25 16.6346 26.0625 16.6346 25.875C16.6346 25.6875 16.8829 25.5 17.1311 25.3125C17.3794 25.125 17.1311 24.75 17.3794 24.4408C17.6277 24.1315 17.3794 24 17.3794 23.8125V22.875C17.3794 22.6875 17.1311 22.5 17.1311 22.3125C17.1311 22.125 16.6346 21.9375 16.3863 21.75C16.1877 21.6 15.6415 21.4375 15.3932 21.375C14.4829 21.4375 12.3643 21.525 11.1726 21.375Z" fill="#FDC040"/>
<path d="M33.2685 11.625C29.6934 12.675 22.8411 12.0625 19.8618 11.625L19.117 12L17.8757 13.5L17.1309 14.8125C17.9253 14.9625 20.2756 16.5 21.3515 17.25L22.0963 18.375C23.8839 18.525 24.3307 19.6875 24.3307 20.25L24.579 24.1875C27.9555 24.9375 35.7512 23.75 39.2271 23.0625C39.4257 22.7625 38.6478 19.5625 38.234 18C37.2409 15.75 34.5099 12.8125 33.2685 11.625Z" fill="#FDC040"/>
<path d="M36.7916 14.5942C35.6058 12.9574 34.427 11.8997 34.0024 11.5416V9.12583L39.5111 5.70974C39.6423 5.62835 39.7199 5.50782 39.7236 5.37961C39.7273 5.2514 39.6566 5.12841 39.5302 5.04286L35.3622 2.22146C35.1229 2.0595 34.755 2.07473 34.5405 2.25538C34.3259 2.43609 34.3461 2.71396 34.5854 2.87597L38.2484 5.35553L34.0026 7.98842V6.19116C34.0026 5.94846 33.7422 5.75169 33.4207 5.75169C33.0993 5.75169 32.8388 5.94846 32.8388 6.19116L32.8385 11.3416C28.6836 11.8494 24.4785 11.8494 20.3236 11.3415V6.19116C20.3236 5.94846 20.0631 5.75169 19.7416 5.75169C19.4202 5.75169 19.1597 5.94846 19.1597 6.19116V7.9886L14.9137 5.35553L19.4435 2.28878C20.1099 1.83748 20.9705 1.64991 21.7987 1.72421C21.9692 2.27747 22.3609 3.43797 22.9623 4.59407C23.9506 6.49381 25.1034 7.62952 26.3886 7.96955C26.4509 7.98602 26.5159 7.99428 26.5809 7.99428C26.646 7.99428 26.7111 7.98602 26.7733 7.96955C28.0585 7.62952 29.2113 6.49381 30.1999 4.59413C30.8003 3.4402 31.1915 2.28275 31.3628 1.72814C31.8755 1.68185 32.4049 1.73365 32.8972 1.89279C33.1928 1.98836 33.5347 1.88482 33.6612 1.66175C33.7877 1.43861 33.6507 1.18032 33.3553 1.08481C31.8604 0.601452 30.1176 0.823473 28.9149 1.6502L28.378 2.01936C27.3534 2.72392 25.8089 2.72392 24.7847 2.01936L24.2478 1.6502C22.6622 0.560083 20.2627 0.553345 18.6665 1.63444L13.6317 5.04297C13.5053 5.12852 13.4347 5.25158 13.4384 5.37972C13.442 5.50793 13.5197 5.62847 13.6508 5.70986L19.1596 9.12595V11.5414C18.7781 11.862 17.7977 12.7376 16.7527 14.0803C15.8678 13.7242 14.9318 13.3725 13.9838 13.0165C13.1553 12.7054 12.3208 12.392 11.5198 12.0738C12.3027 11.3334 12.9065 10.4954 13.1712 9.51291C13.5756 8.01151 12.984 6.67036 11.5483 5.83332C10.1871 5.03981 8.3127 4.86291 6.88376 5.39314C6.11781 5.67733 4.83288 6.41494 4.83288 8.16134C4.83288 9.26681 5.76246 10.3119 7.67493 11.3563C8.27313 11.683 8.94566 11.9994 9.66149 12.3081C8.77404 12.9674 7.75554 13.5542 6.79337 14.1084C4.72185 15.3016 2.75647 16.4346 2.70565 17.9612C1.43833 18.1906 0.460485 18.9888 0.290257 19.994C-0.0967522 22.2828 -0.0967522 24.6038 0.290257 26.8927C0.485778 28.0467 1.7462 28.9287 3.2874 28.9897C6.37758 29.1114 9.48948 29.1722 12.6015 29.1722C15.7134 29.1722 18.8255 29.1114 21.9157 28.9897C23.4573 28.9287 24.7174 28.0466 24.912 26.8927C25.0279 26.2084 25.1083 25.5212 25.155 24.8328C25.6284 24.8436 26.1058 24.8493 26.5809 24.8493C34.1776 24.8493 39.1339 23.5069 39.3412 23.4498C39.5708 23.3865 39.7236 23.2216 39.7236 23.037C39.7237 19.4039 38.1293 16.4405 36.7916 14.5942ZM24.0012 2.66895C25.4717 3.68085 27.6903 3.68085 29.1617 2.66907L29.6986 2.29998C29.8077 2.22497 29.923 2.15694 30.0434 2.09589C29.8413 2.6781 29.5312 3.47647 29.117 4.27249C28.147 6.13661 27.2311 6.83513 26.5812 7.07837C25.9313 6.83513 25.0155 6.13661 24.0457 4.27249C23.6315 3.47635 23.3214 2.67745 23.1193 2.09501C23.2391 2.15612 23.3545 2.22433 23.4645 2.29992L24.0012 2.66895ZM5.99701 8.1611C5.99701 7.20611 6.48116 6.52165 7.39724 6.18173C7.78037 6.03958 8.2182 5.97061 8.66883 5.97061C9.4219 5.97061 10.2105 6.16333 10.8374 6.52879C11.4669 6.89572 12.4589 7.74859 12.031 9.33742C11.7965 10.2084 11.2226 10.9661 10.4738 11.6454C7.95874 10.581 5.99701 9.45098 5.99701 8.1611ZM3.34808 18.775C4.38535 18.7344 5.42301 18.7004 6.43228 18.674C6.75349 18.6656 7.0048 18.4622 6.99363 18.2196C6.98245 17.9769 6.71516 17.7879 6.39193 17.7956C5.56888 17.8171 4.72697 17.8439 3.88188 17.8749C4.03178 16.8053 5.6526 15.8708 7.49942 14.807C8.58434 14.182 9.73605 13.5186 10.726 12.7503C11.6177 13.1092 12.5488 13.4589 13.4658 13.8033C14.3837 14.148 15.309 14.4956 16.1866 14.8492C15.6101 15.6764 15.0431 16.639 14.5739 17.7235C12.6164 17.707 10.6621 17.7134 8.72236 17.7456C8.401 17.7509 8.14627 17.9519 8.15333 18.1946C8.16039 18.4373 8.4252 18.6317 8.74781 18.6243C13.0858 18.5524 17.4958 18.6032 21.8554 18.775C22.8342 18.8133 23.6343 19.3727 23.7578 20.1053C23.8395 20.5876 23.9024 21.0714 23.9485 21.556C23.9014 22.0424 23.8376 22.5252 23.7578 22.9923C23.6344 23.7243 22.8341 24.2834 21.8544 24.3218C20.5368 24.3737 19.2132 24.4142 17.9082 24.4438C17.9362 23.8232 17.9181 23.2001 17.8522 22.583C17.7632 21.7484 16.8667 21.0846 15.767 21.0392C13.884 20.9614 11.9745 20.9613 10.092 21.0392C8.99222 21.0846 8.09576 21.7484 8.00669 22.583C7.94036 23.2048 7.92243 23.8327 7.95129 24.4581C6.41885 24.4272 4.87392 24.3821 3.34808 24.3218C2.36876 24.2835 1.56836 23.7244 1.445 22.9922C1.36695 22.5306 1.30294 22.0493 1.25421 21.5613C1.3003 21.0749 1.36314 20.5893 1.445 20.1053C1.56898 19.3728 2.36938 18.8133 3.34808 18.775ZM17.2106 15.2755C19.0958 16.0903 20.619 16.9425 21.1309 17.8691C19.3567 17.8051 17.576 17.7608 15.7958 17.7367C16.2153 16.8193 16.709 15.9944 17.2106 15.2755ZM16.6921 25.1241C16.6496 25.5226 16.2245 25.8394 15.7033 25.8609C15.7033 25.8609 15.7033 25.8609 15.7033 25.8609C13.8626 25.937 11.9963 25.937 10.1555 25.8609C9.63433 25.8394 9.20923 25.5226 9.16671 25.1241C9.07927 24.3045 9.07927 23.4732 9.16671 22.6536C9.20923 22.2551 9.63433 21.9384 10.1556 21.9168C11.0758 21.8788 12.0026 21.8597 12.9294 21.8597C13.8562 21.8597 14.783 21.8788 15.7033 21.9168C16.2245 21.9384 16.6496 22.2551 16.6921 22.6536C16.7796 23.4732 16.7796 24.3045 16.6921 25.1241ZM21.8552 28.1118C15.715 28.3535 9.48847 28.3535 3.34846 28.1118C2.36961 28.073 1.56898 27.5133 1.445 26.781C1.31667 26.022 1.23334 25.2593 1.19299 24.4954C1.73502 24.9058 2.47188 25.1676 3.28756 25.1995C4.85957 25.2618 6.45214 25.3079 8.03067 25.3389C8.20128 26.1047 9.05638 26.6958 10.0919 26.7386C11.0334 26.7775 11.9814 26.7969 12.9294 26.7969C13.8774 26.7969 14.8255 26.7775 15.7668 26.7386C16.8087 26.6955 17.6677 26.0974 17.831 25.3249C19.1806 25.295 20.5511 25.2534 21.9148 25.1995C22.731 25.1676 23.4681 24.9056 24.0102 24.4951C23.9698 25.2591 23.8863 26.022 23.7578 26.7812C23.6342 27.5134 22.8341 28.073 21.8552 28.1118ZM36.6501 23.1138C36.5304 21.7927 36.3092 20.4763 35.9903 19.1934C35.931 18.9548 35.6272 18.7979 35.311 18.8426C34.9951 18.8873 34.7871 19.117 34.8465 19.3556C35.1676 20.6477 35.3862 21.9749 35.4998 23.3063C35.0517 23.3756 34.5436 23.4476 33.9814 23.5177C33.911 21.7503 33.6612 19.9905 33.2362 18.2792C33.1769 18.0406 32.8728 17.8837 32.557 17.9282C32.2411 17.973 32.0331 18.2026 32.0924 18.4412C32.5147 20.1421 32.7598 21.8924 32.8224 23.6499C31.0873 23.8297 28.9684 23.9703 26.581 23.9703C26.1195 23.9703 25.6557 23.9647 25.1958 23.9544C25.2287 22.6317 25.1346 21.3076 24.9121 19.9942C24.7376 18.9593 23.7069 18.1441 22.3851 17.9426C21.9579 16.5997 20.1322 15.5209 17.7791 14.5068C18.7091 13.3179 19.5793 12.516 19.9592 12.1869C22.1571 12.4632 24.3692 12.6017 26.5813 12.6017C28.7933 12.6017 31.0052 12.4632 33.2031 12.187C33.6397 12.5641 34.7206 13.5612 35.7896 15.0426C37.0144 16.7399 38.4671 19.4301 38.5555 22.721C38.177 22.8112 37.5281 22.9555 36.6501 23.1138Z" fill="#3BB77E"/>
<path d="M15.2647 22.5834C14.4874 22.5559 13.7018 22.542 12.9296 22.542C12.1573 22.542 11.3716 22.5559 10.5943 22.5834C10.2975 22.5938 10.0588 22.7716 10.0407 22.9956C9.99295 23.5883 9.99295 24.1894 10.0407 24.7821C10.0587 25.0061 10.2975 25.1838 10.5943 25.1943C11.371 25.2218 12.1567 25.2357 12.9296 25.2357C13.7024 25.2357 14.488 25.2218 15.2647 25.1943C15.5615 25.1838 15.8002 25.0061 15.8183 24.7821C15.8661 24.1894 15.8661 23.5883 15.8183 22.9956C15.8003 22.7716 15.5616 22.5938 15.2647 22.5834ZM14.681 24.3329C13.5113 24.3646 12.3477 24.3646 11.1782 24.3329C11.1657 24.0373 11.1657 23.7405 11.1782 23.4448C12.3484 23.4131 13.5107 23.4131 14.681 23.4448C14.6935 23.7405 14.6935 24.0373 14.681 24.3329Z" fill="#3BB77E"/>
</g>
<defs>
<clipPath id="clip0_806_1110">
<rect width="48" height="30" fill="white"/>
</clipPath>
</defs>
</svg>
