<svg width="16" height="16" viewBox="0 0 16 16" fill="none" xmlns="http://www.w3.org/2000/svg">
<g clip-path="url(#clip0_817_4599)">
<path d="M0.962627 4.44787C0.739398 4.51165 0.536693 4.63262 0.374567 4.79879C0.212442 4.96497 0.0965169 5.1706 0.0382623 5.39533C-0.0199922 5.62007 -0.018557 5.85612 0.0424261 6.08013C0.103409 6.30414 0.221826 6.50834 0.38596 6.67254L2.66063 8.94454V13.3352H7.05596L9.34596 15.6219C9.46878 15.746 9.61497 15.8445 9.77608 15.9118C9.93719 15.979 10.11 16.0138 10.2846 16.0139C10.3994 16.0136 10.5136 15.9989 10.6246 15.9699C10.8493 15.9133 11.055 15.7985 11.2212 15.6371C11.3874 15.4757 11.5082 15.2734 11.5713 15.0505L15.994 0.0158691L0.962627 4.44787ZM1.33329 5.72987L12.6853 2.3832L3.99529 11.0592V8.39254L1.33329 5.72987ZM10.2933 14.6792L7.60863 12.0019H4.94196L13.6306 3.32054L10.2933 14.6792Z" fill="#3BB77E"/>
</g>
<defs>
<clipPath id="clip0_817_4599">
<rect width="16" height="16" fill="white" transform="translate(0 0.00170898)"/>
</clipPath>
</defs>
</svg>
