<svg width="16" height="17" viewBox="0 0 16 17" fill="none" xmlns="http://www.w3.org/2000/svg">
<g clip-path="url(#clip0_817_4595)">
<path d="M8.00004 16.1236L7.53337 15.7236C6.89004 15.185 1.27271 10.3336 1.27271 6.78495C1.27271 5.00075 1.98148 3.28963 3.2431 2.02801C4.50472 0.766388 6.21584 0.0576172 8.00004 0.0576172C9.78424 0.0576172 11.4954 0.766388 12.757 2.02801C14.0186 3.28963 14.7274 5.00075 14.7274 6.78495C14.7274 10.3336 9.11004 15.185 8.46937 15.7263L8.00004 16.1236ZM8.00004 1.51228C6.60213 1.51387 5.26193 2.06989 4.27345 3.05837C3.28498 4.04684 2.72896 5.38704 2.72737 6.78495C2.72737 9.01428 6.18337 12.5756 8.00004 14.2056C9.8167 12.575 13.2727 9.01162 13.2727 6.78495C13.2711 5.38704 12.7151 4.04684 11.7266 3.05837C10.7381 2.06989 9.39795 1.51387 8.00004 1.51228Z" fill="#3BB77E"/>
<path d="M7.99992 9.45174C7.4725 9.45174 6.95693 9.29535 6.5184 9.00233C6.07987 8.70931 5.73807 8.29284 5.53624 7.80557C5.33441 7.3183 5.2816 6.78212 5.38449 6.26484C5.48739 5.74755 5.74136 5.2724 6.1143 4.89946C6.48724 4.52652 6.9624 4.27254 7.47968 4.16965C7.99696 4.06675 8.53314 4.11956 9.02041 4.3214C9.50768 4.52323 9.92416 4.86502 10.2172 5.30356C10.5102 5.74209 10.6666 6.25766 10.6666 6.78508C10.6666 7.49232 10.3856 8.1706 9.88554 8.67069C9.38544 9.17079 8.70716 9.45174 7.99992 9.45174ZM7.99992 5.45174C7.73621 5.45174 7.47843 5.52994 7.25916 5.67645C7.03989 5.82296 6.869 6.0312 6.76808 6.27483C6.66716 6.51847 6.64076 6.78656 6.69221 7.0452C6.74365 7.30384 6.87064 7.54141 7.05711 7.72789C7.24358 7.91436 7.48116 8.04134 7.7398 8.09279C7.99844 8.14424 8.26653 8.11783 8.51016 8.01692C8.7538 7.916 8.96204 7.7451 9.10855 7.52584C9.25505 7.30657 9.33325 7.04878 9.33325 6.78508C9.33325 6.43145 9.19278 6.09232 8.94273 5.84227C8.69268 5.59222 8.35354 5.45174 7.99992 5.45174Z" fill="#3BB77E"/>
</g>
<defs>
<clipPath id="clip0_817_4595">
<rect width="16" height="16" fill="white" transform="translate(0 0.118408)"/>
</clipPath>
</defs>
</svg>
