<svg width="16" height="17" viewBox="0 0 16 17" fill="none" xmlns="http://www.w3.org/2000/svg">
<path d="M14 9.08507V8.13574C14 6.54444 13.3679 5.01832 12.2427 3.8931C11.1175 2.76788 9.59135 2.13574 8.00005 2.13574C6.40875 2.13574 4.88263 2.76788 3.75741 3.8931C2.63219 5.01832 2.00005 6.54444 2.00005 8.13574V9.08507C1.30082 9.39296 0.728582 9.93171 0.379129 10.6111C0.0296769 11.2905 -0.0757776 12.0694 0.0804202 12.8172C0.236618 13.5651 0.644987 14.2366 1.23716 14.7194C1.82934 15.2021 2.56937 15.4668 3.33338 15.4691H4.66672V8.80241H3.33338V8.13574C3.33338 6.89807 3.82505 5.71108 4.70022 4.83591C5.57539 3.96074 6.76237 3.46908 8.00005 3.46908C9.23773 3.46908 10.4247 3.96074 11.2999 4.83591C12.175 5.71108 12.6667 6.89807 12.6667 8.13574V8.80241H11.3334V14.1357H8.66672V15.4691H12.6667C13.4307 15.4668 14.1708 15.2021 14.7629 14.7194C15.3551 14.2366 15.7635 13.5651 15.9197 12.8172C16.0759 12.0694 15.9704 11.2905 15.621 10.6111C15.2715 9.93171 14.6993 9.39296 14 9.08507ZM3.33338 14.1357C2.80295 14.1357 2.29424 13.925 1.91917 13.55C1.5441 13.1749 1.33338 12.6662 1.33338 12.1357C1.33338 11.6053 1.5441 11.0966 1.91917 10.7215C2.29424 10.3465 2.80295 10.1357 3.33338 10.1357V14.1357ZM12.6667 14.1357V10.1357C13.1971 10.1357 13.7059 10.3465 14.0809 10.7215C14.456 11.0966 14.6667 11.6053 14.6667 12.1357C14.6667 12.6662 14.456 13.1749 14.0809 13.55C13.7059 13.925 13.1971 14.1357 12.6667 14.1357Z" fill="#3BB77E"/>
</svg>
