<svg width="47" height="30" viewBox="0 0 47 30" fill="none" xmlns="http://www.w3.org/2000/svg">
<path d="M14.7548 26.0625L10.6235 26.625L9.73818 27L8.85289 27.75L8.2627 28.3125L10.0333 28.6875C10.9186 28.875 12.099 29.0625 12.6892 29.25C13.1613 29.4 17.8042 29.4375 20.0666 29.4375C29.9819 29.2875 37.5757 24.875 40.1333 22.6875L43.6744 18.9375L45.1499 15.375L45.7401 10.3125C45.2483 8.99997 44.2646 6.33747 44.2646 6.18747C44.2646 6.03747 43.6744 5.49997 43.3793 5.24997L41.6088 5.43747L41.0186 6.74997V7.12497C40.9202 7.49997 40.7235 8.28747 40.7235 8.43747C40.7235 8.58747 39.9365 9.87497 39.5431 10.5L38.0676 13.125L35.1166 16.3125L30.6901 19.875L26.5588 22.3125L20.3617 24.5625L14.7548 26.0625Z" fill="#FDC040"/>
<path d="M44.6137 5.1107L42.9306 1.31457C42.6982 0.7905 41.9977 0.41414 41.1458 0.355702L39.8659 0.267898C39.2779 0.227455 38.6881 0.348375 38.248 0.59936C37.8078 0.850344 37.5551 1.20988 37.5548 1.58571L37.5518 5.03919C36.8509 6.62727 35.9249 8.17034 34.7918 9.64976C34.3355 8.98156 33.7813 8.33768 33.1305 7.72787C32.4685 7.10849 31.732 6.53156 30.9416 6.01317C29.4278 5.02008 27.1167 4.681 25.0533 5.1495C23.6119 5.47656 22.116 5.92742 20.6058 6.48877C20.5367 5.00882 19.995 3.74827 19.5159 2.90851C18.9012 1.83107 18.0569 0.867636 17.3122 0.394152C16.2647 -0.271408 14.4149 -0.0236474 13.4097 0.614834C12.5628 1.15279 12.1119 2.12297 13.628 3.0867C14.4617 3.61639 15.1531 4.71552 15.6153 6.22624C14.3535 5.78587 13.1063 5.42369 11.8981 5.14956C9.83581 4.68123 7.5244 5.0202 6.00994 6.01306C5.54214 6.31967 5.08956 6.64972 4.66503 6.99396C4.42933 7.18504 4.4821 7.46141 4.78283 7.61111C5.08366 7.76081 5.51843 7.7274 5.75413 7.53626C6.14887 7.21622 6.56916 6.90967 7.00347 6.62504C8.14118 5.87912 9.87963 5.62497 11.4326 5.97754C12.8158 6.29136 14.258 6.72762 15.7193 7.27413C17.4195 7.9098 19.5317 7.9098 21.2321 7.27413C22.693 6.72768 24.1353 6.29147 25.5188 5.97754C27.0724 5.6248 28.8107 5.87901 29.9477 6.62499C30.6828 7.10714 31.3685 7.6444 31.9855 8.22169C32.8096 8.99404 33.4684 9.82454 33.9507 10.692C31.9406 13.0575 29.3889 15.2406 26.3705 17.1585C21.8072 20.0584 16.2841 22.2823 10.2604 23.6604C6.48512 22.1762 3.77878 19.8672 2.62419 17.1357C1.44228 14.3396 2.02438 11.429 4.26337 8.93988C4.45295 8.72911 4.33773 8.46054 4.006 8.34009C3.67436 8.21964 3.25167 8.2929 3.062 8.50362C0.640815 11.1953 0.0107486 14.3419 1.28804 17.3636C2.4372 20.0823 5.01041 22.4135 8.59902 24.0165C8.20391 24.0955 7.80715 24.1714 7.40826 24.2432C7.40678 24.2434 7.40531 24.2438 7.40383 24.244C7.40309 24.2441 7.40236 24.2443 7.40162 24.2444C7.40116 24.2445 7.40079 24.2447 7.40033 24.2448C7.26278 24.2698 7.13935 24.3212 7.04867 24.3936L4.62112 26.3323C4.40451 26.5053 4.4237 26.7535 4.66595 26.9121L7.40485 28.706C7.4745 28.7516 7.55844 28.7862 7.64986 28.8089C7.65208 28.8095 7.65392 28.8104 7.65623 28.811C10.9316 29.601 14.3827 30 17.8526 30C19.7914 30 21.7364 29.8754 23.659 29.6248C29.1613 28.9077 34.1786 27.1889 38.1683 24.6542C41.0365 22.8318 43.2228 20.6975 44.6662 18.3108C44.8032 18.0842 44.6252 17.8299 44.2685 17.7428C43.9115 17.6556 43.5114 17.7688 43.3745 17.9954C42.001 20.2665 39.9203 22.2976 37.1899 24.0325C33.3924 26.4452 28.6172 28.0811 23.381 28.7635C18.6226 29.3837 13.7243 29.193 9.14662 28.2156L11.1369 26.9121C11.4002 26.7397 11.3969 26.465 11.1297 26.2952L8.89957 24.8778C15.8251 23.5058 22.1838 21.0626 27.3493 17.78C32.714 14.3713 36.6521 10.1497 38.7608 5.5527L43.4723 5.6755C45.4664 9.07481 45.7331 12.8599 44.2175 16.3675C44.1163 16.6016 44.3331 16.8435 44.7015 16.9078C45.0699 16.9722 45.4507 16.8344 45.5519 16.6003C47.1822 12.8267 46.8486 8.74757 44.6137 5.1107ZM17.1587 6.7319C16.6503 4.65345 15.7926 3.2184 14.6069 2.46498C13.903 2.01758 13.8275 1.59281 14.3883 1.23655C14.9561 0.875724 15.9381 0.764299 16.3338 1.01569C17.35 1.66191 19.2369 4.0652 19.2292 6.82609C18.541 6.90868 17.8267 6.87773 17.1587 6.7319ZM7.90134 27.7685L6.08254 26.5773L7.64885 25.3265L9.6693 26.6106L7.90134 27.7685ZM39.1722 1.25373C39.3228 1.16791 39.5167 1.12812 39.7174 1.14201L40.9972 1.22981C41.2842 1.24951 41.5204 1.37635 41.5987 1.55301L43.0313 4.78404L38.9359 4.6773L38.9385 1.58618C38.9387 1.45758 39.0216 1.33954 39.1722 1.25373Z" fill="#3BB77E"/>
<path d="M40.3017 6.66994C39.2623 11.3888 35.5526 15.981 29.8558 19.6006C25.1149 22.6129 19.3628 24.7442 13.2211 25.7644C12.8514 25.8258 12.6301 26.066 12.7268 26.3008C12.8081 26.4985 13.0886 26.6294 13.3957 26.6294C13.4536 26.6294 13.5125 26.6247 13.5711 26.615C19.9503 25.5553 25.9198 23.3448 30.8344 20.2223C36.7424 16.4684 40.5914 11.6987 41.6722 6.79174C41.7251 6.5513 41.4613 6.3291 41.0828 6.29545C40.7047 6.26187 40.3546 6.42944 40.3017 6.66994Z" fill="#3BB77E"/>
</svg>
