<svg width="29" height="30" viewBox="0 0 29 30" fill="none" xmlns="http://www.w3.org/2000/svg">
<path d="M3.54602 11.625L3.19141 9.5625V7.6875C3.25051 7.25 3.40418 6.375 3.54602 6.375C3.68787 6.375 4.60986 6 5.31909 5.8125L6.73755 5.625C7.09217 5.625 7.26947 5.625 9.04255 5.25C9.18164 5.22059 10.1064 5.0625 10.461 5.0625L9.92908 4.3125L10.6383 5.0625L11.3475 5.8125L11.5249 6.375C11.2884 6.4375 10.7447 6.5625 10.461 6.5625H9.04255L8.33332 6.9375V7.5C8.33332 7.65 8.21511 8.9375 8.15601 9.5625L7.9787 11.4375L7.26947 11.625H3.90064H3.54602Z" fill="#FDC040"/>
<path d="M16.6668 6.5625L17.376 5.625L19.681 3.9375L22.3406 2.8125C23.168 2.5625 25.0357 2.175 25.8867 2.625C26.9506 3.1875 27.1279 3.375 28.0144 5.0625C27.9553 6.375 27.7307 9.1125 27.3052 9.5625L26.4187 11.25L25.8867 11.625H23.2271H19.3264H18.0852V10.3125C18.0852 10.125 17.9079 8.8125 17.9079 8.625V7.5L17.7306 6.75L17.376 6.5625H16.6668Z" fill="#FDC040"/>
<path d="M20.3679 5.2322C20.1212 5.49307 19.9854 5.8399 19.9854 6.20882C19.9854 6.57774 20.1212 6.92457 20.3679 7.18544L23.387 10.3782C23.6337 10.639 23.9617 10.7826 24.3105 10.7826C24.6593 10.7826 24.9873 10.639 25.234 10.3782C25.4806 10.1173 25.6165 9.77046 25.6165 9.40154C25.6165 9.03262 25.4806 8.68579 25.234 8.42492L22.2149 5.23215C21.7057 4.69371 20.877 4.69383 20.3679 5.2322ZM24.6463 9.04645C24.736 9.14126 24.7854 9.26741 24.7854 9.40154C24.7854 9.53567 24.736 9.66176 24.6463 9.75663C24.5566 9.8515 24.4373 9.90371 24.3105 9.90371C24.1836 9.90371 24.0644 9.8515 23.9747 9.75663L20.9555 6.56386C20.8659 6.46905 20.8165 6.34289 20.8165 6.20876C20.8165 6.07464 20.8659 5.94854 20.9556 5.85367C21.0481 5.75576 21.1697 5.70683 21.2914 5.70683C21.413 5.70683 21.5346 5.75576 21.6272 5.85367L24.6463 9.04645Z" fill="#3BB77E"/>
<path d="M28.2681 13.3228C28.0944 12.415 27.4746 11.6868 26.6818 11.3777C28.6478 7.90911 28.9204 4.6609 27.3475 2.99754C26.6576 2.26796 25.6583 1.89441 24.4556 1.91785C24.2262 1.9223 24.0435 2.12264 24.0477 2.36529C24.0519 2.60524 24.2371 2.79673 24.4631 2.79673C24.4657 2.79673 24.4683 2.79673 24.4709 2.79667C25.4548 2.77739 26.2259 3.05432 26.7599 3.61901C27.5856 4.49226 27.6079 5.81905 27.4813 6.77832C27.3021 8.13493 26.7217 9.66482 25.8011 11.2158C23.4042 11.1675 20.997 11.1341 18.5859 11.1158C18.5702 9.61905 18.4826 8.10405 18.3234 6.60535C18.3017 6.40073 18.1485 6.23947 17.9549 6.21744C17.8309 6.20338 17.7068 6.19084 17.5828 6.17783C19.3372 4.60904 21.2128 3.50398 22.9392 3.03293C23.1615 2.97228 23.2951 2.73263 23.2378 2.4976C23.1805 2.26257 22.9537 2.12118 22.7316 2.18188C22.07 2.36242 21.3895 2.62868 20.7036 2.97187C20.8372 2.35761 20.9009 1.62124 20.6459 1.07178C20.4923 0.740657 20.2379 0.514887 19.9104 0.418848C19.4252 0.276694 18.6715 0.351345 17.834 1.51477C17.7935 1.57108 17.7544 1.6278 17.7167 1.68423C17.7121 1.66753 17.7075 1.65089 17.7028 1.63419C17.5382 1.05514 17.108 0.0836792 16.0746 0.0836792C15.7157 0.0836792 15.4028 0.234974 15.1695 0.521156C14.865 0.894823 14.7318 1.47522 14.684 2.05367C14.3203 1.54787 13.8798 1.14134 13.4032 1.14134C13.0937 1.14134 12.8114 1.3081 12.6084 1.61092C12.0737 2.40865 12.0659 4.13746 12.5626 5.94878C12.4382 5.95042 12.3139 5.95341 12.1895 5.95616C11.3753 4.95148 10.3911 4.26005 9.96064 3.98336V3.02004C10.1557 2.98388 10.3041 2.80429 10.3041 2.5876V1.34683C10.3041 0.678135 9.78965 0.13413 9.1573 0.13413H6.57306C5.94072 0.13413 5.42628 0.678135 5.42628 1.34683V2.5876C5.42628 2.80429 5.57473 2.98388 5.76983 3.02004L5.7695 3.98318C5.20841 4.34354 3.70955 5.40571 2.87069 6.94802C2.69958 7.26127 2.62035 7.62234 2.64179 7.99296C2.68202 8.66839 2.78192 9.98153 2.99908 11.2078C2.82891 11.211 2.65858 11.214 2.48852 11.2175C1.33421 11.2405 0.33006 12.126 0.100993 13.3226C-0.033655 14.0237 -0.033655 14.7347 0.100937 15.4355C0.269053 16.315 0.858234 17.0409 1.63642 17.3613C1.68208 18.2559 1.76026 19.5281 1.88826 20.9741C1.54521 22.0015 1.2092 23.0294 0.88328 24.0551C0.602847 24.9387 0.978309 25.9193 1.75716 26.3364C2.0535 26.4945 2.36507 26.6173 2.68396 26.7026C2.98201 27.5963 3.51395 28.3674 4.23473 28.9437C5.03065 29.58 5.97906 29.9164 6.97745 29.9164H21.3918C22.3902 29.9164 23.3386 29.58 24.1345 28.9437C24.8553 28.3673 25.3873 27.5962 25.6853 26.7023C26.0057 26.6163 26.3172 26.4934 26.6122 26.3357C27.3913 25.9194 27.7668 24.9387 27.4859 24.0545C27.1597 23.0281 26.8238 22.0004 26.481 20.9737C26.609 19.5278 26.6872 18.2556 26.7328 17.3611C27.5119 17.0399 28.1004 16.3144 28.2682 15.4359C28.4028 14.7347 28.4028 14.0236 28.2681 13.3228ZM17.5333 7.05507C17.6663 8.40453 17.7402 9.76513 17.7548 11.1107C14.6723 11.0917 11.5847 11.0971 8.50534 11.1272C8.51947 9.77644 8.59344 8.41028 8.72693 7.05501C11.6504 6.74656 14.6097 6.74656 17.5333 7.05507ZM13.2864 2.11918C13.3167 2.07407 13.3615 2.02027 13.4032 2.02027C13.7025 2.02027 14.33 2.923 14.7764 3.99519C14.8499 4.18516 15.0391 4.29684 15.232 4.26151C15.4311 4.22495 15.5765 4.04224 15.5765 3.82849C15.5765 3.80177 15.5741 3.77499 15.5695 3.74862C15.3617 2.26362 15.5926 1.3483 15.7992 1.09487C15.8748 1.00211 15.9572 0.962559 16.0746 0.962559C17.0327 0.962559 17.0648 2.97838 17.0648 2.99818C17.0648 3.2059 17.2024 3.38509 17.3946 3.42798C17.5871 3.47093 17.7812 3.36552 17.8606 3.17549C18.1578 2.46478 18.9946 1.0627 19.6883 1.26591C19.787 1.29486 19.8502 1.35263 19.8995 1.45904C20.0763 1.84003 19.9817 2.6827 19.6721 3.54371C18.5731 4.21188 17.4769 5.06656 16.4374 6.07365C15.4372 5.99612 14.4341 5.95382 13.4307 5.94679C12.8517 4.02707 12.9873 2.56545 13.2864 2.11918ZM9.12948 3.79602H6.60077L6.60104 3.02707H9.12954V3.79602H9.12948ZM6.57306 1.01301H9.1573C9.33135 1.01301 9.47292 1.16272 9.47292 1.34677V2.14795H6.25744V1.34683C6.25744 1.16278 6.39902 1.01301 6.57306 1.01301ZM3.81849 11.0599C3.60776 9.87652 3.51052 8.59579 3.47134 7.93852C3.45998 7.74152 3.50115 7.55103 3.59081 7.3869C4.38346 5.9295 5.91545 4.91222 6.29612 4.6749H9.43402C9.67689 4.82608 10.3897 5.29538 11.0797 5.99478C10.1527 6.03919 9.22723 6.11279 8.30553 6.2175C8.11187 6.23947 7.95866 6.40073 7.93694 6.6054C7.77708 8.11109 7.68947 9.63288 7.67435 11.1361C6.39835 11.1505 5.12385 11.1686 3.85207 11.1914C3.83844 11.1485 3.82658 11.1048 3.81849 11.0599ZM2.47822 17.5404C2.48171 17.5405 2.48514 17.5409 2.48864 17.5409L2.50193 17.5412C2.68828 17.5449 2.87463 17.5481 3.06103 17.5516C2.89446 18.025 2.72906 18.499 2.5656 18.9737C2.52897 18.4383 2.50038 17.9553 2.47822 17.5404ZM21.3917 29.0374H6.97739C5.50984 29.0374 4.18093 28.1059 3.58471 26.7162C4.13067 26.5723 4.6041 26.1567 4.82142 25.5706C5.06091 24.9251 5.2785 24.3303 5.48668 23.7525C5.56841 23.5257 5.4608 23.2718 5.24631 23.1854C5.03182 23.099 4.79172 23.2127 4.70999 23.4395C4.50276 24.0147 4.2861 24.6068 4.04761 25.2497C3.8754 25.7142 3.40596 25.9803 2.95458 25.8682C2.67099 25.7983 2.3941 25.6918 2.13212 25.5519C1.71926 25.3308 1.52111 24.8075 1.67116 24.3349C2.73665 20.9819 3.89889 17.6052 5.12551 14.2987C5.29801 13.8341 5.76778 13.5678 6.21794 13.6793C6.5043 13.7504 6.78124 13.8571 7.0415 13.9965C7.45448 14.2171 7.65246 14.7402 7.50208 15.2133C6.80479 17.4074 6.06251 19.6229 5.29574 21.7983C5.21556 22.0257 5.32494 22.2788 5.53999 22.3636C5.75509 22.4485 5.99435 22.3327 6.07453 22.1053C6.59705 20.6228 7.10783 19.1217 7.60132 17.6214C9.78649 17.6465 11.9853 17.6595 14.1845 17.6595C16.384 17.6595 18.583 17.6466 20.7684 17.6214C21.6457 20.2888 22.5768 22.9539 23.5477 25.5702C23.765 26.1563 24.2385 26.5718 24.7845 26.7159C24.1884 28.1057 22.8593 29.0374 21.3917 29.0374ZM26.2373 25.5512C25.976 25.6909 25.699 25.7975 25.4139 25.8681C24.9636 25.9797 24.4938 25.7137 24.3214 25.2491C23.0973 21.9502 21.9351 18.5734 20.8671 15.2128C20.7167 14.7398 20.9148 14.2167 21.3277 13.996C21.5889 13.8564 21.866 13.7497 22.151 13.6791C22.2201 13.662 22.2897 13.6537 22.3585 13.6537C22.7386 13.6537 23.0976 13.9048 23.2436 14.2981C24.4677 17.5971 25.6299 20.9738 26.6979 24.3345C26.8482 24.8075 26.6502 25.3306 26.2373 25.5512ZM25.3084 17.5516C25.4945 17.5481 25.6806 17.5449 25.8667 17.5412L25.8815 17.5409C25.8847 17.5408 25.8879 17.5405 25.891 17.5404C25.8688 17.9551 25.8402 18.438 25.8036 18.9731C25.6402 18.4985 25.4748 18.0248 25.3084 17.5516ZM27.4535 15.2613C27.3278 15.9189 26.8486 16.4483 26.2301 16.6106C26.1136 16.642 25.9903 16.6594 25.865 16.6621L25.8512 16.6624C25.5672 16.668 25.2832 16.6732 24.9991 16.6783C24.6766 15.7736 24.3494 14.8723 24.0173 13.9771C23.6952 13.1087 22.811 12.6128 21.9614 12.8234C21.6122 12.9099 21.2728 13.0405 20.9528 13.2116C20.1738 13.628 19.7982 14.6087 20.0791 15.4928C20.2118 15.9102 20.3459 16.3278 20.4813 16.7455C16.2994 16.7914 12.0693 16.7914 7.88734 16.7455C8.02288 16.3277 8.15742 15.9101 8.28979 15.4934C8.571 14.609 8.19537 13.6282 7.41658 13.2122C7.09786 13.0415 6.75847 12.9107 6.40761 12.8236C5.55799 12.6132 4.67414 13.1093 4.35171 13.9776C4.01941 14.8732 3.69232 15.7743 3.37011 16.6784C3.08585 16.6733 2.80154 16.668 2.51728 16.6625L2.50504 16.6622C2.37865 16.6594 2.25552 16.6421 2.1365 16.61C1.52045 16.4483 1.04114 15.9189 0.915418 15.261C0.8031 14.6759 0.8031 14.0826 0.915473 13.4973C1.06796 12.7008 1.7361 12.1117 2.50426 12.0963C10.2547 11.939 18.1143 11.939 25.8648 12.0963C26.6329 12.1117 27.301 12.7008 27.4535 13.4976C27.566 14.0825 27.566 14.6758 27.4535 15.2613Z" fill="#3BB77E"/>
<path d="M8.69148 19.1639H8.66344C7.71171 19.1663 6.94366 19.9607 6.91496 20.9724C6.88121 22.1639 6.88121 23.3723 6.91496 24.5638C6.94366 25.5755 7.71165 26.3699 8.66377 26.3723H8.69148C9.64321 26.3699 10.4113 25.5756 10.44 24.5638C10.4737 23.3723 10.4737 22.1639 10.44 20.9724C10.4112 19.9606 9.64321 19.1663 8.69148 19.1639ZM9.60913 24.5375C9.59423 25.0633 9.18164 25.4921 8.68981 25.4933H8.66543C8.17322 25.4921 7.76063 25.0633 7.74573 24.5375C7.71243 23.3634 7.71243 22.1728 7.74573 20.9987C7.76063 20.4729 8.17322 20.044 8.66571 20.0428H8.68915H8.68943C9.18164 20.044 9.59423 20.4729 9.60913 20.9987C9.64243 22.1728 9.64243 23.3634 9.60913 24.5375Z" fill="#3BB77E"/>
<path d="M14.1983 19.1639H14.1703C13.2185 19.1663 12.4505 19.9607 12.4218 20.9724C12.388 22.1639 12.388 23.3723 12.4218 24.5638C12.4505 25.5755 13.2185 26.3699 14.1706 26.3723H14.1983C15.1501 26.3699 15.9181 25.5755 15.9468 24.5638C15.9805 23.3723 15.9805 22.1639 15.9468 20.9724C15.9181 19.9607 15.1501 19.1663 14.1983 19.1639ZM15.116 24.5375C15.1011 25.0633 14.6885 25.4921 14.1967 25.4933H14.1723C13.6801 25.4921 13.2675 25.0633 13.2526 24.5375C13.2193 23.3634 13.2193 22.1728 13.2526 20.9987C13.2675 20.4729 13.6801 20.044 14.1726 20.0428H14.196H14.1963C14.6885 20.044 15.1011 20.4729 15.116 20.9987C15.1493 22.1728 15.1493 23.3634 15.116 24.5375Z" fill="#3BB77E"/>
<path d="M19.7056 19.1639H19.6776C18.7258 19.1663 17.9578 19.9607 17.9291 20.9724C17.8954 22.1639 17.8954 23.3723 17.9291 24.5638C17.9578 25.5755 18.7258 26.3699 19.6779 26.3723H19.7056C20.6574 26.3699 21.4254 25.5755 21.4541 24.5638C21.4879 23.3723 21.4879 22.1639 21.4541 20.9724C21.4254 19.9607 20.6574 19.1663 19.7056 19.1639ZM20.6233 24.5375C20.6084 25.0633 20.1959 25.4921 19.704 25.4933H19.6796C19.1874 25.4921 18.7749 25.0633 18.76 24.5375C18.7266 23.3634 18.7266 22.1728 18.76 20.9987C18.7749 20.4729 19.1874 20.044 19.6799 20.0428H19.7034H19.7037C20.1959 20.044 20.6084 20.4729 20.6233 20.9987C20.6566 22.1728 20.6566 23.3634 20.6233 24.5375Z" fill="#3BB77E"/>
</svg>
