<svg width="117" height="32" viewBox="0 0 117 32" fill="none" xmlns="http://www.w3.org/2000/svg">
<g clip-path="url(#clip0_802_696)">
<ellipse opacity="0.8" cx="7.34871" cy="9.40785" rx="7.34871" ry="9.40785" transform="matrix(0.995769 0.091889 -0.115471 0.993311 26.6611 2.90909)" fill="#FDC040"/>
<ellipse cx="7.27715" cy="9.52144" rx="7.27715" ry="9.52144" transform="matrix(0.956716 -0.291024 0.35783 0.933787 11.9722 9.08414)" fill="#FDC040"/>
<path d="M14.6929 18.9091H40.8524C41.0612 18.9899 41.5413 19.297 41.7919 19.8788C42.105 20.6061 42.9905 31.2727 28.0254 29.0909C16.2505 29.0909 13.5029 28.7677 13.6073 28.6061C15.7812 28.1212 16.0533 26.1818 16.3254 24.7273C16.5975 23.2727 14.6929 18.9091 14.6929 18.9091Z" fill="#81B13D"/>
<path d="M34.3474 8.93689C34.0039 8.93689 33.7256 9.18492 33.7256 9.49087V9.57936C33.7256 9.88538 34.0039 10.1333 34.3474 10.1333C34.6908 10.1333 34.9691 9.88538 34.9691 9.57936V9.49087C34.9691 9.18485 34.6908 8.93689 34.3474 8.93689Z" fill="#253D4E"/>
<path d="M35.9624 11.4084C35.6189 11.4084 35.3406 11.6563 35.3406 11.9623V12.0508C35.3406 12.3568 35.6189 12.6048 35.9624 12.6048C36.3058 12.6048 36.5841 12.3568 36.5841 12.0508V11.9623C36.5841 11.6563 36.3058 11.4084 35.9624 11.4084Z" fill="#253D4E"/>
<path d="M22.348 10.8882L22.302 10.8096C22.1431 10.5383 21.7673 10.4332 21.4631 10.5749C21.1587 10.7165 21.0407 11.0511 21.1996 11.3223L21.2456 11.4008C21.3565 11.5902 21.5731 11.6987 21.7973 11.6987C21.8943 11.6987 21.9926 11.6784 22.0845 11.6356C22.389 11.494 22.5069 11.1594 22.348 10.8882Z" fill="#253D4E"/>
<path d="M25.0633 12.4129L25.0173 12.3344C24.8584 12.0631 24.4827 11.958 24.1784 12.0997C23.874 12.2413 23.756 12.5759 23.915 12.8471L23.961 12.9256C24.0718 13.115 24.2884 13.2234 24.5126 13.2234C24.6096 13.2234 24.7079 13.2032 24.7999 13.1604C25.1043 13.0188 25.2223 12.6842 25.0633 12.4129Z" fill="#253D4E"/>
<path d="M21.1946 23.4346L19.3452 21.7868C19.1023 21.5704 18.7085 21.5704 18.4659 21.7867C18.223 22.0031 18.223 22.3538 18.4658 22.5701L20.3152 24.2179C20.4367 24.3262 20.5957 24.3802 20.7549 24.3802C20.9139 24.3802 21.0731 24.3262 21.1945 24.218C21.4374 24.0017 21.4374 23.6509 21.1946 23.4346Z" fill="#253D4E"/>
<path d="M26.6897 22.4022C26.4906 22.153 26.1026 22.0946 25.8226 22.2722L19.3681 26.3664C19.0884 26.5438 19.0231 26.8897 19.2222 27.1389C19.3435 27.2908 19.5348 27.3716 19.7293 27.3716C19.8539 27.3716 19.98 27.3383 20.0893 27.2689L26.5438 23.1748C26.8235 22.9973 26.8888 22.6514 26.6897 22.4022Z" fill="#253D4E"/>
<path d="M28.9716 23.2378C28.7726 22.9886 28.3844 22.9303 28.1045 23.1078L25.6269 24.6794C25.3471 24.8569 25.2819 25.2028 25.481 25.452C25.6023 25.6039 25.7937 25.6847 25.9881 25.6847C26.1128 25.6847 26.2387 25.6514 26.3481 25.5819L28.8257 24.0104C29.1055 23.833 29.1707 23.4871 28.9716 23.2378Z" fill="#253D4E"/>
<path d="M42.3291 20.7242C42.1281 20.4761 41.7396 20.4201 41.461 20.5989L41.2539 20.7319C41.2547 20.6844 41.256 20.637 41.256 20.5894C41.256 20.0609 41.0252 19.5636 40.6049 19.1881C40.1846 18.8146 39.6264 18.609 39.0333 18.609H38.8493C39.5317 17.4343 39.8781 16.0198 39.8781 14.3869C39.8781 11.1845 38.5308 7.68413 36.4457 5.46932C36.2249 5.23487 35.8328 5.20414 35.5697 5.40092C35.3066 5.59754 35.2722 5.947 35.4929 6.18137C37.4015 8.20849 38.6347 11.4294 38.6347 14.3869C38.6347 16.0913 38.2234 17.51 37.4124 18.609H36.1814L36.7284 18.2621C37.0082 18.0846 37.0734 17.7387 36.8743 17.4895C36.6752 17.2403 36.2871 17.1819 36.0072 17.3595L34.0374 18.609H30.3389C30.7116 16.9269 30.3234 15.0476 29.197 13.1253C28.3906 11.7496 27.2455 10.4185 25.9282 9.29075C27.285 6.23314 29.5304 4.27715 31.7182 4.27715C32.379 4.27715 33.0449 4.44844 33.6972 4.78644C33.9941 4.94008 34.3747 4.85034 34.5473 4.5859C34.7199 4.3214 34.6191 3.98229 34.3222 3.8285C33.4775 3.391 32.6014 3.16919 31.7182 3.16919C29.0714 3.16919 26.5262 5.19558 24.9437 8.50986C24.4046 8.11468 23.846 7.75541 23.277 7.4423C20.5984 5.96842 18.0621 5.65036 16.1353 6.54655C14.3581 7.37405 13.2197 9.20891 12.9297 11.7131C12.8944 12.0174 13.1428 12.2896 13.4844 12.3209C13.8268 12.3529 14.1315 12.131 14.1666 11.8268C14.4124 9.70461 15.316 8.17813 16.7109 7.52857C20.107 5.94892 25.7156 9.57933 28.0946 13.6381C29.1527 15.4439 29.4783 17.1138 29.0663 18.6091H22.095C22.0933 18.6091 22.0916 18.6091 22.0899 18.6091H18.9037L17.8602 17.6793C17.6173 17.4631 17.2237 17.4631 16.9808 17.6793C16.738 17.8958 16.738 18.2465 16.9808 18.4628L17.1449 18.609H15.4379C14.7453 17.2065 14.29 15.5961 14.1488 14.0338C14.1213 13.7289 13.8219 13.5009 13.4792 13.526C13.1369 13.5506 12.8818 13.8177 12.9094 14.1226C13.024 15.3922 13.3181 16.6555 13.7721 17.8478C12 16.5023 9.68522 15.7793 7.30199 15.8946C7.0798 15.9054 6.881 16.0211 6.78077 16.198C5.8457 17.8476 5.58281 19.7096 5.97063 21.4729C5.97428 21.5263 5.98614 21.5777 6.00554 21.6259C6.12741 22.129 6.30316 22.6231 6.53131 23.1012C3.86993 23.469 1.5066 24.8665 0.0900185 26.9485C-0.0253007 27.1179 -0.0301091 27.3294 0.0772513 27.503C1.07914 29.123 2.65838 30.3677 4.51368 31.0769C4.56318 31.1027 4.61483 31.1223 4.66797 31.1349C5.69257 31.5071 6.79743 31.7174 7.93363 31.7383C7.99589 31.7394 8.05749 31.74 8.11958 31.74C8.56188 31.74 9.00002 31.7102 9.4317 31.6543C9.47233 31.6521 9.5127 31.6475 9.55191 31.6384C11.3794 31.3794 13.0785 30.6316 14.4199 29.5082C14.4503 29.5123 14.4811 29.5151 14.5128 29.5151H17.3028C17.6463 29.5151 17.9246 29.2671 17.9246 28.9611C17.9246 28.6551 17.6463 28.4071 17.3028 28.4071H15.5176C15.6807 28.2101 15.8354 28.0061 15.9793 27.7946C15.9837 27.7881 15.9872 27.7813 15.9913 27.7747C15.995 27.7687 15.9995 27.7633 16.003 27.7571C17.4512 25.2008 17.2873 22.1348 15.5857 19.717H18.3885L20.0813 21.2252C20.2027 21.3333 20.3619 21.3874 20.521 21.3874C20.6801 21.3874 20.8393 21.3333 20.9607 21.2252C21.2035 21.0088 21.2035 20.6581 20.9607 20.4417L20.1473 19.717H21.8349L24.1433 21.7736C24.2648 21.8818 24.4239 21.9358 24.583 21.9358C24.7421 21.9358 24.9013 21.8818 25.0228 21.7736C25.2656 21.5572 25.2656 21.2065 25.0228 20.9902L23.5938 19.717H29.5334C29.5341 19.717 29.5347 19.7172 29.5355 19.7172C29.5361 19.7172 29.5368 19.717 29.5375 19.717H32.2909L30.9334 20.5781C30.6536 20.7555 30.5883 21.1014 30.7875 21.3506C30.9088 21.5025 31.1001 21.5834 31.2945 21.5834C31.4192 21.5834 31.5451 21.55 31.6546 21.4805L34.4348 19.717H37.7364C37.7367 19.717 37.7371 19.717 37.7375 19.717C37.738 19.717 37.7384 19.717 37.7389 19.717H39.0338C39.2953 19.717 39.5416 19.8077 39.726 19.9715C39.911 20.1367 40.0128 20.3562 40.0128 20.5893C40.0128 20.9228 39.9891 21.2514 39.9435 21.574L35.3779 24.507C35.0995 24.686 35.0365 25.0322 35.2373 25.2805C35.3589 25.4306 35.5491 25.5105 35.7421 25.5105C35.8682 25.5105 35.9953 25.4764 36.1053 25.4058L39.4989 23.2257C38.8209 24.9067 37.514 26.3225 35.8321 27.2472L28.898 21.0692C28.6551 20.8529 28.2615 20.8529 28.0187 21.0692C27.7758 21.2856 27.7758 21.6363 28.0187 21.8527L34.6741 27.7824C33.7728 28.1254 32.7945 28.3375 31.7693 28.3923L29.0586 25.9772C28.8159 25.761 28.4221 25.7609 28.1793 25.9773C27.9365 26.1937 27.9365 26.5444 28.1794 26.7607L30.0272 28.407H23.9401L22.9425 27.5182C22.6996 27.3019 22.306 27.3019 22.0632 27.5182C21.8204 27.7346 21.8204 28.0853 22.0632 28.3017L22.1814 28.407H19.8933C19.5499 28.407 19.2716 28.655 19.2716 28.961C19.2716 29.267 19.5499 29.515 19.8933 29.515H23.4244L24.8268 30.7644C24.9482 30.8726 25.1074 30.9266 25.2665 30.9266C25.4256 30.9266 25.5848 30.8726 25.7062 30.7644C25.949 30.548 25.949 30.1973 25.7062 29.981L25.1832 29.515H31.2371C32.8046 29.515 34.289 29.1922 35.6116 28.618L36.1339 29.0834C36.2553 29.1915 36.4145 29.2456 36.5736 29.2456C36.7327 29.2456 36.8918 29.1915 37.0133 29.0834C37.2561 28.8669 37.2561 28.5162 37.0133 28.2999L36.7318 28.049C38.9736 26.7341 40.5903 24.6398 41.0918 22.2021L42.1885 21.4976C42.4669 21.3187 42.5299 20.9725 42.3291 20.7242ZM14.4535 20.1945C14.5232 20.2896 14.5892 20.3862 14.6534 20.4837L13.0795 23.2662L11.2824 20.8161L12.5401 18.3892C13.2829 18.8795 13.9345 19.4869 14.4535 20.1945ZM12.3986 24.3632L8.97076 24.5169C8.7397 24.2795 8.52474 24.0273 8.32908 23.7605C7.9202 23.203 7.60823 22.6036 7.39335 21.9818L10.6175 21.9349L12.3986 24.3632ZM11.4773 17.7969L10.4797 19.7218L8.49696 17.0186C9.54545 17.1016 10.5577 17.3697 11.4773 17.7969ZM7.45561 17.6241L9.81331 20.8384L7.11728 20.8777C6.94666 19.7931 7.05759 18.6771 7.45561 17.6241ZM7.13419 24.1491C7.18418 24.222 7.23533 24.2946 7.28806 24.3666C7.56429 24.7432 7.87328 25.0949 8.20953 25.4207C8.23407 25.4491 8.26168 25.4753 8.29177 25.499C8.8503 26.026 9.48203 26.4817 10.1678 26.8568L6.89642 26.7969L5.35408 24.4985C5.9252 24.3228 6.52186 24.2046 7.13419 24.1491ZM4.20478 24.9449L5.42944 26.7699L1.80422 26.7035C2.47226 25.9766 3.28961 25.3809 4.20478 24.9449ZM4.6038 29.8955C3.50242 29.4091 2.53071 28.6979 1.7796 27.8112L6.08836 27.8902L4.6038 29.8955ZM9.02191 30.5852C8.67147 30.6213 8.31648 30.6369 7.95892 30.6306C7.2117 30.6168 6.48008 30.5081 5.78277 30.3153L7.55816 27.9171L10.8132 27.9767L9.02191 30.5852ZM10.7174 30.2391L12.2529 28.0031L14.1404 28.0377C14.1792 28.0408 14.2182 28.0431 14.257 28.0459C13.3214 29.0579 12.0908 29.8138 10.7174 30.2391ZM14.213 26.9309C12.7703 26.805 11.3988 26.3283 10.2469 25.5691L13.1862 25.4371L14.2828 26.9321L14.213 26.9309ZM15.3273 26.3309L13.8656 24.3381L15.3165 21.7732C15.878 23.2415 15.8873 24.8487 15.3273 26.3309Z" fill="#253D4E"/>
<path d="M36.2271 21.674C36.0261 21.4258 35.6376 21.3698 35.3591 21.5487L33.168 22.9563C32.8895 23.1352 32.8265 23.4814 33.0274 23.7297C33.149 23.8799 33.3392 23.9597 33.5322 23.9597C33.6583 23.9597 33.7854 23.9257 33.8954 23.855L36.0865 22.4473C36.365 22.2684 36.428 21.9222 36.2271 21.674Z" fill="#253D4E"/>
</g>
<path d="M47.9688 30.2727V26.4577H48.552L50.2197 29.2427H49.9145L51.5549 26.4577H52.1381L52.1435 30.2727H51.4732L51.4677 27.5096H51.6094L50.2142 29.8367H49.8981L48.4811 27.5096H48.6446V30.2727H47.9688ZM53.1795 30.2727L54.8962 26.4577H55.5938L57.316 30.2727H56.5748L55.0979 26.8338H55.3813L53.9098 30.2727H53.1795ZM53.9697 29.3898L54.1605 28.8339H56.2206L56.4113 29.3898H53.9697ZM58.3462 30.2727V26.4577H59.9158C60.2537 26.4577 60.5425 26.5122 60.7823 26.6212C61.0258 26.7302 61.2129 26.8865 61.3437 27.0899C61.4745 27.2934 61.5399 27.535 61.5399 27.8148C61.5399 28.0946 61.4745 28.3362 61.3437 28.5396C61.2129 28.7395 61.0258 28.8939 60.7823 29.0029C60.5425 29.1083 60.2537 29.1609 59.9158 29.1609H58.7386L59.0547 28.8394V30.2727H58.3462ZM60.8423 30.2727L59.8776 28.8884H60.6352L61.6053 30.2727H60.8423ZM59.0547 28.9157L58.7386 28.5778H59.8831C60.1956 28.5778 60.4299 28.5106 60.5861 28.3761C60.746 28.2417 60.8259 28.0546 60.8259 27.8148C60.8259 27.5714 60.746 27.3842 60.5861 27.2534C60.4299 27.1226 60.1956 27.0572 59.8831 27.0572H58.7386L59.0547 26.7084V28.9157ZM63.5982 30.2727V27.0572H62.3338V26.4577H65.5712V27.0572H64.3067V30.2727H63.5982ZM69.8 30.3272C69.5347 30.3272 69.2968 30.2836 69.086 30.1964C68.8753 30.1092 68.71 29.9893 68.5901 29.8367C68.4702 29.6841 68.4102 29.5079 68.4102 29.3081C68.4102 29.1264 68.4502 28.9629 68.5301 28.8176C68.6101 28.6723 68.7372 28.5342 68.9116 28.4034C69.086 28.269 69.3095 28.1345 69.582 28.0001C69.7963 27.8947 69.9635 27.8021 70.0834 27.7221C70.2069 27.6422 70.2923 27.5659 70.3395 27.4932C70.3904 27.4206 70.4158 27.3443 70.4158 27.2643C70.4158 27.1553 70.3777 27.0681 70.3014 27.0027C70.2251 26.9337 70.1161 26.8992 69.9744 26.8992C69.8218 26.8992 69.7019 26.9373 69.6147 27.0136C69.5311 27.0863 69.4893 27.1826 69.4893 27.3025C69.4893 27.3643 69.5002 27.4242 69.522 27.4823C69.5475 27.5405 69.5911 27.6059 69.6528 27.6785C69.7146 27.7512 69.8036 27.8439 69.9199 27.9565L71.9364 29.8912L71.5603 30.3327L69.3803 28.2399C69.2568 28.12 69.1569 28.0092 69.0806 27.9074C69.0043 27.8057 68.9498 27.7076 68.9171 27.6131C68.8844 27.515 68.868 27.4151 68.868 27.3134C68.868 27.1354 68.9134 26.9791 69.0043 26.8447C69.0951 26.7066 69.2241 26.6013 69.3912 26.5286C69.5584 26.4523 69.7527 26.4141 69.9744 26.4141C70.1815 26.4141 70.3595 26.4487 70.5085 26.5177C70.6611 26.5831 70.7792 26.6794 70.8627 26.8065C70.9499 26.9301 70.9935 27.079 70.9935 27.2534C70.9935 27.406 70.9554 27.5477 70.8791 27.6785C70.8028 27.8057 70.6829 27.9274 70.5194 28.0437C70.3595 28.16 70.1451 28.2817 69.8763 28.4088C69.6764 28.5069 69.5184 28.5996 69.4021 28.6868C69.2859 28.774 69.2023 28.8612 69.1514 28.9484C69.1006 29.0356 69.0751 29.1319 69.0751 29.2372C69.0751 29.3426 69.106 29.4353 69.1678 29.5152C69.2332 29.5951 69.324 29.6587 69.4403 29.7059C69.5565 29.7495 69.6928 29.7713 69.849 29.7713C70.0816 29.7713 70.2923 29.7205 70.4812 29.6187C70.6738 29.5134 70.8355 29.3571 70.9663 29.15C71.0971 28.9429 71.1915 28.6868 71.2497 28.3816L71.8001 28.5614C71.7238 28.9284 71.5912 29.2445 71.4023 29.5097C71.217 29.7713 70.9881 29.973 70.7156 30.1147C70.4431 30.2564 70.1379 30.3272 69.8 30.3272ZM76.9254 30.3272C76.6275 30.3272 76.3532 30.28 76.1025 30.1855C75.8554 30.0874 75.6392 29.9512 75.4539 29.7768C75.2686 29.5988 75.1251 29.3898 75.0234 29.15C74.9216 28.9102 74.8708 28.6486 74.8708 28.3652C74.8708 28.0818 74.9216 27.8202 75.0234 27.5804C75.1251 27.3406 75.2686 27.1335 75.4539 26.9591C75.6428 26.7811 75.8627 26.6449 76.1134 26.5504C76.3641 26.4523 76.6384 26.4032 76.9363 26.4032C77.2597 26.4032 77.5503 26.4559 77.8083 26.5613C78.0699 26.6667 78.2897 26.8211 78.4678 27.0245L78.0209 27.4605C77.8719 27.3116 77.7102 27.2026 77.5358 27.1335C77.365 27.0609 77.1761 27.0245 76.969 27.0245C76.7692 27.0245 76.5839 27.0572 76.4131 27.1226C76.2423 27.188 76.0952 27.2807 75.9717 27.4006C75.8481 27.5205 75.7518 27.6622 75.6828 27.8257C75.6174 27.9892 75.5847 28.169 75.5847 28.3652C75.5847 28.5578 75.6174 28.7358 75.6828 28.8993C75.7518 29.0628 75.8481 29.2064 75.9717 29.3299C76.0952 29.4498 76.2405 29.5424 76.4077 29.6078C76.5748 29.6732 76.7601 29.7059 76.9636 29.7059C77.1525 29.7059 77.3342 29.6769 77.5086 29.6187C77.6866 29.557 77.8555 29.4552 78.0154 29.3135L78.4187 29.8422C78.2189 30.0021 77.9863 30.1238 77.7211 30.2073C77.4595 30.2873 77.1943 30.3272 76.9254 30.3272ZM77.7484 29.7495V28.3216H78.4187V29.8422L77.7484 29.7495ZM79.8982 30.2727V26.4577H81.4678C81.8057 26.4577 82.0945 26.5122 82.3343 26.6212C82.5778 26.7302 82.7649 26.8865 82.8957 27.0899C83.0265 27.2934 83.0919 27.535 83.0919 27.8148C83.0919 28.0946 83.0265 28.3362 82.8957 28.5396C82.7649 28.7395 82.5778 28.8939 82.3343 29.0029C82.0945 29.1083 81.8057 29.1609 81.4678 29.1609H80.2906L80.6067 28.8394V30.2727H79.8982ZM82.3943 30.2727L81.4296 28.8884H82.1872L83.1573 30.2727H82.3943ZM80.6067 28.9157L80.2906 28.5778H81.4351C81.7475 28.5778 81.9819 28.5106 82.1381 28.3761C82.298 28.2417 82.3779 28.0546 82.3779 27.8148C82.3779 27.5714 82.298 27.3842 82.1381 27.2534C81.9819 27.1226 81.7475 27.0572 81.4351 27.0572H80.2906L80.6067 26.7084V28.9157ZM86.2172 30.3272C85.9192 30.3272 85.6449 30.2782 85.3942 30.1801C85.1435 30.082 84.9255 29.9457 84.7402 29.7713C84.5549 29.5933 84.4114 29.3862 84.3097 29.15C84.2079 28.9102 84.1571 28.6486 84.1571 28.3652C84.1571 28.0818 84.2079 27.8221 84.3097 27.5859C84.4114 27.3461 84.5549 27.139 84.7402 26.9646C84.9255 26.7866 85.1435 26.6485 85.3942 26.5504C85.6449 26.4523 85.9174 26.4032 86.2117 26.4032C86.5096 26.4032 86.7821 26.4523 87.0292 26.5504C87.2799 26.6485 87.4979 26.7866 87.6832 26.9646C87.8685 27.139 88.012 27.3461 88.1138 27.5859C88.2155 27.8221 88.2664 28.0818 88.2664 28.3652C88.2664 28.6486 88.2155 28.9102 88.1138 29.15C88.012 29.3898 87.8685 29.5969 87.6832 29.7713C87.4979 29.9457 87.2799 30.082 87.0292 30.1801C86.7821 30.2782 86.5115 30.3272 86.2172 30.3272ZM86.2117 29.7059C86.4043 29.7059 86.5823 29.6732 86.7458 29.6078C86.9093 29.5424 87.051 29.4498 87.1709 29.3299C87.2908 29.2064 87.3835 29.0647 87.4489 28.9048C87.5179 28.7413 87.5524 28.5614 87.5524 28.3652C87.5524 28.169 87.5179 27.991 87.4489 27.8311C87.3835 27.6676 87.2908 27.5259 87.1709 27.406C87.051 27.2825 86.9093 27.188 86.7458 27.1226C86.5823 27.0572 86.4043 27.0245 86.2117 27.0245C86.0191 27.0245 85.8411 27.0572 85.6776 27.1226C85.5177 27.188 85.376 27.2825 85.2525 27.406C85.1326 27.5259 85.0381 27.6676 84.9691 27.8311C84.9037 27.991 84.871 28.169 84.871 28.3652C84.871 28.5578 84.9037 28.7358 84.9691 28.8993C85.0381 29.0628 85.1326 29.2064 85.2525 29.3299C85.3724 29.4498 85.5141 29.5424 85.6776 29.6078C85.8411 29.6732 86.0191 29.7059 86.2117 29.7059ZM91.3281 30.3272C91.0375 30.3272 90.7668 30.28 90.5161 30.1855C90.269 30.0874 90.0528 29.9512 89.8675 29.7768C89.6859 29.5988 89.5442 29.3898 89.4424 29.15C89.3407 28.9102 89.2898 28.6486 89.2898 28.3652C89.2898 28.0818 89.3407 27.8202 89.4424 27.5804C89.5442 27.3406 89.6877 27.1335 89.873 26.9591C90.0583 26.7811 90.2745 26.6449 90.5215 26.5504C90.7686 26.4523 91.0393 26.4032 91.3336 26.4032C91.6461 26.4032 91.9313 26.4577 92.1892 26.5667C92.4472 26.6721 92.6652 26.8302 92.8432 27.0409L92.3854 27.4714C92.2474 27.3225 92.093 27.2117 91.9222 27.139C91.7514 27.0627 91.5661 27.0245 91.3663 27.0245C91.1665 27.0245 90.983 27.0572 90.8158 27.1226C90.6523 27.188 90.5088 27.2807 90.3853 27.4006C90.2654 27.5205 90.1709 27.6622 90.1019 27.8257C90.0365 27.9892 90.0038 28.169 90.0038 28.3652C90.0038 28.5614 90.0365 28.7413 90.1019 28.9048C90.1709 29.0683 90.2654 29.21 90.3853 29.3299C90.5088 29.4498 90.6523 29.5424 90.8158 29.6078C90.983 29.6732 91.1665 29.7059 91.3663 29.7059C91.5661 29.7059 91.7514 29.6696 91.9222 29.5969C92.093 29.5206 92.2474 29.4062 92.3854 29.2536L92.8432 29.6896C92.6652 29.8967 92.4472 30.0547 92.1892 30.1637C91.9313 30.2727 91.6442 30.3272 91.3281 30.3272ZM94.7211 28.0437H96.6177V28.6268H94.7211V28.0437ZM94.7756 29.6787H96.9284V30.2727H94.0671V26.4577H96.8521V27.0518H94.7756V29.6787ZM98.2632 30.2727V26.4577H99.8328C100.171 26.4577 100.46 26.5122 100.699 26.6212C100.943 26.7302 101.13 26.8865 101.261 27.0899C101.391 27.2934 101.457 27.535 101.457 27.8148C101.457 28.0946 101.391 28.3362 101.261 28.5396C101.13 28.7395 100.943 28.8939 100.699 29.0029C100.46 29.1083 100.171 29.1609 99.8328 29.1609H98.6556L98.9717 28.8394V30.2727H98.2632ZM100.759 30.2727L99.7946 28.8884H100.552L101.522 30.2727H100.759ZM98.9717 28.9157L98.6556 28.5778H99.8001C100.113 28.5778 100.347 28.5106 100.503 28.3761C100.663 28.2417 100.743 28.0546 100.743 27.8148C100.743 27.5714 100.663 27.3842 100.503 27.2534C100.347 27.1226 100.113 27.0572 99.8001 27.0572H98.6556L98.9717 26.7084V28.9157ZM103.679 30.2727V28.7631L103.837 29.1991L102.18 26.4577H102.938L104.267 28.665H103.842L105.183 26.4577H105.881L104.224 29.1991L104.387 28.7631V30.2727H103.679Z" fill="#253D4E"/>
<path d="M56.5452 18.2505C56.9525 18.2505 57.2893 18.3837 57.5557 18.65C57.8377 18.9007 57.9787 19.2297 57.9787 19.637C57.9787 20.0287 57.8377 20.3577 57.5557 20.624C57.2893 20.8747 56.9525 21 56.5452 21H48.9077C48.5003 21 48.1557 20.8668 47.8737 20.6005C47.6073 20.3185 47.4742 19.9738 47.4742 19.5665V5.9835C47.4742 5.57617 47.6152 5.23933 47.8972 4.973C48.1792 4.691 48.5395 4.55 48.9782 4.55C49.3542 4.55 49.6832 4.691 49.9652 4.973C50.2628 5.23933 50.4117 5.57617 50.4117 5.9835V18.65L49.8947 18.2505H56.5452ZM75.5651 12.775C75.5651 13.95 75.3692 15.0467 74.9776 16.065C74.5859 17.0833 74.0297 17.9842 73.3091 18.7675C72.6041 19.5352 71.7581 20.1383 70.7711 20.577C69.7997 21.0157 68.7344 21.235 67.5751 21.235C66.4157 21.235 65.3504 21.0157 64.3791 20.577C63.4077 20.1383 62.5617 19.5352 61.8411 18.7675C61.1361 17.9842 60.5877 17.0833 60.1961 16.065C59.8044 15.0467 59.6086 13.95 59.6086 12.775C59.6086 11.6 59.8044 10.5033 60.1961 9.485C60.5877 8.46667 61.1361 7.57367 61.8411 6.806C62.5617 6.02267 63.4077 5.41167 64.3791 4.973C65.3504 4.53433 66.4157 4.315 67.5751 4.315C68.7344 4.315 69.7997 4.53433 70.7711 4.973C71.7581 5.41167 72.6041 6.02267 73.3091 6.806C74.0297 7.57367 74.5859 8.46667 74.9776 9.485C75.3692 10.5033 75.5651 11.6 75.5651 12.775ZM72.5101 12.775C72.5101 11.7253 72.2986 10.7775 71.8756 9.9315C71.4526 9.06983 70.8729 8.38833 70.1366 7.887C69.4002 7.38567 68.5464 7.135 67.5751 7.135C66.6037 7.135 65.7499 7.38567 65.0136 7.887C64.2772 8.38833 63.6976 9.062 63.2746 9.908C62.8672 10.754 62.6636 11.7097 62.6636 12.775C62.6636 13.8247 62.8672 14.7803 63.2746 15.642C63.6976 16.488 64.2772 17.1617 65.0136 17.663C65.7499 18.1643 66.6037 18.415 67.5751 18.415C68.5464 18.415 69.4002 18.1643 70.1366 17.663C70.8729 17.1617 71.4526 16.488 71.8756 15.642C72.2986 14.7803 72.5101 13.8247 72.5101 12.775ZM86.0082 21.235C84.8176 21.235 83.7052 21.0157 82.6712 20.577C81.6372 20.1383 80.7286 19.5352 79.9452 18.7675C79.1619 17.9842 78.5431 17.0833 78.0887 16.065C77.6501 15.0467 77.4307 13.95 77.4307 12.775C77.4307 11.6 77.6501 10.5033 78.0887 9.485C78.5431 8.46667 79.1619 7.57367 79.9452 6.806C80.7286 6.02267 81.6372 5.41167 82.6712 4.973C83.7052 4.53433 84.8176 4.315 86.0082 4.315C86.7446 4.315 87.4574 4.39333 88.1467 4.55C88.8361 4.70667 89.4706 4.94167 90.0502 5.255C90.2852 5.38033 90.4576 5.55267 90.5672 5.772C90.6926 5.97567 90.7552 6.18717 90.7552 6.4065C90.7552 6.7825 90.6299 7.11933 90.3792 7.417C90.1286 7.71467 89.8074 7.8635 89.4157 7.8635C89.2904 7.8635 89.1572 7.84783 89.0162 7.8165C88.8909 7.78517 88.7656 7.73817 88.6402 7.6755C88.2486 7.50317 87.8334 7.37 87.3947 7.276C86.9561 7.182 86.4939 7.135 86.0082 7.135C84.9899 7.135 84.0577 7.3935 83.2117 7.9105C82.3814 8.41183 81.7156 9.09333 81.2142 9.955C80.7286 10.801 80.4857 11.741 80.4857 12.775C80.4857 13.7933 80.7286 14.7333 81.2142 15.595C81.7156 16.4567 82.3814 17.146 83.2117 17.663C84.0577 18.1643 84.9899 18.415 86.0082 18.415C86.4782 18.415 86.9952 18.368 87.5592 18.274C88.1232 18.18 88.5854 18.0547 88.9457 17.898L88.7342 18.603V14.5845L89.1337 14.937H86.5252C86.1179 14.937 85.7732 14.8038 85.4912 14.5375C85.2249 14.2712 85.0917 13.9343 85.0917 13.527C85.0917 13.1197 85.2249 12.7828 85.4912 12.5165C85.7732 12.2502 86.1179 12.117 86.5252 12.117H90.3792C90.7866 12.117 91.1234 12.258 91.3897 12.54C91.6561 12.8063 91.7892 13.1432 91.7892 13.5505V18.5325C91.7892 18.8458 91.7109 19.1043 91.5542 19.308C91.4132 19.5117 91.2487 19.6762 91.0607 19.8015C90.3401 20.2402 89.5489 20.5927 88.6872 20.859C87.8412 21.1097 86.9482 21.235 86.0082 21.235ZM109.741 12.775C109.741 13.95 109.545 15.0467 109.153 16.065C108.761 17.0833 108.205 17.9842 107.485 18.7675C106.78 19.5352 105.934 20.1383 104.947 20.577C103.975 21.0157 102.91 21.235 101.751 21.235C100.591 21.235 99.5259 21.0157 98.5546 20.577C97.5833 20.1383 96.7373 19.5352 96.0166 18.7675C95.3116 17.9842 94.7633 17.0833 94.3716 16.065C93.9799 15.0467 93.7841 13.95 93.7841 12.775C93.7841 11.6 93.9799 10.5033 94.3716 9.485C94.7633 8.46667 95.3116 7.57367 96.0166 6.806C96.7373 6.02267 97.5833 5.41167 98.5546 4.973C99.5259 4.53433 100.591 4.315 101.751 4.315C102.91 4.315 103.975 4.53433 104.947 4.973C105.934 5.41167 106.78 6.02267 107.485 6.806C108.205 7.57367 108.761 8.46667 109.153 9.485C109.545 10.5033 109.741 11.6 109.741 12.775ZM106.686 12.775C106.686 11.7253 106.474 10.7775 106.051 9.9315C105.628 9.06983 105.048 8.38833 104.312 7.887C103.576 7.38567 102.722 7.135 101.751 7.135C100.779 7.135 99.9254 7.38567 99.1891 7.887C98.4528 8.38833 97.8731 9.062 97.4501 9.908C97.0428 10.754 96.8391 11.7097 96.8391 12.775C96.8391 13.8247 97.0428 14.7803 97.4501 15.642C97.8731 16.488 98.4528 17.1617 99.1891 17.663C99.9254 18.1643 100.779 18.415 101.751 18.415C102.722 18.415 103.576 18.1643 104.312 17.663C105.048 17.1617 105.628 16.488 106.051 15.642C106.474 14.7803 106.686 13.8247 106.686 12.775Z" fill="#3BB77E"/>
<defs>
<clipPath id="clip0_802_696">
<rect width="42.4466" height="29.0909" fill="white" transform="translate(0 2.90909)"/>
</clipPath>
</defs>
</svg>
