<svg width="343" height="64" viewBox="0 0 343 64" fill="none" xmlns="http://www.w3.org/2000/svg">
<g clip-path="url(#clip0_802_731)">
<ellipse opacity="0.8" cx="7.34871" cy="9.40785" rx="7.34871" ry="9.40785" transform="matrix(0.995769 0.091889 -0.115471 0.993311 26.6611 18.9091)" fill="#FDC040"/>
<ellipse cx="7.27715" cy="9.52144" rx="7.27715" ry="9.52144" transform="matrix(0.956716 -0.291024 0.35783 0.933787 11.9722 25.0841)" fill="#FDC040"/>
<path d="M14.6929 34.9091H40.8524C41.0612 34.9899 41.5413 35.297 41.7919 35.8788C42.105 36.6061 42.9905 47.2727 28.0254 45.0909C16.2505 45.0909 13.5029 44.7677 13.6073 44.6061C15.7812 44.1212 16.0533 42.1818 16.3254 40.7273C16.5975 39.2727 14.6929 34.9091 14.6929 34.9091Z" fill="#81B13D"/>
<path d="M34.3474 24.9369C34.0039 24.9369 33.7256 25.1849 33.7256 25.4909V25.5794C33.7256 25.8854 34.0039 26.1333 34.3474 26.1333C34.6908 26.1333 34.9691 25.8854 34.9691 25.5794V25.4909C34.9691 25.1849 34.6908 24.9369 34.3474 24.9369Z" fill="#253D4E"/>
<path d="M35.9624 27.4084C35.6189 27.4084 35.3406 27.6563 35.3406 27.9623V28.0508C35.3406 28.3568 35.6189 28.6048 35.9624 28.6048C36.3058 28.6048 36.5841 28.3568 36.5841 28.0508V27.9623C36.5841 27.6563 36.3058 27.4084 35.9624 27.4084Z" fill="#253D4E"/>
<path d="M22.348 26.8882L22.302 26.8096C22.1431 26.5383 21.7673 26.4332 21.4631 26.5749C21.1587 26.7165 21.0407 27.0511 21.1996 27.3223L21.2456 27.4008C21.3565 27.5902 21.5731 27.6987 21.7973 27.6987C21.8943 27.6987 21.9926 27.6784 22.0845 27.6356C22.389 27.494 22.5069 27.1594 22.348 26.8882Z" fill="#253D4E"/>
<path d="M25.0633 28.4129L25.0173 28.3344C24.8584 28.0631 24.4827 27.958 24.1784 28.0997C23.874 28.2413 23.756 28.5759 23.915 28.8471L23.961 28.9256C24.0718 29.115 24.2884 29.2234 24.5126 29.2234C24.6096 29.2234 24.7079 29.2032 24.7999 29.1604C25.1043 29.0188 25.2223 28.6842 25.0633 28.4129Z" fill="#253D4E"/>
<path d="M21.1946 39.4346L19.3452 37.7868C19.1023 37.5704 18.7085 37.5704 18.4659 37.7867C18.223 38.0031 18.223 38.3538 18.4658 38.5701L20.3152 40.2179C20.4367 40.3262 20.5957 40.3802 20.7549 40.3802C20.9139 40.3802 21.0731 40.3262 21.1945 40.218C21.4374 40.0017 21.4374 39.6509 21.1946 39.4346Z" fill="#253D4E"/>
<path d="M26.6897 38.4022C26.4906 38.153 26.1026 38.0946 25.8226 38.2722L19.3681 42.3664C19.0884 42.5438 19.0231 42.8897 19.2222 43.1389C19.3435 43.2908 19.5348 43.3716 19.7293 43.3716C19.8539 43.3716 19.98 43.3383 20.0893 43.2689L26.5438 39.1748C26.8235 38.9973 26.8888 38.6514 26.6897 38.4022Z" fill="#253D4E"/>
<path d="M28.9716 39.2378C28.7726 38.9886 28.3844 38.9303 28.1045 39.1078L25.6269 40.6794C25.3471 40.8569 25.2819 41.2028 25.481 41.452C25.6023 41.6039 25.7937 41.6847 25.9881 41.6847C26.1128 41.6847 26.2387 41.6514 26.3481 41.5819L28.8257 40.0104C29.1055 39.833 29.1707 39.4871 28.9716 39.2378Z" fill="#253D4E"/>
<path d="M42.3291 36.7242C42.1281 36.4761 41.7396 36.4201 41.461 36.5989L41.2539 36.7319C41.2547 36.6844 41.256 36.637 41.256 36.5894C41.256 36.0609 41.0252 35.5636 40.6049 35.1881C40.1846 34.8146 39.6264 34.609 39.0333 34.609H38.8493C39.5317 33.4343 39.8781 32.0198 39.8781 30.3869C39.8781 27.1845 38.5308 23.6841 36.4457 21.4693C36.2249 21.2349 35.8328 21.2041 35.5697 21.4009C35.3066 21.5975 35.2722 21.947 35.4929 22.1814C37.4015 24.2085 38.6347 27.4294 38.6347 30.3869C38.6347 32.0913 38.2234 33.51 37.4124 34.609H36.1814L36.7284 34.2621C37.0082 34.0846 37.0734 33.7387 36.8743 33.4895C36.6752 33.2403 36.2871 33.1819 36.0072 33.3595L34.0374 34.609H30.3389C30.7116 32.9269 30.3234 31.0476 29.197 29.1253C28.3906 27.7496 27.2455 26.4185 25.9282 25.2907C27.285 22.2331 29.5304 20.2772 31.7182 20.2772C32.379 20.2772 33.0449 20.4484 33.6972 20.7864C33.9941 20.9401 34.3747 20.8503 34.5473 20.5859C34.7199 20.3214 34.6191 19.9823 34.3222 19.8285C33.4775 19.391 32.6014 19.1692 31.7182 19.1692C29.0714 19.1692 26.5262 21.1956 24.9437 24.5099C24.4046 24.1147 23.846 23.7554 23.277 23.4423C20.5984 21.9684 18.0621 21.6504 16.1353 22.5466C14.3581 23.374 13.2197 25.2089 12.9297 27.7131C12.8944 28.0174 13.1428 28.2896 13.4844 28.3209C13.8268 28.3529 14.1315 28.131 14.1666 27.8268C14.4124 25.7046 15.316 24.1781 16.7109 23.5286C20.107 21.9489 25.7156 25.5793 28.0946 29.6381C29.1527 31.4439 29.4783 33.1138 29.0663 34.6091H22.095C22.0933 34.6091 22.0916 34.6091 22.0899 34.6091H18.9037L17.8602 33.6793C17.6173 33.4631 17.2237 33.4631 16.9808 33.6793C16.738 33.8958 16.738 34.2465 16.9808 34.4628L17.1449 34.609H15.4379C14.7453 33.2065 14.29 31.5961 14.1488 30.0338C14.1213 29.7289 13.8219 29.5009 13.4792 29.526C13.1369 29.5506 12.8818 29.8177 12.9094 30.1226C13.024 31.3922 13.3181 32.6555 13.7721 33.8478C12 32.5023 9.68522 31.7793 7.30199 31.8946C7.0798 31.9054 6.881 32.0211 6.78077 32.198C5.8457 33.8476 5.58281 35.7096 5.97063 37.4729C5.97428 37.5263 5.98614 37.5777 6.00554 37.6259C6.12741 38.129 6.30316 38.6231 6.53131 39.1012C3.86993 39.469 1.5066 40.8665 0.0900185 42.9485C-0.0253007 43.1179 -0.0301091 43.3294 0.0772513 43.503C1.07914 45.123 2.65838 46.3677 4.51368 47.0769C4.56318 47.1027 4.61483 47.1223 4.66797 47.1349C5.69257 47.5071 6.79743 47.7174 7.93363 47.7383C7.99589 47.7394 8.05749 47.74 8.11958 47.74C8.56188 47.74 9.00002 47.7102 9.4317 47.6543C9.47233 47.6521 9.5127 47.6475 9.55191 47.6384C11.3794 47.3794 13.0785 46.6316 14.4199 45.5082C14.4503 45.5123 14.4811 45.5151 14.5128 45.5151H17.3028C17.6463 45.5151 17.9246 45.2671 17.9246 44.9611C17.9246 44.6551 17.6463 44.4071 17.3028 44.4071H15.5176C15.6807 44.2101 15.8354 44.0061 15.9793 43.7946C15.9837 43.7881 15.9872 43.7813 15.9913 43.7747C15.995 43.7687 15.9995 43.7633 16.003 43.7571C17.4512 41.2008 17.2873 38.1348 15.5857 35.717H18.3885L20.0813 37.2252C20.2027 37.3333 20.3619 37.3874 20.521 37.3874C20.6801 37.3874 20.8393 37.3333 20.9607 37.2252C21.2035 37.0088 21.2035 36.6581 20.9607 36.4417L20.1473 35.717H21.8349L24.1433 37.7736C24.2648 37.8818 24.4239 37.9358 24.583 37.9358C24.7421 37.9358 24.9013 37.8818 25.0228 37.7736C25.2656 37.5572 25.2656 37.2065 25.0228 36.9902L23.5938 35.717H29.5334C29.5341 35.717 29.5347 35.7172 29.5355 35.7172C29.5361 35.7172 29.5368 35.717 29.5375 35.717H32.2909L30.9334 36.5781C30.6536 36.7555 30.5883 37.1014 30.7875 37.3506C30.9088 37.5025 31.1001 37.5834 31.2945 37.5834C31.4192 37.5834 31.5451 37.55 31.6546 37.4805L34.4348 35.717H37.7364C37.7367 35.717 37.7371 35.717 37.7375 35.717C37.738 35.717 37.7384 35.717 37.7389 35.717H39.0338C39.2953 35.717 39.5416 35.8077 39.726 35.9715C39.911 36.1367 40.0128 36.3562 40.0128 36.5893C40.0128 36.9228 39.9891 37.2514 39.9435 37.574L35.3779 40.507C35.0995 40.686 35.0365 41.0322 35.2373 41.2805C35.3589 41.4306 35.5491 41.5105 35.7421 41.5105C35.8682 41.5105 35.9953 41.4764 36.1053 41.4058L39.4989 39.2257C38.8209 40.9067 37.514 42.3225 35.8321 43.2472L28.898 37.0692C28.6551 36.8529 28.2615 36.8529 28.0187 37.0692C27.7758 37.2856 27.7758 37.6363 28.0187 37.8527L34.6741 43.7824C33.7728 44.1254 32.7945 44.3375 31.7693 44.3923L29.0586 41.9772C28.8159 41.761 28.4221 41.7609 28.1793 41.9773C27.9365 42.1937 27.9365 42.5444 28.1794 42.7607L30.0272 44.407H23.9401L22.9425 43.5182C22.6996 43.3019 22.306 43.3019 22.0632 43.5182C21.8204 43.7346 21.8204 44.0853 22.0632 44.3017L22.1814 44.407H19.8933C19.5499 44.407 19.2716 44.655 19.2716 44.961C19.2716 45.267 19.5499 45.515 19.8933 45.515H23.4244L24.8268 46.7644C24.9482 46.8726 25.1074 46.9266 25.2665 46.9266C25.4256 46.9266 25.5848 46.8726 25.7062 46.7644C25.949 46.548 25.949 46.1973 25.7062 45.981L25.1832 45.515H31.2371C32.8046 45.515 34.289 45.1922 35.6116 44.618L36.1339 45.0834C36.2553 45.1915 36.4145 45.2456 36.5736 45.2456C36.7327 45.2456 36.8918 45.1915 37.0133 45.0834C37.2561 44.8669 37.2561 44.5162 37.0133 44.2999L36.7318 44.049C38.9736 42.7341 40.5903 40.6398 41.0918 38.2021L42.1885 37.4976C42.4669 37.3187 42.5299 36.9725 42.3291 36.7242ZM14.4535 36.1945C14.5232 36.2896 14.5892 36.3862 14.6534 36.4837L13.0795 39.2662L11.2824 36.8161L12.5401 34.3892C13.2829 34.8795 13.9345 35.4869 14.4535 36.1945ZM12.3986 40.3632L8.97076 40.5169C8.7397 40.2795 8.52474 40.0273 8.32908 39.7605C7.9202 39.203 7.60823 38.6036 7.39335 37.9818L10.6175 37.9349L12.3986 40.3632ZM11.4773 33.7969L10.4797 35.7218L8.49696 33.0186C9.54545 33.1016 10.5577 33.3697 11.4773 33.7969ZM7.45561 33.6241L9.81331 36.8384L7.11728 36.8777C6.94666 35.7931 7.05759 34.6771 7.45561 33.6241ZM7.13419 40.1491C7.18418 40.222 7.23533 40.2946 7.28806 40.3666C7.56429 40.7432 7.87328 41.0949 8.20953 41.4207C8.23407 41.4491 8.26168 41.4753 8.29177 41.499C8.8503 42.026 9.48203 42.4817 10.1678 42.8568L6.89642 42.7969L5.35408 40.4985C5.9252 40.3228 6.52186 40.2046 7.13419 40.1491ZM4.20478 40.9449L5.42944 42.7699L1.80422 42.7035C2.47226 41.9766 3.28961 41.3809 4.20478 40.9449ZM4.6038 45.8955C3.50242 45.4091 2.53071 44.6979 1.7796 43.8112L6.08836 43.8902L4.6038 45.8955ZM9.02191 46.5852C8.67147 46.6213 8.31648 46.6369 7.95892 46.6306C7.2117 46.6168 6.48008 46.5081 5.78277 46.3153L7.55816 43.9171L10.8132 43.9767L9.02191 46.5852ZM10.7174 46.2391L12.2529 44.0031L14.1404 44.0377C14.1792 44.0408 14.2182 44.0431 14.257 44.0459C13.3214 45.0579 12.0908 45.8138 10.7174 46.2391ZM14.213 42.9309C12.7703 42.805 11.3988 42.3283 10.2469 41.5691L13.1862 41.4371L14.2828 42.9321L14.213 42.9309ZM15.3273 42.3309L13.8656 40.3381L15.3165 37.7732C15.878 39.2415 15.8873 40.8487 15.3273 42.3309Z" fill="#253D4E"/>
<path d="M36.2271 37.674C36.0261 37.4258 35.6376 37.3698 35.3591 37.5487L33.168 38.9563C32.8895 39.1352 32.8265 39.4814 33.0274 39.7297C33.149 39.8799 33.3392 39.9597 33.5322 39.9597C33.6583 39.9597 33.7854 39.9257 33.8954 39.855L36.0865 38.4473C36.365 38.2684 36.428 37.9222 36.2271 37.674Z" fill="#253D4E"/>
</g>
<path d="M47.9688 46.2727V42.4577H48.552L50.2197 45.2427H49.9145L51.5549 42.4577H52.1381L52.1435 46.2727H51.4732L51.4677 43.5096H51.6094L50.2142 45.8367H49.8981L48.4811 43.5096H48.6446V46.2727H47.9688ZM53.1795 46.2727L54.8962 42.4577H55.5938L57.316 46.2727H56.5748L55.0979 42.8338H55.3813L53.9098 46.2727H53.1795ZM53.9697 45.3898L54.1605 44.8339H56.2206L56.4113 45.3898H53.9697ZM58.3462 46.2727V42.4577H59.9158C60.2537 42.4577 60.5425 42.5122 60.7823 42.6212C61.0258 42.7302 61.2129 42.8865 61.3437 43.0899C61.4745 43.2934 61.5399 43.535 61.5399 43.8148C61.5399 44.0946 61.4745 44.3362 61.3437 44.5396C61.2129 44.7395 61.0258 44.8939 60.7823 45.0029C60.5425 45.1083 60.2537 45.1609 59.9158 45.1609H58.7386L59.0547 44.8394V46.2727H58.3462ZM60.8423 46.2727L59.8776 44.8884H60.6352L61.6053 46.2727H60.8423ZM59.0547 44.9157L58.7386 44.5778H59.8831C60.1956 44.5778 60.4299 44.5106 60.5861 44.3761C60.746 44.2417 60.8259 44.0546 60.8259 43.8148C60.8259 43.5714 60.746 43.3842 60.5861 43.2534C60.4299 43.1226 60.1956 43.0572 59.8831 43.0572H58.7386L59.0547 42.7084V44.9157ZM63.5982 46.2727V43.0572H62.3338V42.4577H65.5712V43.0572H64.3067V46.2727H63.5982ZM69.8 46.3272C69.5347 46.3272 69.2968 46.2836 69.086 46.1964C68.8753 46.1092 68.71 45.9893 68.5901 45.8367C68.4702 45.6841 68.4102 45.5079 68.4102 45.3081C68.4102 45.1264 68.4502 44.9629 68.5301 44.8176C68.6101 44.6723 68.7372 44.5342 68.9116 44.4034C69.086 44.269 69.3095 44.1345 69.582 44.0001C69.7963 43.8947 69.9635 43.8021 70.0834 43.7221C70.2069 43.6422 70.2923 43.5659 70.3395 43.4932C70.3904 43.4206 70.4158 43.3443 70.4158 43.2643C70.4158 43.1553 70.3777 43.0681 70.3014 43.0027C70.2251 42.9337 70.1161 42.8992 69.9744 42.8992C69.8218 42.8992 69.7019 42.9373 69.6147 43.0136C69.5311 43.0863 69.4893 43.1826 69.4893 43.3025C69.4893 43.3643 69.5002 43.4242 69.522 43.4823C69.5475 43.5405 69.5911 43.6059 69.6528 43.6785C69.7146 43.7512 69.8036 43.8439 69.9199 43.9565L71.9364 45.8912L71.5603 46.3327L69.3803 44.2399C69.2568 44.12 69.1569 44.0092 69.0806 43.9074C69.0043 43.8057 68.9498 43.7076 68.9171 43.6131C68.8844 43.515 68.868 43.4151 68.868 43.3134C68.868 43.1354 68.9134 42.9791 69.0043 42.8447C69.0951 42.7066 69.2241 42.6013 69.3912 42.5286C69.5584 42.4523 69.7527 42.4141 69.9744 42.4141C70.1815 42.4141 70.3595 42.4487 70.5085 42.5177C70.6611 42.5831 70.7792 42.6794 70.8627 42.8065C70.9499 42.9301 70.9935 43.079 70.9935 43.2534C70.9935 43.406 70.9554 43.5477 70.8791 43.6785C70.8028 43.8057 70.6829 43.9274 70.5194 44.0437C70.3595 44.16 70.1451 44.2817 69.8763 44.4088C69.6764 44.5069 69.5184 44.5996 69.4021 44.6868C69.2859 44.774 69.2023 44.8612 69.1514 44.9484C69.1006 45.0356 69.0751 45.1319 69.0751 45.2372C69.0751 45.3426 69.106 45.4353 69.1678 45.5152C69.2332 45.5951 69.324 45.6587 69.4403 45.7059C69.5565 45.7495 69.6928 45.7713 69.849 45.7713C70.0816 45.7713 70.2923 45.7205 70.4812 45.6187C70.6738 45.5134 70.8355 45.3571 70.9663 45.15C71.0971 44.9429 71.1915 44.6868 71.2497 44.3816L71.8001 44.5614C71.7238 44.9284 71.5912 45.2445 71.4023 45.5097C71.217 45.7713 70.9881 45.973 70.7156 46.1147C70.4431 46.2564 70.1379 46.3272 69.8 46.3272ZM76.9254 46.3272C76.6275 46.3272 76.3532 46.28 76.1025 46.1855C75.8554 46.0874 75.6392 45.9512 75.4539 45.7768C75.2686 45.5988 75.1251 45.3898 75.0234 45.15C74.9216 44.9102 74.8708 44.6486 74.8708 44.3652C74.8708 44.0818 74.9216 43.8202 75.0234 43.5804C75.1251 43.3406 75.2686 43.1335 75.4539 42.9591C75.6428 42.7811 75.8627 42.6449 76.1134 42.5504C76.3641 42.4523 76.6384 42.4032 76.9363 42.4032C77.2597 42.4032 77.5503 42.4559 77.8083 42.5613C78.0699 42.6667 78.2897 42.8211 78.4678 43.0245L78.0209 43.4605C77.8719 43.3116 77.7102 43.2026 77.5358 43.1335C77.365 43.0609 77.1761 43.0245 76.969 43.0245C76.7692 43.0245 76.5839 43.0572 76.4131 43.1226C76.2423 43.188 76.0952 43.2807 75.9717 43.4006C75.8481 43.5205 75.7518 43.6622 75.6828 43.8257C75.6174 43.9892 75.5847 44.169 75.5847 44.3652C75.5847 44.5578 75.6174 44.7358 75.6828 44.8993C75.7518 45.0628 75.8481 45.2064 75.9717 45.3299C76.0952 45.4498 76.2405 45.5424 76.4077 45.6078C76.5748 45.6732 76.7601 45.7059 76.9636 45.7059C77.1525 45.7059 77.3342 45.6769 77.5086 45.6187C77.6866 45.557 77.8555 45.4552 78.0154 45.3135L78.4187 45.8422C78.2189 46.0021 77.9863 46.1238 77.7211 46.2073C77.4595 46.2873 77.1943 46.3272 76.9254 46.3272ZM77.7484 45.7495V44.3216H78.4187V45.8422L77.7484 45.7495ZM79.8982 46.2727V42.4577H81.4678C81.8057 42.4577 82.0945 42.5122 82.3343 42.6212C82.5778 42.7302 82.7649 42.8865 82.8957 43.0899C83.0265 43.2934 83.0919 43.535 83.0919 43.8148C83.0919 44.0946 83.0265 44.3362 82.8957 44.5396C82.7649 44.7395 82.5778 44.8939 82.3343 45.0029C82.0945 45.1083 81.8057 45.1609 81.4678 45.1609H80.2906L80.6067 44.8394V46.2727H79.8982ZM82.3943 46.2727L81.4296 44.8884H82.1872L83.1573 46.2727H82.3943ZM80.6067 44.9157L80.2906 44.5778H81.4351C81.7475 44.5778 81.9819 44.5106 82.1381 44.3761C82.298 44.2417 82.3779 44.0546 82.3779 43.8148C82.3779 43.5714 82.298 43.3842 82.1381 43.2534C81.9819 43.1226 81.7475 43.0572 81.4351 43.0572H80.2906L80.6067 42.7084V44.9157ZM86.2172 46.3272C85.9192 46.3272 85.6449 46.2782 85.3942 46.1801C85.1435 46.082 84.9255 45.9457 84.7402 45.7713C84.5549 45.5933 84.4114 45.3862 84.3097 45.15C84.2079 44.9102 84.1571 44.6486 84.1571 44.3652C84.1571 44.0818 84.2079 43.8221 84.3097 43.5859C84.4114 43.3461 84.5549 43.139 84.7402 42.9646C84.9255 42.7866 85.1435 42.6485 85.3942 42.5504C85.6449 42.4523 85.9174 42.4032 86.2117 42.4032C86.5096 42.4032 86.7821 42.4523 87.0292 42.5504C87.2799 42.6485 87.4979 42.7866 87.6832 42.9646C87.8685 43.139 88.012 43.3461 88.1138 43.5859C88.2155 43.8221 88.2664 44.0818 88.2664 44.3652C88.2664 44.6486 88.2155 44.9102 88.1138 45.15C88.012 45.3898 87.8685 45.5969 87.6832 45.7713C87.4979 45.9457 87.2799 46.082 87.0292 46.1801C86.7821 46.2782 86.5115 46.3272 86.2172 46.3272ZM86.2117 45.7059C86.4043 45.7059 86.5823 45.6732 86.7458 45.6078C86.9093 45.5424 87.051 45.4498 87.1709 45.3299C87.2908 45.2064 87.3835 45.0647 87.4489 44.9048C87.5179 44.7413 87.5524 44.5614 87.5524 44.3652C87.5524 44.169 87.5179 43.991 87.4489 43.8311C87.3835 43.6676 87.2908 43.5259 87.1709 43.406C87.051 43.2825 86.9093 43.188 86.7458 43.1226C86.5823 43.0572 86.4043 43.0245 86.2117 43.0245C86.0191 43.0245 85.8411 43.0572 85.6776 43.1226C85.5177 43.188 85.376 43.2825 85.2525 43.406C85.1326 43.5259 85.0381 43.6676 84.9691 43.8311C84.9037 43.991 84.871 44.169 84.871 44.3652C84.871 44.5578 84.9037 44.7358 84.9691 44.8993C85.0381 45.0628 85.1326 45.2064 85.2525 45.3299C85.3724 45.4498 85.5141 45.5424 85.6776 45.6078C85.8411 45.6732 86.0191 45.7059 86.2117 45.7059ZM91.3281 46.3272C91.0375 46.3272 90.7668 46.28 90.5161 46.1855C90.269 46.0874 90.0528 45.9512 89.8675 45.7768C89.6859 45.5988 89.5442 45.3898 89.4424 45.15C89.3407 44.9102 89.2898 44.6486 89.2898 44.3652C89.2898 44.0818 89.3407 43.8202 89.4424 43.5804C89.5442 43.3406 89.6877 43.1335 89.873 42.9591C90.0583 42.7811 90.2745 42.6449 90.5215 42.5504C90.7686 42.4523 91.0393 42.4032 91.3336 42.4032C91.6461 42.4032 91.9313 42.4577 92.1892 42.5667C92.4472 42.6721 92.6652 42.8302 92.8432 43.0409L92.3854 43.4714C92.2474 43.3225 92.093 43.2117 91.9222 43.139C91.7514 43.0627 91.5661 43.0245 91.3663 43.0245C91.1665 43.0245 90.983 43.0572 90.8158 43.1226C90.6523 43.188 90.5088 43.2807 90.3853 43.4006C90.2654 43.5205 90.1709 43.6622 90.1019 43.8257C90.0365 43.9892 90.0038 44.169 90.0038 44.3652C90.0038 44.5614 90.0365 44.7413 90.1019 44.9048C90.1709 45.0683 90.2654 45.21 90.3853 45.3299C90.5088 45.4498 90.6523 45.5424 90.8158 45.6078C90.983 45.6732 91.1665 45.7059 91.3663 45.7059C91.5661 45.7059 91.7514 45.6696 91.9222 45.5969C92.093 45.5206 92.2474 45.4062 92.3854 45.2536L92.8432 45.6896C92.6652 45.8967 92.4472 46.0547 92.1892 46.1637C91.9313 46.2727 91.6442 46.3272 91.3281 46.3272ZM94.7211 44.0437H96.6177V44.6268H94.7211V44.0437ZM94.7756 45.6787H96.9284V46.2727H94.0671V42.4577H96.8521V43.0518H94.7756V45.6787ZM98.2632 46.2727V42.4577H99.8328C100.171 42.4577 100.46 42.5122 100.699 42.6212C100.943 42.7302 101.13 42.8865 101.261 43.0899C101.391 43.2934 101.457 43.535 101.457 43.8148C101.457 44.0946 101.391 44.3362 101.261 44.5396C101.13 44.7395 100.943 44.8939 100.699 45.0029C100.46 45.1083 100.171 45.1609 99.8328 45.1609H98.6556L98.9717 44.8394V46.2727H98.2632ZM100.759 46.2727L99.7946 44.8884H100.552L101.522 46.2727H100.759ZM98.9717 44.9157L98.6556 44.5778H99.8001C100.113 44.5778 100.347 44.5106 100.503 44.3761C100.663 44.2417 100.743 44.0546 100.743 43.8148C100.743 43.5714 100.663 43.3842 100.503 43.2534C100.347 43.1226 100.113 43.0572 99.8001 43.0572H98.6556L98.9717 42.7084V44.9157ZM103.679 46.2727V44.7631L103.837 45.1991L102.18 42.4577H102.938L104.267 44.665H103.842L105.183 42.4577H105.881L104.224 45.1991L104.387 44.7631V46.2727H103.679Z" fill="#253D4E"/>
<path d="M56.5452 34.2505C56.9525 34.2505 57.2893 34.3837 57.5557 34.65C57.8377 34.9007 57.9787 35.2297 57.9787 35.637C57.9787 36.0287 57.8377 36.3577 57.5557 36.624C57.2893 36.8747 56.9525 37 56.5452 37H48.9077C48.5003 37 48.1557 36.8668 47.8737 36.6005C47.6073 36.3185 47.4742 35.9738 47.4742 35.5665V21.9835C47.4742 21.5762 47.6152 21.2393 47.8972 20.973C48.1792 20.691 48.5395 20.55 48.9782 20.55C49.3542 20.55 49.6832 20.691 49.9652 20.973C50.2628 21.2393 50.4117 21.5762 50.4117 21.9835V34.65L49.8947 34.2505H56.5452ZM75.5651 28.775C75.5651 29.95 75.3692 31.0467 74.9776 32.065C74.5859 33.0833 74.0297 33.9842 73.3091 34.7675C72.6041 35.5352 71.7581 36.1383 70.7711 36.577C69.7997 37.0157 68.7344 37.235 67.5751 37.235C66.4157 37.235 65.3504 37.0157 64.3791 36.577C63.4077 36.1383 62.5617 35.5352 61.8411 34.7675C61.1361 33.9842 60.5877 33.0833 60.1961 32.065C59.8044 31.0467 59.6086 29.95 59.6086 28.775C59.6086 27.6 59.8044 26.5033 60.1961 25.485C60.5877 24.4667 61.1361 23.5737 61.8411 22.806C62.5617 22.0227 63.4077 21.4117 64.3791 20.973C65.3504 20.5343 66.4157 20.315 67.5751 20.315C68.7344 20.315 69.7997 20.5343 70.7711 20.973C71.7581 21.4117 72.6041 22.0227 73.3091 22.806C74.0297 23.5737 74.5859 24.4667 74.9776 25.485C75.3692 26.5033 75.5651 27.6 75.5651 28.775ZM72.5101 28.775C72.5101 27.7253 72.2986 26.7775 71.8756 25.9315C71.4526 25.0698 70.8729 24.3883 70.1366 23.887C69.4002 23.3857 68.5464 23.135 67.5751 23.135C66.6037 23.135 65.7499 23.3857 65.0136 23.887C64.2772 24.3883 63.6976 25.062 63.2746 25.908C62.8672 26.754 62.6636 27.7097 62.6636 28.775C62.6636 29.8247 62.8672 30.7803 63.2746 31.642C63.6976 32.488 64.2772 33.1617 65.0136 33.663C65.7499 34.1643 66.6037 34.415 67.5751 34.415C68.5464 34.415 69.4002 34.1643 70.1366 33.663C70.8729 33.1617 71.4526 32.488 71.8756 31.642C72.2986 30.7803 72.5101 29.8247 72.5101 28.775ZM86.0082 37.235C84.8176 37.235 83.7052 37.0157 82.6712 36.577C81.6372 36.1383 80.7286 35.5352 79.9452 34.7675C79.1619 33.9842 78.5431 33.0833 78.0887 32.065C77.6501 31.0467 77.4307 29.95 77.4307 28.775C77.4307 27.6 77.6501 26.5033 78.0887 25.485C78.5431 24.4667 79.1619 23.5737 79.9452 22.806C80.7286 22.0227 81.6372 21.4117 82.6712 20.973C83.7052 20.5343 84.8176 20.315 86.0082 20.315C86.7446 20.315 87.4574 20.3933 88.1467 20.55C88.8361 20.7067 89.4706 20.9417 90.0502 21.255C90.2852 21.3803 90.4576 21.5527 90.5672 21.772C90.6926 21.9757 90.7552 22.1872 90.7552 22.4065C90.7552 22.7825 90.6299 23.1193 90.3792 23.417C90.1286 23.7147 89.8074 23.8635 89.4157 23.8635C89.2904 23.8635 89.1572 23.8478 89.0162 23.8165C88.8909 23.7852 88.7656 23.7382 88.6402 23.6755C88.2486 23.5032 87.8334 23.37 87.3947 23.276C86.9561 23.182 86.4939 23.135 86.0082 23.135C84.9899 23.135 84.0577 23.3935 83.2117 23.9105C82.3814 24.4118 81.7156 25.0933 81.2142 25.955C80.7286 26.801 80.4857 27.741 80.4857 28.775C80.4857 29.7933 80.7286 30.7333 81.2142 31.595C81.7156 32.4567 82.3814 33.146 83.2117 33.663C84.0577 34.1643 84.9899 34.415 86.0082 34.415C86.4782 34.415 86.9952 34.368 87.5592 34.274C88.1232 34.18 88.5854 34.0547 88.9457 33.898L88.7342 34.603V30.5845L89.1337 30.937H86.5252C86.1179 30.937 85.7732 30.8038 85.4912 30.5375C85.2249 30.2712 85.0917 29.9343 85.0917 29.527C85.0917 29.1197 85.2249 28.7828 85.4912 28.5165C85.7732 28.2502 86.1179 28.117 86.5252 28.117H90.3792C90.7866 28.117 91.1234 28.258 91.3897 28.54C91.6561 28.8063 91.7892 29.1432 91.7892 29.5505V34.5325C91.7892 34.8458 91.7109 35.1043 91.5542 35.308C91.4132 35.5117 91.2487 35.6762 91.0607 35.8015C90.3401 36.2402 89.5489 36.5927 88.6872 36.859C87.8412 37.1097 86.9482 37.235 86.0082 37.235ZM109.741 28.775C109.741 29.95 109.545 31.0467 109.153 32.065C108.761 33.0833 108.205 33.9842 107.485 34.7675C106.78 35.5352 105.934 36.1383 104.947 36.577C103.975 37.0157 102.91 37.235 101.751 37.235C100.591 37.235 99.5259 37.0157 98.5546 36.577C97.5833 36.1383 96.7373 35.5352 96.0166 34.7675C95.3116 33.9842 94.7633 33.0833 94.3716 32.065C93.9799 31.0467 93.7841 29.95 93.7841 28.775C93.7841 27.6 93.9799 26.5033 94.3716 25.485C94.7633 24.4667 95.3116 23.5737 96.0166 22.806C96.7373 22.0227 97.5833 21.4117 98.5546 20.973C99.5259 20.5343 100.591 20.315 101.751 20.315C102.91 20.315 103.975 20.5343 104.947 20.973C105.934 21.4117 106.78 22.0227 107.485 22.806C108.205 23.5737 108.761 24.4667 109.153 25.485C109.545 26.5033 109.741 27.6 109.741 28.775ZM106.686 28.775C106.686 27.7253 106.474 26.7775 106.051 25.9315C105.628 25.0698 105.048 24.3883 104.312 23.887C103.576 23.3857 102.722 23.135 101.751 23.135C100.779 23.135 99.9254 23.3857 99.1891 23.887C98.4528 24.3883 97.8731 25.062 97.4501 25.908C97.0428 26.754 96.8391 27.7097 96.8391 28.775C96.8391 29.8247 97.0428 30.7803 97.4501 31.642C97.8731 32.488 98.4528 33.1617 99.1891 33.663C99.9254 34.1643 100.779 34.415 101.751 34.415C102.722 34.415 103.576 34.1643 104.312 33.663C105.048 33.1617 105.628 32.488 106.051 31.642C106.474 30.7803 106.686 29.8247 106.686 28.775Z" fill="#3BB77E"/>
<path d="M318 24H342" stroke="black" stroke-width="1.5" stroke-linecap="round"/>
<path d="M318 32H342" stroke="black" stroke-width="1.5" stroke-linecap="round"/>
<path d="M318 40H342" stroke="black" stroke-width="1.5" stroke-linecap="round"/>
<defs>
<clipPath id="clip0_802_731">
<rect width="42.4466" height="29.0909" fill="white" transform="translate(0 18.9091)"/>
</clipPath>
</defs>
</svg>
