<svg width="38" height="30" viewBox="0 0 38 30" fill="none" xmlns="http://www.w3.org/2000/svg">
<path d="M30.9569 13.3125H16.5583V14.0625L16.7983 14.4375L17.9982 15.375L18.9581 15.75L19.438 16.3125L19.1981 17.0625L17.5182 17.625L16.5583 18.9375L16.3184 22.875L17.0383 27.1875L17.5182 28.5L18.4781 29.25C18.7181 29.3125 19.2941 29.4375 19.678 29.4375C20.158 29.4375 22.3177 29.625 22.7977 29.625H25.4374H27.1173L26.6373 28.875C26.4773 28.5625 26.1574 27.825 26.1574 27.375C26.1574 26.925 25.9974 25.6875 25.9174 25.125V22.3125C25.9174 22.0125 26.3973 19.8125 26.6373 18.75V18.1875C26.6373 18 27.3572 18 27.5972 17.8125C27.8372 17.625 28.5571 17.625 28.7971 17.625C29.0371 17.625 29.757 17.4375 29.997 17.4375C30.2369 17.4375 29.757 17.25 29.517 17.0625C29.277 16.875 29.517 16.875 29.517 16.6875C29.517 16.5 29.517 16.125 29.277 15.9375C29.0851 15.7875 29.677 15.5 29.997 15.375C30.2369 15.3125 30.7169 15.15 30.7169 15C30.7169 14.85 31.1968 14.6875 31.4368 14.625L31.9168 14.0625V13.5L30.9569 13.3125Z" fill="#FDC040"/>
<path d="M3.62744 23.0973C3.62744 24.0366 4.60542 24.8007 5.80747 24.8007C7.00959 24.8007 7.98757 24.0366 7.98757 23.0973C7.98757 22.158 7.00959 21.3939 5.80747 21.3939C4.60542 21.3939 3.62744 22.158 3.62744 23.0973ZM6.86276 23.0973C6.86276 23.5519 6.38941 23.9218 5.80754 23.9218C5.22568 23.9218 4.7524 23.5519 4.7524 23.0973C4.7524 22.6427 5.22575 22.2728 5.80754 22.2728C6.38933 22.2728 6.86276 22.6427 6.86276 23.0973Z" fill="#3BB77E"/>
<path d="M8.57866 20.7492C9.52506 20.7492 10.2951 20.1476 10.2951 19.4082C10.2951 18.6687 9.52506 18.0671 8.57866 18.0671C7.63225 18.0671 6.8623 18.6687 6.8623 19.4082C6.8623 20.1476 7.63225 20.7492 8.57866 20.7492ZM8.57866 18.946C8.90487 18.946 9.1702 19.1533 9.1702 19.4081C9.1702 19.6629 8.90487 19.8702 8.57866 19.8702C8.25251 19.8702 7.98719 19.6629 7.98719 19.4081C7.98719 19.1533 8.25259 18.946 8.57866 18.946Z" fill="#3BB77E"/>
<path d="M14.5642 26.249C14.5642 25.5095 13.7942 24.908 12.8478 24.908C11.9014 24.908 11.1313 25.5095 11.1313 26.249C11.1313 26.9884 11.9014 27.59 12.8478 27.59C13.7942 27.59 14.5642 26.9884 14.5642 26.249ZM12.2563 26.249C12.2563 25.9942 12.5216 25.7869 12.8478 25.7869C13.1741 25.7869 13.4394 25.9942 13.4394 26.249C13.4394 26.5038 13.1741 26.7111 12.8478 26.7111C12.5216 26.7111 12.2563 26.5038 12.2563 26.249Z" fill="#3BB77E"/>
<path d="M37.1955 18.8348C37.0335 17.9143 36.0157 17.2201 34.8281 17.2201H34.4296L34.8135 16.4401C34.925 16.2136 34.7804 15.9593 34.4904 15.8722C34.2004 15.785 33.875 15.8982 33.7636 16.1246L33.2245 17.2201H30.8839C30.8047 17.1904 30.7244 17.1625 30.6427 17.1387C30.058 16.9684 29.7615 16.7031 29.7615 16.3505C29.7615 16.0218 30.4727 15.7552 30.7789 15.6557C31.6876 15.3594 32.3389 14.7328 32.5212 13.9792C32.8987 12.4143 33.0701 10.7399 33.1388 9.88055C33.1737 9.4343 33.0445 8.99771 32.765 8.61803C31.2966 6.62326 28.6368 5.265 27.7472 4.84922V3.44391H27.7765C28.0872 3.44391 28.339 3.24715 28.339 3.00445V1.42424C28.339 0.638906 27.5212 0 26.5161 0H22.0617C21.0566 0 20.2388 0.638906 20.2388 1.42424V3.00445C20.2388 3.24715 20.4906 3.44391 20.8013 3.44391H20.8307V4.84904C20.2566 5.11734 18.945 5.77869 17.6923 6.74982V6.4415C18.333 6.17068 18.7691 5.64088 18.7691 5.03291C18.7691 4.15043 17.8503 3.43254 16.7208 3.43254H7.83383C6.70437 3.43254 5.78556 4.15049 5.78556 5.03291C5.78556 5.641 6.22194 6.17092 6.86283 6.44168V7.78623C6.09296 8.13715 4.00149 9.18023 2.15908 10.9095C1.82807 11.2211 1.61711 11.5991 1.54902 12.003C1.45745 12.5465 1.32022 13.4338 1.18658 14.5743C1.15823 14.816 1.38606 15.0299 1.6954 15.052C1.7128 15.0533 1.73013 15.0539 1.7473 15.0539C2.03474 15.0539 2.28004 14.8826 2.30674 14.6545C2.43873 13.5283 2.57394 12.6533 2.66423 12.1178C2.69363 11.9435 2.76817 11.7778 2.88156 11.6296H15.6276C15.7268 12.3606 15.8654 13.1843 16.0567 13.9789C16.238 14.7325 16.8894 15.3594 17.7995 15.6558C18.105 15.7551 18.8156 16.0216 18.8156 16.3504C18.8156 16.7033 18.5195 16.9685 17.935 17.1387C16.8855 17.445 16.1455 18.2005 16.0498 19.0634C15.8285 21.0537 15.6642 24.9052 17.0517 28.3368C17.1685 28.6259 17.3507 28.8872 17.5829 29.1128C17.4749 29.118 17.3667 29.1212 17.258 29.1212H7.29613C4.57691 29.1212 2.29084 27.4644 2.09166 25.3495C1.83444 22.6177 1.84681 19.6053 2.12856 16.396C2.14978 16.1538 1.91581 15.9441 1.60594 15.9275C1.2963 15.9107 1.02752 16.0937 1.0063 16.3358C0.720954 19.5865 0.708655 22.6408 0.969853 25.4139C1.08759 26.6648 1.80144 27.8237 2.97987 28.6774C4.15725 29.5303 5.69017 30 7.29613 30H17.2581C17.8016 30 18.3396 29.9461 18.8607 29.8402C19.2056 29.9436 19.5791 29.9997 19.9668 29.9997L34.8281 30C36.0157 30 37.0335 29.3058 37.1955 28.3852C37.753 25.2166 37.753 22.0035 37.1955 18.8348ZM36.4363 25.2708C35.9883 25.4849 35.4786 25.5976 34.9472 25.5976C33.371 25.5976 32.0886 24.5958 32.0886 23.3646C32.0886 22.133 33.371 21.131 34.9472 21.131C35.4641 21.131 35.9611 21.2376 36.3993 21.4403C36.503 22.7158 36.5157 23.9946 36.4363 25.2708ZM32.0161 9.82623C31.9624 10.4978 31.8444 11.6791 31.6116 12.9028H16.9667C16.7342 11.6803 16.6154 10.4984 16.5611 9.82676C16.5397 9.55254 16.618 9.28629 16.788 9.05602C16.8566 8.96279 16.9285 8.87109 17.003 8.78074H31.5747C31.6492 8.87109 31.7212 8.96285 31.7898 9.05607C31.9593 9.28623 32.0375 9.55272 32.0161 9.82623ZM7.98771 6.63334H16.5674V7.60418H7.98771V6.63334ZM21.3637 1.42424C21.3637 1.12354 21.6768 0.878906 22.0617 0.878906H26.5161C26.9009 0.878906 27.2141 1.12354 27.2141 1.42424V2.565H21.3637V1.42424ZM26.6223 3.44391V4.66377H21.9556V3.44391H26.6223ZM21.5415 5.54268H27.0364C27.5112 5.75941 29.2959 6.61898 30.724 7.90189H17.8537C19.2818 6.61875 21.0671 5.75912 21.5415 5.54268ZM7.83383 4.31145H16.7208C17.23 4.31145 17.6443 4.63512 17.6443 5.03291C17.6443 5.43059 17.2304 5.75408 16.7215 5.75437H7.83308C7.32418 5.75408 6.91037 5.43053 6.91037 5.03291C6.91037 4.63512 7.32463 4.31145 7.83383 4.31145ZM3.85721 10.7507C5.48034 9.45053 7.12643 8.67937 7.56993 8.4832H15.9155C15.8811 8.52773 15.8466 8.57215 15.8134 8.61732C15.5331 8.99678 15.4035 9.43354 15.4385 9.88131C15.4575 10.1163 15.4843 10.4127 15.5208 10.7507H3.85721ZM34.8281 29.1211H28.6111V29.1208H28.2167C27.5915 29.1179 27.0567 28.7513 26.9712 28.2656C26.8826 27.7618 26.8082 27.2549 26.7498 26.7588C26.7213 26.5171 26.4476 26.3389 26.1383 26.3614C25.8289 26.3836 25.6012 26.5975 25.6297 26.8392C25.6896 27.3483 25.766 27.8684 25.8568 28.3852C25.9041 28.6536 26.0244 28.9025 26.2001 29.1207H19.9668C19.1183 29.1207 18.3779 28.6993 18.1244 28.072C16.7956 24.7853 16.9564 21.0647 17.1705 19.1392C17.2289 18.6124 17.6835 18.1503 18.3283 17.9621C19.3529 17.6636 19.9405 17.0762 19.9405 16.3504C19.9405 15.9167 19.6441 15.3033 18.232 14.8444C17.6732 14.6624 17.2733 14.2781 17.1622 13.8164C17.1594 13.8049 17.1567 13.7932 17.154 13.7817H31.4239C31.4212 13.7931 31.4185 13.8046 31.4158 13.8161C31.304 14.278 30.904 14.6624 30.3462 14.8443C28.9331 15.3036 28.6365 15.9168 28.6365 16.3504C28.6365 16.6719 28.7523 16.966 28.9699 17.2201H28.2241C27.0364 17.2201 26.0186 17.9143 25.8567 18.8348C25.4936 20.8945 25.3661 22.9932 25.4776 25.0725C25.4907 25.315 25.7559 25.503 26.0631 25.4931C26.3735 25.483 26.6146 25.2782 26.6016 25.0357C26.4929 23.0087 26.6172 20.9627 26.971 18.9546C27.057 18.4669 27.5957 18.099 28.2242 18.099H34.8281C35.4566 18.099 35.9953 18.4669 36.0812 18.9545C36.1679 19.4471 36.2391 19.941 36.2981 20.4354C35.8691 20.3146 35.4139 20.2521 34.9472 20.2521C32.7507 20.2521 30.9637 21.6483 30.9637 23.3646C30.9637 25.0805 32.7507 26.4765 34.9472 26.4765C35.4344 26.4765 35.9086 26.4086 36.3539 26.2771C36.2873 26.9413 36.1975 27.6044 36.0812 28.2654C35.9953 28.7532 35.4566 29.1211 34.8281 29.1211Z" fill="#3BB77E"/>
</svg>
