<svg width="16" height="17" viewBox="0 0 16 17" fill="none" xmlns="http://www.w3.org/2000/svg">
<g clip-path="url(#clip0_817_4593)">
<path d="M6.66667 16.2371H0V14.9037H6.66667V16.2371ZM5.33333 12.2371H0V13.5704H5.33333V12.2371ZM4 9.57039H0V10.9037H4V9.57039ZM8 0.237061C5.87897 0.239355 3.84547 1.08295 2.34568 2.58274C0.845885 4.08253 0.00229405 6.11603 0 8.23706H1.33333C1.33333 6.91852 1.72433 5.62959 2.45687 4.53326C3.18941 3.43693 4.2306 2.58245 5.44878 2.07786C6.66695 1.57328 8.0074 1.44126 9.3006 1.69849C10.5938 1.95573 11.7817 2.59067 12.714 3.52302C13.6464 4.45537 14.2813 5.64325 14.5386 6.93646C14.7958 8.22967 14.6638 9.57011 14.1592 10.7883C13.6546 12.0065 12.8001 13.0476 11.7038 13.7802C10.6075 14.5127 9.31854 14.9037 8 14.9037V16.2371C10.1217 16.2371 12.1566 15.3942 13.6569 13.8939C15.1571 12.3936 16 10.3588 16 8.23706C16 6.11533 15.1571 4.0805 13.6569 2.58021C12.1566 1.07992 10.1217 0.237061 8 0.237061V0.237061ZM7.33333 4.90373V8.51306L9.52867 10.7084L10.4713 9.76573L8.66667 7.96106V4.90373H7.33333Z" fill="#3BB77E"/>
</g>
<defs>
<clipPath id="clip0_817_4593">
<rect width="16" height="16" fill="white" transform="translate(0 0.237061)"/>
</clipPath>
</defs>
</svg>
