<svg width="20" height="20" viewBox="0 0 20 20" fill="none" xmlns="http://www.w3.org/2000/svg">
<g clip-path="url(#clip0_806_1358)">
<path d="M13.6665 3.39334C12.6665 2.54584 11.6365 1.66667 10.594 0.627506L9.99984 0.0375061L9.4165 0.628339C7.53984 2.51001 6.65317 5.39917 6.26817 7.13251C5.97348 6.67576 5.75481 6.17425 5.62067 5.64751L5.26817 4.28667L4.24317 5.25001C2.44734 6.93584 1.24984 8.60834 1.24984 11.2867C1.23307 13.2185 1.86227 15.1006 3.03752 16.634C4.21276 18.1674 5.86665 19.2641 7.73651 19.75C8.2999 19.887 8.87493 19.9707 9.45401 20C9.63506 20.0229 9.81734 20.0349 9.99984 20.0358C10.0957 20.0358 10.189 20.0275 10.2823 20.0217C12.5525 19.9534 14.7066 19.0031 16.2875 17.3725C17.8685 15.742 18.7517 13.5595 18.7498 11.2883C18.7498 7.71 16.394 5.71001 13.6665 3.39334ZM10.1665 18.355C10.0832 18.355 9.99984 18.3633 9.9115 18.3625C9.16144 18.3396 8.44966 18.026 7.92655 17.4879C7.40345 16.9499 7.10998 16.2296 7.10817 15.4792C7.10817 14.4225 7.67484 13.8958 8.95734 12.8042C9.28067 12.5292 9.63234 12.23 10.0023 11.8875C10.3265 12.1817 10.6415 12.4483 10.9323 12.6958C12.2207 13.7892 12.8932 14.41 12.8932 15.4767C12.8918 16.2138 12.6086 16.9224 12.1017 17.4576C11.5948 17.9927 10.9025 18.3137 10.1665 18.355ZM14.3498 16.8792L14.3332 16.8908C14.4827 16.4352 14.5592 15.9587 14.5598 15.4792C14.5598 13.5917 13.3215 12.54 12.0115 11.4275C11.5473 11.0342 11.0682 10.6275 10.5898 10.1492L9.99984 9.56001L9.41067 10.1492C8.87067 10.6883 8.34234 11.1383 7.8765 11.535C6.56984 12.6467 5.44067 13.6075 5.44067 15.4792C5.44245 15.9793 5.52692 16.4757 5.69067 16.9483C4.82322 16.2822 4.12148 15.4247 3.64025 14.4425C3.15902 13.4604 2.91132 12.3803 2.91651 11.2867C2.9028 9.82435 3.46879 8.41611 4.49067 7.37001C4.66669 7.72711 4.87536 8.06717 5.11401 8.38584C5.28831 8.62104 5.52762 8.8001 5.80245 8.90094C6.07728 9.00178 6.37561 9.01999 6.66067 8.95334C6.95066 8.88878 7.21592 8.74206 7.42473 8.53074C7.63355 8.31941 7.77708 8.05241 7.83817 7.76167C8.1871 5.84638 8.94177 4.0279 10.0515 2.42834C10.9307 3.26167 11.8015 3.99917 12.5873 4.66667C15.1973 6.88334 17.0873 8.48501 17.0873 11.2917C17.0894 12.3705 16.8435 13.4355 16.3687 14.4043C15.894 15.373 15.2029 16.2198 14.349 16.8792H14.3498Z" fill="#3BB77E"/>
</g>
<defs>
<clipPath id="clip0_806_1358">
<rect width="20" height="20" fill="white"/>
</clipPath>
</defs>
</svg>
